G75*
G70*
%OFA0B0*%
%FSLAX24Y24*%
%IPPOS*%
%LPD*%
%AMOC8*
5,1,8,0,0,1.08239X$1,22.5*
%
%ADD10C,0.0000*%
%ADD11C,0.0631*%
%ADD12R,0.0516X0.0516*%
%ADD13C,0.0780*%
D10*
X002348Y003185D02*
X021596Y003185D01*
X021596Y003184D02*
X021625Y003181D01*
X021654Y003182D01*
X021683Y003186D01*
X021711Y003193D01*
X021739Y003204D01*
X021764Y003218D01*
X021788Y003235D01*
X021810Y003255D01*
X021829Y003278D01*
X021845Y003302D01*
X021858Y003328D01*
X021868Y003356D01*
X021875Y003385D01*
X021874Y003385D02*
X021874Y010585D01*
X021875Y010585D02*
X021868Y010614D01*
X021858Y010642D01*
X021845Y010668D01*
X021829Y010692D01*
X021810Y010715D01*
X021788Y010735D01*
X021764Y010752D01*
X021739Y010766D01*
X021712Y010777D01*
X021683Y010784D01*
X021654Y010788D01*
X021625Y010789D01*
X021596Y010786D01*
X021595Y010785D02*
X002377Y010785D01*
X002349Y010780D01*
X002323Y010772D01*
X002298Y010760D01*
X002275Y010745D01*
X002254Y010727D01*
X002236Y010706D01*
X002221Y010682D01*
X002209Y010657D01*
X002201Y010630D01*
X002197Y010603D01*
X002196Y010575D01*
X002197Y010576D02*
X002187Y003394D01*
X002188Y003394D02*
X002186Y003370D01*
X002187Y003345D01*
X002192Y003321D01*
X002199Y003298D01*
X002210Y003276D01*
X002224Y003255D01*
X002240Y003237D01*
X002258Y003221D01*
X002279Y003207D01*
X002301Y003197D01*
X002324Y003189D01*
X002348Y003185D01*
D11*
X003915Y005485D03*
X004915Y005485D03*
X005915Y005485D03*
X006915Y005485D03*
X007915Y005485D03*
X008915Y005485D03*
X009915Y005485D03*
X010915Y005485D03*
X011915Y005485D03*
X012915Y005485D03*
X013915Y005485D03*
X014915Y005485D03*
X015915Y005485D03*
X016915Y005485D03*
X016915Y008485D03*
X015915Y008485D03*
X014915Y008485D03*
X013915Y008485D03*
X012915Y008485D03*
X011915Y008485D03*
X010915Y008485D03*
X009915Y008485D03*
X008915Y008485D03*
X007915Y008485D03*
X006915Y008485D03*
X005915Y008485D03*
X004915Y008485D03*
X003915Y008485D03*
D12*
X018972Y006567D03*
X018972Y004646D03*
D13*
X015915Y003935D03*
X014915Y004035D03*
X013915Y003935D03*
X012915Y004035D03*
X011915Y003935D03*
X010915Y004035D03*
X009915Y003935D03*
X008915Y004035D03*
X007915Y003935D03*
X006915Y004035D03*
X005915Y003935D03*
X004915Y004035D03*
X002701Y004485D03*
X002801Y005485D03*
X002701Y006485D03*
X002801Y007485D03*
X002701Y008485D03*
X002801Y009485D03*
X004915Y010035D03*
X005915Y009935D03*
X006915Y010035D03*
X007915Y009935D03*
X008915Y010035D03*
X009915Y009935D03*
X010915Y010035D03*
X011915Y009935D03*
X012915Y010035D03*
X013915Y009935D03*
X014915Y010035D03*
X015915Y009935D03*
M02*
