G75*
G70*
%OFA0B0*%
%FSLAX24Y24*%
%IPPOS*%
%LPD*%
%AMOC8*
5,1,8,0,0,1.08239X$1,22.5*
%
%ADD10C,0.0591*%
%ADD11R,0.0476X0.0476*%
%ADD12C,0.0740*%
%ADD13C,0.0120*%
%ADD14C,0.0160*%
%ADD15C,0.0396*%
D10*
X004387Y005485D03*
X005387Y005485D03*
X006387Y005485D03*
X007387Y005485D03*
X008387Y005485D03*
X009387Y005485D03*
X010387Y005485D03*
X011387Y005485D03*
X012387Y005485D03*
X013387Y005485D03*
X014387Y005485D03*
X015387Y005485D03*
X016387Y005485D03*
X017387Y005485D03*
X017387Y008485D03*
X016387Y008485D03*
X015387Y008485D03*
X014387Y008485D03*
X013387Y008485D03*
X012387Y008485D03*
X011387Y008485D03*
X010387Y008485D03*
X009387Y008485D03*
X008387Y008485D03*
X007387Y008485D03*
X006387Y008485D03*
X005387Y008485D03*
X004387Y008485D03*
D11*
X019287Y006646D03*
X019287Y004724D03*
D12*
X016387Y003935D03*
X015387Y004035D03*
X014387Y003935D03*
X013387Y004035D03*
X012387Y003935D03*
X011387Y004035D03*
X010387Y003935D03*
X009387Y004035D03*
X008387Y003935D03*
X007387Y004035D03*
X006387Y003935D03*
X005387Y004035D03*
X002987Y004485D03*
X003087Y005485D03*
X002987Y006485D03*
X003087Y007485D03*
X002987Y008485D03*
X003087Y009485D03*
X005387Y010035D03*
X006387Y009935D03*
X007387Y010035D03*
X008387Y009935D03*
X009387Y010035D03*
X010387Y009935D03*
X011387Y010035D03*
X012387Y009935D03*
X013387Y010035D03*
X014387Y009935D03*
X015387Y010035D03*
X016387Y009935D03*
D13*
X017345Y006531D02*
X019287Y006646D01*
X018132Y005901D02*
X019287Y004724D01*
X018132Y005901D02*
X018088Y005943D01*
X018042Y005981D01*
X017993Y006017D01*
X017942Y006049D01*
X017889Y006078D01*
X017835Y006104D01*
X017779Y006126D01*
X017721Y006144D01*
X017663Y006158D01*
X017603Y006169D01*
X017543Y006175D01*
X017483Y006178D01*
X017423Y006177D01*
X013919Y006138D01*
X013408Y006453D02*
X015888Y006492D01*
X013920Y006137D02*
X013874Y006135D01*
X013829Y006128D01*
X013784Y006118D01*
X013741Y006105D01*
X013698Y006088D01*
X013658Y006067D01*
X013619Y006043D01*
X013582Y006016D01*
X013548Y005986D01*
X013516Y005953D01*
X013487Y005917D01*
X013461Y005880D01*
X013439Y005840D01*
X013420Y005798D01*
X013404Y005756D01*
X013392Y005712D01*
X013384Y005667D01*
X013379Y005621D01*
X013378Y005576D01*
X013381Y005530D01*
X013388Y005485D01*
X013408Y006452D02*
X013346Y006449D01*
X013284Y006443D01*
X013224Y006432D01*
X013163Y006419D01*
X013104Y006402D01*
X013046Y006381D01*
X012989Y006357D01*
X012934Y006329D01*
X012880Y006298D01*
X012829Y006264D01*
X012779Y006228D01*
X012732Y006188D01*
X012687Y006145D01*
X012645Y006100D01*
X012605Y006053D01*
X012569Y006003D01*
X012535Y005951D01*
X012505Y005897D01*
X012478Y005842D01*
X012454Y005785D01*
X012433Y005727D01*
X012417Y005667D01*
X012403Y005607D01*
X012394Y005546D01*
X012387Y005485D01*
X005387Y005485D02*
X005087Y005785D01*
X005037Y005832D01*
X004984Y005877D01*
X004929Y005919D01*
X004872Y005957D01*
X004812Y005993D01*
X004751Y006025D01*
X004688Y006053D01*
X004624Y006079D01*
X004558Y006100D01*
X004492Y006118D01*
X004424Y006132D01*
X004356Y006143D01*
X004287Y006150D01*
X004218Y006153D01*
X004149Y006152D01*
X004080Y006147D01*
X004012Y006139D01*
X003944Y006127D01*
X003876Y006111D01*
X003810Y006092D01*
X003745Y006069D01*
X003681Y006042D01*
X003619Y006012D01*
X003559Y005978D01*
X003500Y005942D01*
X003444Y005902D01*
X003390Y005859D01*
X003338Y005813D01*
X003289Y005764D01*
X003243Y005713D01*
X003199Y005659D01*
X003159Y005603D01*
X003122Y005545D01*
X003088Y005485D01*
X015888Y006491D02*
X016616Y006499D01*
X017344Y006531D01*
D14*
X002373Y003371D02*
X002368Y003381D01*
X002367Y003384D01*
X002367Y003390D01*
X002371Y003460D01*
X002367Y003464D01*
X002377Y010568D01*
X002378Y010577D01*
X002389Y010594D01*
X002406Y010604D01*
X002416Y010605D01*
X002426Y010605D01*
X002491Y010605D01*
X021989Y010605D01*
X021994Y010604D01*
X022003Y010599D01*
X022009Y010590D01*
X022009Y010585D01*
X022009Y010529D01*
X022009Y010510D01*
X022009Y003385D01*
X022009Y003380D01*
X022003Y003371D01*
X021994Y003366D01*
X021989Y003365D01*
X021943Y003365D01*
X021915Y003365D01*
X002387Y003365D01*
X002382Y003366D01*
X002373Y003371D01*
X002367Y003502D02*
X005236Y003502D01*
X005278Y003485D02*
X005496Y003485D01*
X005699Y003569D01*
X005853Y003723D01*
X005866Y003755D01*
X005921Y003623D01*
X006076Y003469D01*
X006278Y003385D01*
X006496Y003385D01*
X006699Y003469D01*
X006853Y003623D01*
X006908Y003755D01*
X006921Y003723D01*
X007076Y003569D01*
X007278Y003485D01*
X007496Y003485D01*
X007699Y003569D01*
X007853Y003723D01*
X007866Y003755D01*
X007921Y003623D01*
X008076Y003469D01*
X008278Y003385D01*
X008496Y003385D01*
X008699Y003469D01*
X008853Y003623D01*
X008908Y003755D01*
X008921Y003723D01*
X009076Y003569D01*
X009278Y003485D01*
X009496Y003485D01*
X009699Y003569D01*
X009853Y003723D01*
X009866Y003755D01*
X009921Y003623D01*
X010076Y003469D01*
X010278Y003385D01*
X010496Y003385D01*
X010699Y003469D01*
X010853Y003623D01*
X010908Y003755D01*
X010921Y003723D01*
X011076Y003569D01*
X011278Y003485D01*
X011496Y003485D01*
X011699Y003569D01*
X011853Y003723D01*
X011866Y003755D01*
X011921Y003623D01*
X012076Y003469D01*
X012278Y003385D01*
X012496Y003385D01*
X012699Y003469D01*
X012853Y003623D01*
X012908Y003755D01*
X012921Y003723D01*
X013076Y003569D01*
X013278Y003485D01*
X013496Y003485D01*
X013699Y003569D01*
X013853Y003723D01*
X013866Y003755D01*
X013921Y003623D01*
X014076Y003469D01*
X014278Y003385D01*
X014496Y003385D01*
X014699Y003469D01*
X014853Y003623D01*
X014908Y003755D01*
X014921Y003723D01*
X015076Y003569D01*
X015278Y003485D01*
X015496Y003485D01*
X015699Y003569D01*
X015853Y003723D01*
X015866Y003755D01*
X015921Y003623D01*
X016076Y003469D01*
X016278Y003385D01*
X016367Y003385D01*
X016367Y003915D01*
X016407Y003915D01*
X016407Y003955D01*
X016367Y003955D01*
X016367Y004485D01*
X016278Y004485D01*
X016076Y004401D01*
X015921Y004246D01*
X015908Y004215D01*
X015853Y004346D01*
X015699Y004501D01*
X015496Y004585D01*
X015278Y004585D01*
X015076Y004501D01*
X014921Y004346D01*
X014866Y004215D01*
X014853Y004246D01*
X014699Y004401D01*
X014496Y004485D01*
X014278Y004485D01*
X014076Y004401D01*
X013921Y004246D01*
X013908Y004215D01*
X013853Y004346D01*
X013699Y004501D01*
X013496Y004585D01*
X013278Y004585D01*
X013076Y004501D01*
X012921Y004346D01*
X012866Y004215D01*
X012853Y004246D01*
X012699Y004401D01*
X012496Y004485D01*
X012278Y004485D01*
X012076Y004401D01*
X011921Y004246D01*
X011908Y004215D01*
X011853Y004346D01*
X011699Y004501D01*
X011496Y004585D01*
X011278Y004585D01*
X011076Y004501D01*
X010921Y004346D01*
X010866Y004215D01*
X010853Y004246D01*
X010699Y004401D01*
X010496Y004485D01*
X010278Y004485D01*
X010076Y004401D01*
X009921Y004246D01*
X009908Y004215D01*
X009853Y004346D01*
X009699Y004501D01*
X009496Y004585D01*
X009278Y004585D01*
X009076Y004501D01*
X008921Y004346D01*
X008866Y004215D01*
X008853Y004246D01*
X008699Y004401D01*
X008496Y004485D01*
X008278Y004485D01*
X008076Y004401D01*
X007921Y004246D01*
X007908Y004215D01*
X007853Y004346D01*
X007699Y004501D01*
X007496Y004585D01*
X007278Y004585D01*
X007076Y004501D01*
X006921Y004346D01*
X006866Y004215D01*
X006853Y004246D01*
X006699Y004401D01*
X006496Y004485D01*
X006278Y004485D01*
X006076Y004401D01*
X005921Y004246D01*
X005908Y004215D01*
X005853Y004346D01*
X005699Y004501D01*
X005496Y004585D01*
X005278Y004585D01*
X005076Y004501D01*
X004921Y004346D01*
X004837Y004144D01*
X004837Y003925D01*
X004921Y003723D01*
X005076Y003569D01*
X005278Y003485D01*
X005538Y003502D02*
X006042Y003502D01*
X005905Y003661D02*
X005791Y003661D01*
X004984Y003661D02*
X002368Y003661D01*
X002368Y003819D02*
X004881Y003819D01*
X004837Y003978D02*
X003200Y003978D01*
X003299Y004019D02*
X003096Y003935D01*
X002878Y003935D01*
X002676Y004019D01*
X002521Y004173D01*
X002437Y004375D01*
X002437Y004594D01*
X002521Y004796D01*
X002676Y004951D01*
X002807Y005006D01*
X002776Y005019D01*
X002621Y005173D01*
X002537Y005375D01*
X002537Y005594D01*
X002621Y005796D01*
X002776Y005951D01*
X002807Y005964D01*
X002676Y006019D01*
X002521Y006173D01*
X002437Y006375D01*
X002437Y006594D01*
X002521Y006796D01*
X002676Y006951D01*
X002807Y007006D01*
X002776Y007019D01*
X002621Y007173D01*
X002537Y007375D01*
X002537Y007594D01*
X002621Y007796D01*
X002776Y007951D01*
X002807Y007964D01*
X002676Y008019D01*
X002521Y008173D01*
X002437Y008375D01*
X002437Y008465D01*
X002967Y008465D01*
X002967Y008505D01*
X002437Y008505D01*
X002437Y008594D01*
X002521Y008796D01*
X002676Y008951D01*
X002807Y009006D01*
X002776Y009019D01*
X002621Y009173D01*
X002537Y009375D01*
X002537Y009465D01*
X003067Y009465D01*
X003067Y009505D01*
X003067Y010035D01*
X002978Y010035D01*
X002776Y009951D01*
X002621Y009796D01*
X002537Y009594D01*
X002537Y009505D01*
X003067Y009505D01*
X003107Y009505D01*
X003107Y010035D01*
X003196Y010035D01*
X003399Y009951D01*
X003553Y009796D01*
X003637Y009594D01*
X003637Y009505D01*
X003107Y009505D01*
X003107Y009465D01*
X003637Y009465D01*
X003637Y009375D01*
X003553Y009173D01*
X003399Y009019D01*
X003267Y008964D01*
X003299Y008951D01*
X003453Y008796D01*
X003537Y008594D01*
X003537Y008505D01*
X003007Y008505D01*
X003007Y008465D01*
X003537Y008465D01*
X003537Y008375D01*
X003453Y008173D01*
X003299Y008019D01*
X003267Y008006D01*
X003399Y007951D01*
X003553Y007796D01*
X003637Y007594D01*
X003637Y007375D01*
X003553Y007173D01*
X003399Y007019D01*
X003267Y006964D01*
X003299Y006951D01*
X003453Y006796D01*
X003537Y006594D01*
X003537Y006375D01*
X003466Y006204D01*
X003743Y006342D01*
X003743Y006342D01*
X004208Y006411D01*
X004208Y006411D01*
X004672Y006335D01*
X004672Y006335D01*
X005091Y006121D01*
X005091Y006121D01*
X005223Y005988D01*
X005223Y005988D01*
X005263Y005948D01*
X005293Y005960D01*
X005482Y005960D01*
X005656Y005888D01*
X005790Y005754D01*
X005862Y005579D01*
X005862Y005390D01*
X005790Y005216D01*
X005656Y005082D01*
X005482Y005010D01*
X005293Y005010D01*
X005118Y005082D01*
X004984Y005216D01*
X004912Y005390D01*
X004912Y005579D01*
X004924Y005609D01*
X004917Y005615D01*
X004809Y005708D01*
X004862Y005579D01*
X004862Y005390D01*
X004790Y005216D01*
X004656Y005082D01*
X004482Y005010D01*
X004293Y005010D01*
X004118Y005082D01*
X003984Y005216D01*
X003912Y005390D01*
X003912Y005579D01*
X003984Y005754D01*
X004118Y005888D01*
X004165Y005907D01*
X003893Y005866D01*
X003610Y005726D01*
X003590Y005707D01*
X003637Y005594D01*
X003637Y005375D01*
X003553Y005173D01*
X003399Y005019D01*
X003267Y004964D01*
X003299Y004951D01*
X003453Y004796D01*
X003537Y004594D01*
X003537Y004375D01*
X003453Y004173D01*
X003299Y004019D01*
X003416Y004136D02*
X004837Y004136D01*
X004899Y004295D02*
X003504Y004295D01*
X003537Y004453D02*
X005028Y004453D01*
X005746Y004453D02*
X006201Y004453D01*
X005969Y004295D02*
X005875Y004295D01*
X006573Y004453D02*
X007028Y004453D01*
X006899Y004295D02*
X006805Y004295D01*
X007746Y004453D02*
X008201Y004453D01*
X007969Y004295D02*
X007875Y004295D01*
X008573Y004453D02*
X009028Y004453D01*
X008899Y004295D02*
X008805Y004295D01*
X008869Y003661D02*
X008984Y003661D01*
X008732Y003502D02*
X009236Y003502D01*
X009538Y003502D02*
X010042Y003502D01*
X009905Y003661D02*
X009791Y003661D01*
X010732Y003502D02*
X011236Y003502D01*
X010984Y003661D02*
X010869Y003661D01*
X011538Y003502D02*
X012042Y003502D01*
X011905Y003661D02*
X011791Y003661D01*
X011875Y004295D02*
X011969Y004295D01*
X011746Y004453D02*
X012201Y004453D01*
X012573Y004453D02*
X013028Y004453D01*
X012899Y004295D02*
X012805Y004295D01*
X012869Y003661D02*
X012984Y003661D01*
X012732Y003502D02*
X013236Y003502D01*
X013538Y003502D02*
X014042Y003502D01*
X013905Y003661D02*
X013791Y003661D01*
X014732Y003502D02*
X015236Y003502D01*
X014984Y003661D02*
X014869Y003661D01*
X015538Y003502D02*
X016042Y003502D01*
X015905Y003661D02*
X015791Y003661D01*
X016367Y003661D02*
X016407Y003661D01*
X016407Y003819D02*
X016367Y003819D01*
X016407Y003915D02*
X016407Y003385D01*
X016496Y003385D01*
X016699Y003469D01*
X016853Y003623D01*
X016937Y003825D01*
X016937Y003915D01*
X016407Y003915D01*
X016407Y003955D02*
X016937Y003955D01*
X016937Y004044D01*
X016853Y004246D01*
X016699Y004401D01*
X016496Y004485D01*
X016407Y004485D01*
X016407Y003955D01*
X016407Y003978D02*
X016367Y003978D01*
X016367Y004136D02*
X016407Y004136D01*
X016407Y004295D02*
X016367Y004295D01*
X016367Y004453D02*
X016407Y004453D01*
X016573Y004453D02*
X018869Y004453D01*
X018869Y004412D02*
X018975Y004306D01*
X019599Y004306D01*
X019705Y004412D01*
X019705Y005037D01*
X019599Y005142D01*
X019213Y005142D01*
X018337Y006035D01*
X018337Y006035D01*
X018313Y006060D01*
X018270Y006104D01*
X018187Y006188D01*
X017941Y006326D01*
X018869Y006381D01*
X018869Y006333D01*
X018975Y006228D01*
X019599Y006228D01*
X019705Y006333D01*
X019705Y006958D01*
X019599Y007063D01*
X018975Y007063D01*
X018869Y006958D01*
X018869Y006861D01*
X017378Y006774D01*
X017330Y006771D01*
X016610Y006740D01*
X015932Y006732D01*
X015932Y006733D01*
X015887Y006732D01*
X015841Y006732D01*
X015839Y006731D01*
X013452Y006693D01*
X013451Y006693D01*
X013404Y006693D01*
X013212Y006690D01*
X012848Y006572D01*
X012534Y006352D01*
X012534Y006352D01*
X012298Y006050D01*
X012258Y005946D01*
X012118Y005888D01*
X011984Y005754D01*
X011912Y005579D01*
X011912Y005390D01*
X011984Y005216D01*
X012118Y005082D01*
X012293Y005010D01*
X012482Y005010D01*
X012656Y005082D01*
X012790Y005216D01*
X012862Y005390D01*
X012862Y005579D01*
X012790Y005754D01*
X012732Y005812D01*
X012874Y005993D01*
X013068Y006129D01*
X013293Y006202D01*
X013411Y006213D01*
X013423Y006213D01*
X013442Y006213D01*
X013305Y006095D01*
X013211Y005926D01*
X013118Y005888D01*
X012984Y005754D01*
X012912Y005579D01*
X012912Y005390D01*
X012984Y005216D01*
X013118Y005082D01*
X013293Y005010D01*
X013482Y005010D01*
X013656Y005082D01*
X013790Y005216D01*
X013862Y005390D01*
X013862Y005579D01*
X013790Y005754D01*
X013726Y005818D01*
X013768Y005854D01*
X013868Y005892D01*
X013922Y005898D01*
X013951Y005898D01*
X013970Y005898D01*
X014148Y005900D01*
X014118Y005888D01*
X013984Y005754D01*
X013912Y005579D01*
X013912Y005390D01*
X013984Y005216D01*
X014118Y005082D01*
X014293Y005010D01*
X014482Y005010D01*
X014656Y005082D01*
X014790Y005216D01*
X014862Y005390D01*
X014862Y005579D01*
X014790Y005754D01*
X014656Y005888D01*
X014614Y005905D01*
X015176Y005912D01*
X015118Y005888D01*
X014984Y005754D01*
X014912Y005579D01*
X014912Y005390D01*
X014984Y005216D01*
X015118Y005082D01*
X015293Y005010D01*
X015482Y005010D01*
X015656Y005082D01*
X015790Y005216D01*
X015862Y005390D01*
X015862Y005579D01*
X015790Y005754D01*
X015656Y005888D01*
X015587Y005916D01*
X016204Y005923D01*
X016118Y005888D01*
X015984Y005754D01*
X015912Y005579D01*
X015912Y005390D01*
X015984Y005216D01*
X016118Y005082D01*
X016293Y005010D01*
X016482Y005010D01*
X016656Y005082D01*
X016790Y005216D01*
X016862Y005390D01*
X016862Y005579D01*
X016790Y005754D01*
X016656Y005888D01*
X016561Y005927D01*
X017232Y005935D01*
X017118Y005888D01*
X016984Y005754D01*
X016912Y005579D01*
X016912Y005390D01*
X016984Y005216D01*
X017118Y005082D01*
X017293Y005010D01*
X017482Y005010D01*
X017656Y005082D01*
X017790Y005216D01*
X017862Y005390D01*
X017862Y005579D01*
X017790Y005754D01*
X017656Y005888D01*
X017551Y005931D01*
X017720Y005892D01*
X017888Y005797D01*
X017961Y005733D01*
X017968Y005726D01*
X018869Y004807D01*
X018869Y004412D01*
X018869Y004612D02*
X003530Y004612D01*
X003464Y004770D02*
X018869Y004770D01*
X018750Y004929D02*
X003321Y004929D01*
X003467Y005087D02*
X004112Y005087D01*
X003972Y005246D02*
X003583Y005246D01*
X003637Y005404D02*
X003912Y005404D01*
X003912Y005563D02*
X003637Y005563D01*
X003605Y005722D02*
X003971Y005722D01*
X003985Y005880D02*
X004110Y005880D01*
X003837Y006356D02*
X003529Y006356D01*
X003537Y006514D02*
X012766Y006514D01*
X012848Y006572D02*
X012848Y006572D01*
X013161Y006673D02*
X003505Y006673D01*
X003418Y006831D02*
X018360Y006831D01*
X018901Y006990D02*
X003329Y006990D01*
X003528Y007148D02*
X022009Y007148D01*
X022009Y006990D02*
X019673Y006990D01*
X019705Y006831D02*
X022009Y006831D01*
X022009Y006673D02*
X019705Y006673D01*
X019705Y006514D02*
X022009Y006514D01*
X022009Y006356D02*
X019705Y006356D01*
X018869Y006356D02*
X018447Y006356D01*
X018270Y006104D02*
X018270Y006104D01*
X018334Y006039D02*
X022009Y006039D01*
X022009Y006197D02*
X018170Y006197D01*
X018187Y006188D02*
X018187Y006188D01*
X018489Y005880D02*
X022009Y005880D01*
X022009Y005722D02*
X018645Y005722D01*
X018800Y005563D02*
X022009Y005563D01*
X022009Y005404D02*
X018956Y005404D01*
X019111Y005246D02*
X022009Y005246D01*
X022009Y005087D02*
X019654Y005087D01*
X019705Y004929D02*
X022009Y004929D01*
X022009Y004770D02*
X019705Y004770D01*
X019705Y004612D02*
X022009Y004612D01*
X022009Y004453D02*
X019705Y004453D01*
X018594Y005087D02*
X017662Y005087D01*
X017802Y005246D02*
X018439Y005246D01*
X018283Y005404D02*
X017862Y005404D01*
X017862Y005563D02*
X018128Y005563D01*
X017972Y005722D02*
X017803Y005722D01*
X017741Y005880D02*
X017664Y005880D01*
X017110Y005880D02*
X016664Y005880D01*
X016803Y005722D02*
X016971Y005722D01*
X016912Y005563D02*
X016862Y005563D01*
X016862Y005404D02*
X016912Y005404D01*
X016972Y005246D02*
X016802Y005246D01*
X016662Y005087D02*
X017112Y005087D01*
X016112Y005087D02*
X015662Y005087D01*
X015802Y005246D02*
X015972Y005246D01*
X015912Y005404D02*
X015862Y005404D01*
X015862Y005563D02*
X015912Y005563D01*
X015971Y005722D02*
X015803Y005722D01*
X015664Y005880D02*
X016110Y005880D01*
X015110Y005880D02*
X014664Y005880D01*
X014803Y005722D02*
X014971Y005722D01*
X014912Y005563D02*
X014862Y005563D01*
X014862Y005404D02*
X014912Y005404D01*
X014972Y005246D02*
X014802Y005246D01*
X014662Y005087D02*
X015112Y005087D01*
X015028Y004453D02*
X014573Y004453D01*
X014805Y004295D02*
X014899Y004295D01*
X014201Y004453D02*
X013746Y004453D01*
X013875Y004295D02*
X013969Y004295D01*
X014112Y005087D02*
X013662Y005087D01*
X013802Y005246D02*
X013972Y005246D01*
X013912Y005404D02*
X013862Y005404D01*
X013862Y005563D02*
X013912Y005563D01*
X013971Y005722D02*
X013803Y005722D01*
X013836Y005880D02*
X014110Y005880D01*
X013970Y005898D02*
X013970Y005898D01*
X013423Y006197D02*
X013278Y006197D01*
X013305Y006095D02*
X013305Y006095D01*
X013305Y006095D01*
X013274Y006039D02*
X012939Y006039D01*
X012785Y005880D02*
X013110Y005880D01*
X012971Y005722D02*
X012803Y005722D01*
X012862Y005563D02*
X012912Y005563D01*
X012912Y005404D02*
X012862Y005404D01*
X012802Y005246D02*
X012972Y005246D01*
X013112Y005087D02*
X012662Y005087D01*
X012112Y005087D02*
X011662Y005087D01*
X011656Y005082D02*
X011790Y005216D01*
X011862Y005390D01*
X011862Y005485D01*
X011862Y005579D01*
X011790Y005754D01*
X011656Y005888D01*
X011482Y005960D01*
X011387Y005960D01*
X011293Y005960D01*
X011118Y005888D01*
X010984Y005754D01*
X010912Y005579D01*
X010912Y005485D01*
X011387Y005485D01*
X011387Y005960D01*
X011387Y005485D01*
X011387Y005485D01*
X011387Y005485D01*
X010912Y005485D01*
X010912Y005390D01*
X010984Y005216D01*
X011118Y005082D01*
X011293Y005010D01*
X011387Y005010D01*
X011387Y005484D01*
X011387Y005484D01*
X011387Y005010D01*
X011482Y005010D01*
X011656Y005082D01*
X011802Y005246D02*
X011972Y005246D01*
X011912Y005404D02*
X011862Y005404D01*
X011862Y005485D02*
X011387Y005485D01*
X011862Y005485D01*
X011862Y005563D02*
X011912Y005563D01*
X011971Y005722D02*
X011803Y005722D01*
X011664Y005880D02*
X012110Y005880D01*
X012294Y006039D02*
X005173Y006039D01*
X004942Y006197D02*
X012413Y006197D01*
X012298Y006050D02*
X012298Y006050D01*
X012534Y006352D02*
X012534Y006352D01*
X012539Y006356D02*
X004548Y006356D01*
X004862Y005563D02*
X004912Y005563D01*
X004912Y005404D02*
X004862Y005404D01*
X004802Y005246D02*
X004972Y005246D01*
X005112Y005087D02*
X004662Y005087D01*
X005662Y005087D02*
X006112Y005087D01*
X006118Y005082D02*
X006293Y005010D01*
X006482Y005010D01*
X006656Y005082D01*
X006790Y005216D01*
X006862Y005390D01*
X006862Y005579D01*
X006790Y005754D01*
X006656Y005888D01*
X006482Y005960D01*
X006293Y005960D01*
X006118Y005888D01*
X005984Y005754D01*
X005912Y005579D01*
X005912Y005390D01*
X005984Y005216D01*
X006118Y005082D01*
X005972Y005246D02*
X005802Y005246D01*
X005862Y005404D02*
X005912Y005404D01*
X005912Y005563D02*
X005862Y005563D01*
X005803Y005722D02*
X005971Y005722D01*
X006110Y005880D02*
X005664Y005880D01*
X006664Y005880D02*
X007110Y005880D01*
X007118Y005888D02*
X006984Y005754D01*
X006912Y005579D01*
X006912Y005390D01*
X006984Y005216D01*
X007118Y005082D01*
X007293Y005010D01*
X007482Y005010D01*
X007656Y005082D01*
X007790Y005216D01*
X007862Y005390D01*
X007862Y005579D01*
X007790Y005754D01*
X007656Y005888D01*
X007482Y005960D01*
X007293Y005960D01*
X007118Y005888D01*
X006971Y005722D02*
X006803Y005722D01*
X006862Y005563D02*
X006912Y005563D01*
X006912Y005404D02*
X006862Y005404D01*
X006802Y005246D02*
X006972Y005246D01*
X007112Y005087D02*
X006662Y005087D01*
X007662Y005087D02*
X008112Y005087D01*
X008118Y005082D02*
X008293Y005010D01*
X008482Y005010D01*
X008656Y005082D01*
X008790Y005216D01*
X008862Y005390D01*
X008862Y005579D01*
X008790Y005754D01*
X008656Y005888D01*
X008482Y005960D01*
X008293Y005960D01*
X008118Y005888D01*
X007984Y005754D01*
X007912Y005579D01*
X007912Y005390D01*
X007984Y005216D01*
X008118Y005082D01*
X007972Y005246D02*
X007802Y005246D01*
X007862Y005404D02*
X007912Y005404D01*
X007912Y005563D02*
X007862Y005563D01*
X007803Y005722D02*
X007971Y005722D01*
X008110Y005880D02*
X007664Y005880D01*
X008664Y005880D02*
X009110Y005880D01*
X009118Y005888D02*
X008984Y005754D01*
X008912Y005579D01*
X008912Y005390D01*
X008984Y005216D01*
X009118Y005082D01*
X009293Y005010D01*
X009482Y005010D01*
X009656Y005082D01*
X009790Y005216D01*
X009862Y005390D01*
X009862Y005579D01*
X009790Y005754D01*
X009656Y005888D01*
X009482Y005960D01*
X009293Y005960D01*
X009118Y005888D01*
X008971Y005722D02*
X008803Y005722D01*
X008862Y005563D02*
X008912Y005563D01*
X008912Y005404D02*
X008862Y005404D01*
X008802Y005246D02*
X008972Y005246D01*
X009112Y005087D02*
X008662Y005087D01*
X009662Y005087D02*
X010112Y005087D01*
X010118Y005082D02*
X010293Y005010D01*
X010482Y005010D01*
X010656Y005082D01*
X010790Y005216D01*
X010862Y005390D01*
X010862Y005579D01*
X010790Y005754D01*
X010656Y005888D01*
X010482Y005960D01*
X010293Y005960D01*
X010118Y005888D01*
X009984Y005754D01*
X009912Y005579D01*
X009912Y005390D01*
X009984Y005216D01*
X010118Y005082D01*
X009972Y005246D02*
X009802Y005246D01*
X009862Y005404D02*
X009912Y005404D01*
X009912Y005563D02*
X009862Y005563D01*
X009803Y005722D02*
X009971Y005722D01*
X010110Y005880D02*
X009664Y005880D01*
X010664Y005880D02*
X011110Y005880D01*
X010971Y005722D02*
X010803Y005722D01*
X010862Y005563D02*
X010912Y005563D01*
X010912Y005404D02*
X010862Y005404D01*
X010802Y005246D02*
X010972Y005246D01*
X011112Y005087D02*
X010662Y005087D01*
X011387Y005087D02*
X011387Y005087D01*
X011387Y005246D02*
X011387Y005246D01*
X011387Y005404D02*
X011387Y005404D01*
X011387Y005485D02*
X011387Y005485D01*
X011387Y005563D02*
X011387Y005563D01*
X011387Y005722D02*
X011387Y005722D01*
X011387Y005880D02*
X011387Y005880D01*
X013212Y006690D02*
X013212Y006690D01*
X013293Y008010D02*
X013118Y008082D01*
X012984Y008216D01*
X012912Y008390D01*
X012912Y008579D01*
X012984Y008754D01*
X013118Y008888D01*
X013293Y008960D01*
X013482Y008960D01*
X013656Y008888D01*
X013790Y008754D01*
X013862Y008579D01*
X013862Y008390D01*
X013790Y008216D01*
X013656Y008082D01*
X013482Y008010D01*
X013293Y008010D01*
X013100Y008100D02*
X012674Y008100D01*
X012656Y008082D02*
X012790Y008216D01*
X012862Y008390D01*
X012862Y008579D01*
X012790Y008754D01*
X012656Y008888D01*
X012482Y008960D01*
X012293Y008960D01*
X012118Y008888D01*
X011984Y008754D01*
X011912Y008579D01*
X011912Y008390D01*
X011984Y008216D01*
X012118Y008082D01*
X012293Y008010D01*
X012482Y008010D01*
X012656Y008082D01*
X012808Y008258D02*
X012966Y008258D01*
X012912Y008417D02*
X012862Y008417D01*
X012862Y008575D02*
X012912Y008575D01*
X012976Y008734D02*
X012798Y008734D01*
X012645Y008892D02*
X013129Y008892D01*
X013645Y008892D02*
X014129Y008892D01*
X014118Y008888D02*
X013984Y008754D01*
X013912Y008579D01*
X013912Y008390D01*
X013984Y008216D01*
X014118Y008082D01*
X014293Y008010D01*
X014482Y008010D01*
X014656Y008082D01*
X014790Y008216D01*
X014862Y008390D01*
X014862Y008579D01*
X014790Y008754D01*
X014656Y008888D01*
X014482Y008960D01*
X014293Y008960D01*
X014118Y008888D01*
X013976Y008734D02*
X013798Y008734D01*
X013862Y008575D02*
X013912Y008575D01*
X013912Y008417D02*
X013862Y008417D01*
X013808Y008258D02*
X013966Y008258D01*
X014100Y008100D02*
X013674Y008100D01*
X014674Y008100D02*
X015100Y008100D01*
X015118Y008082D02*
X015293Y008010D01*
X015482Y008010D01*
X015656Y008082D01*
X015790Y008216D01*
X015862Y008390D01*
X015862Y008579D01*
X015790Y008754D01*
X015656Y008888D01*
X015482Y008960D01*
X015293Y008960D01*
X015118Y008888D01*
X014984Y008754D01*
X014912Y008579D01*
X014912Y008390D01*
X014984Y008216D01*
X015118Y008082D01*
X014966Y008258D02*
X014808Y008258D01*
X014862Y008417D02*
X014912Y008417D01*
X014912Y008575D02*
X014862Y008575D01*
X014798Y008734D02*
X014976Y008734D01*
X015129Y008892D02*
X014645Y008892D01*
X014496Y009385D02*
X014699Y009469D01*
X014853Y009623D01*
X014908Y009755D01*
X014921Y009723D01*
X015076Y009569D01*
X015278Y009485D01*
X015496Y009485D01*
X015699Y009569D01*
X015853Y009723D01*
X015866Y009755D01*
X015921Y009623D01*
X016076Y009469D01*
X016278Y009385D01*
X016496Y009385D01*
X016699Y009469D01*
X016853Y009623D01*
X016937Y009825D01*
X016937Y010044D01*
X016853Y010246D01*
X016699Y010401D01*
X016496Y010485D01*
X016278Y010485D01*
X016076Y010401D01*
X015921Y010246D01*
X015908Y010215D01*
X015853Y010346D01*
X015699Y010501D01*
X015496Y010585D01*
X015278Y010585D01*
X015076Y010501D01*
X014921Y010346D01*
X014866Y010215D01*
X014853Y010246D01*
X014699Y010401D01*
X014496Y010485D01*
X014278Y010485D01*
X014076Y010401D01*
X013921Y010246D01*
X013908Y010215D01*
X013853Y010346D01*
X013699Y010501D01*
X013496Y010585D01*
X013278Y010585D01*
X013076Y010501D01*
X012921Y010346D01*
X012866Y010215D01*
X012853Y010246D01*
X012699Y010401D01*
X012496Y010485D01*
X012278Y010485D01*
X012076Y010401D01*
X011921Y010246D01*
X011908Y010215D01*
X011853Y010346D01*
X011699Y010501D01*
X011496Y010585D01*
X011278Y010585D01*
X011076Y010501D01*
X010921Y010346D01*
X010866Y010215D01*
X010853Y010246D01*
X010699Y010401D01*
X010496Y010485D01*
X010278Y010485D01*
X010076Y010401D01*
X009921Y010246D01*
X009908Y010215D01*
X009853Y010346D01*
X009699Y010501D01*
X009496Y010585D01*
X009278Y010585D01*
X009076Y010501D01*
X008921Y010346D01*
X008866Y010215D01*
X008853Y010246D01*
X008699Y010401D01*
X008496Y010485D01*
X008278Y010485D01*
X008076Y010401D01*
X007921Y010246D01*
X007908Y010215D01*
X007853Y010346D01*
X007699Y010501D01*
X007496Y010585D01*
X007278Y010585D01*
X007076Y010501D01*
X006921Y010346D01*
X006866Y010215D01*
X006853Y010246D01*
X006699Y010401D01*
X006496Y010485D01*
X006278Y010485D01*
X006076Y010401D01*
X005921Y010246D01*
X005908Y010215D01*
X005853Y010346D01*
X005699Y010501D01*
X005496Y010585D01*
X005278Y010585D01*
X005076Y010501D01*
X004921Y010346D01*
X004837Y010144D01*
X004837Y009925D01*
X004921Y009723D01*
X005076Y009569D01*
X005278Y009485D01*
X005496Y009485D01*
X005699Y009569D01*
X005853Y009723D01*
X005866Y009755D01*
X005921Y009623D01*
X006076Y009469D01*
X006278Y009385D01*
X006496Y009385D01*
X006699Y009469D01*
X006853Y009623D01*
X006908Y009755D01*
X006921Y009723D01*
X007076Y009569D01*
X007278Y009485D01*
X007496Y009485D01*
X007699Y009569D01*
X007853Y009723D01*
X007866Y009755D01*
X007921Y009623D01*
X008076Y009469D01*
X008278Y009385D01*
X008496Y009385D01*
X008699Y009469D01*
X008853Y009623D01*
X008908Y009755D01*
X008921Y009723D01*
X009076Y009569D01*
X009278Y009485D01*
X009496Y009485D01*
X009699Y009569D01*
X009853Y009723D01*
X009866Y009755D01*
X009921Y009623D01*
X010076Y009469D01*
X010278Y009385D01*
X010496Y009385D01*
X010699Y009469D01*
X010853Y009623D01*
X010908Y009755D01*
X010921Y009723D01*
X011076Y009569D01*
X011278Y009485D01*
X011496Y009485D01*
X011699Y009569D01*
X011853Y009723D01*
X011866Y009755D01*
X011921Y009623D01*
X012076Y009469D01*
X012278Y009385D01*
X012496Y009385D01*
X012699Y009469D01*
X012853Y009623D01*
X012908Y009755D01*
X012921Y009723D01*
X013076Y009569D01*
X013278Y009485D01*
X013496Y009485D01*
X013699Y009569D01*
X013853Y009723D01*
X013866Y009755D01*
X013921Y009623D01*
X014076Y009469D01*
X014278Y009385D01*
X014496Y009385D01*
X014757Y009527D02*
X015177Y009527D01*
X014959Y009685D02*
X014879Y009685D01*
X015597Y009527D02*
X016018Y009527D01*
X015895Y009685D02*
X015815Y009685D01*
X015865Y010319D02*
X015994Y010319D01*
X016261Y010478D02*
X015722Y010478D01*
X015052Y010478D02*
X014513Y010478D01*
X014261Y010478D02*
X013722Y010478D01*
X013865Y010319D02*
X013994Y010319D01*
X014780Y010319D02*
X014910Y010319D01*
X013895Y009685D02*
X013815Y009685D01*
X014018Y009527D02*
X013597Y009527D01*
X013177Y009527D02*
X012757Y009527D01*
X012879Y009685D02*
X012959Y009685D01*
X012910Y010319D02*
X012780Y010319D01*
X012513Y010478D02*
X013052Y010478D01*
X012261Y010478D02*
X011722Y010478D01*
X011865Y010319D02*
X011994Y010319D01*
X011052Y010478D02*
X010513Y010478D01*
X010261Y010478D02*
X009722Y010478D01*
X009865Y010319D02*
X009994Y010319D01*
X010780Y010319D02*
X010910Y010319D01*
X010879Y009685D02*
X010959Y009685D01*
X010757Y009527D02*
X011177Y009527D01*
X011597Y009527D02*
X012018Y009527D01*
X011895Y009685D02*
X011815Y009685D01*
X011482Y008960D02*
X011293Y008960D01*
X011118Y008888D01*
X010984Y008754D01*
X010912Y008579D01*
X010912Y008390D01*
X010984Y008216D01*
X011118Y008082D01*
X011293Y008010D01*
X011482Y008010D01*
X011656Y008082D01*
X011790Y008216D01*
X011862Y008390D01*
X011862Y008579D01*
X011790Y008754D01*
X011656Y008888D01*
X011482Y008960D01*
X011645Y008892D02*
X012129Y008892D01*
X011976Y008734D02*
X011798Y008734D01*
X011862Y008575D02*
X011912Y008575D01*
X011912Y008417D02*
X011862Y008417D01*
X011808Y008258D02*
X011966Y008258D01*
X012100Y008100D02*
X011674Y008100D01*
X011100Y008100D02*
X010674Y008100D01*
X010656Y008082D02*
X010790Y008216D01*
X010862Y008390D01*
X010862Y008485D01*
X010862Y008579D01*
X010790Y008754D01*
X010656Y008888D01*
X010482Y008960D01*
X010387Y008960D01*
X010293Y008960D01*
X010118Y008888D01*
X009984Y008754D01*
X009912Y008579D01*
X009912Y008485D01*
X010387Y008485D01*
X010387Y008960D01*
X010387Y008485D01*
X010387Y008485D01*
X010387Y008485D01*
X009912Y008485D01*
X009912Y008390D01*
X009984Y008216D01*
X010118Y008082D01*
X010293Y008010D01*
X010387Y008010D01*
X010387Y008484D01*
X010387Y008484D01*
X010387Y008010D01*
X010482Y008010D01*
X010656Y008082D01*
X010808Y008258D02*
X010966Y008258D01*
X010912Y008417D02*
X010862Y008417D01*
X010862Y008485D02*
X010387Y008485D01*
X010862Y008485D01*
X010862Y008575D02*
X010912Y008575D01*
X010976Y008734D02*
X010798Y008734D01*
X010645Y008892D02*
X011129Y008892D01*
X010387Y008892D02*
X010387Y008892D01*
X010387Y008734D02*
X010387Y008734D01*
X010387Y008575D02*
X010387Y008575D01*
X010387Y008485D02*
X010387Y008485D01*
X010387Y008417D02*
X010387Y008417D01*
X010387Y008258D02*
X010387Y008258D01*
X010387Y008100D02*
X010387Y008100D01*
X010100Y008100D02*
X009674Y008100D01*
X009656Y008082D02*
X009790Y008216D01*
X009862Y008390D01*
X009862Y008579D01*
X009790Y008754D01*
X009656Y008888D01*
X009482Y008960D01*
X009293Y008960D01*
X009118Y008888D01*
X008984Y008754D01*
X008912Y008579D01*
X008912Y008390D01*
X008984Y008216D01*
X009118Y008082D01*
X009293Y008010D01*
X009482Y008010D01*
X009656Y008082D01*
X009808Y008258D02*
X009966Y008258D01*
X009912Y008417D02*
X009862Y008417D01*
X009862Y008575D02*
X009912Y008575D01*
X009976Y008734D02*
X009798Y008734D01*
X009645Y008892D02*
X010129Y008892D01*
X010018Y009527D02*
X009597Y009527D01*
X009815Y009685D02*
X009895Y009685D01*
X009177Y009527D02*
X008757Y009527D01*
X008879Y009685D02*
X008959Y009685D01*
X008910Y010319D02*
X008780Y010319D01*
X008513Y010478D02*
X009052Y010478D01*
X008261Y010478D02*
X007722Y010478D01*
X007865Y010319D02*
X007994Y010319D01*
X007052Y010478D02*
X006513Y010478D01*
X006261Y010478D02*
X005722Y010478D01*
X005865Y010319D02*
X005994Y010319D01*
X006780Y010319D02*
X006910Y010319D01*
X006879Y009685D02*
X006959Y009685D01*
X006757Y009527D02*
X007177Y009527D01*
X007597Y009527D02*
X008018Y009527D01*
X007895Y009685D02*
X007815Y009685D01*
X007482Y008960D02*
X007293Y008960D01*
X007118Y008888D01*
X006984Y008754D01*
X006912Y008579D01*
X006912Y008390D01*
X006984Y008216D01*
X007118Y008082D01*
X007293Y008010D01*
X007482Y008010D01*
X007656Y008082D01*
X007790Y008216D01*
X007862Y008390D01*
X007862Y008579D01*
X007790Y008754D01*
X007656Y008888D01*
X007482Y008960D01*
X007645Y008892D02*
X008129Y008892D01*
X008118Y008888D02*
X007984Y008754D01*
X007912Y008579D01*
X007912Y008390D01*
X007984Y008216D01*
X008118Y008082D01*
X008293Y008010D01*
X008482Y008010D01*
X008656Y008082D01*
X008790Y008216D01*
X008862Y008390D01*
X008862Y008579D01*
X008790Y008754D01*
X008656Y008888D01*
X008482Y008960D01*
X008293Y008960D01*
X008118Y008888D01*
X007976Y008734D02*
X007798Y008734D01*
X007862Y008575D02*
X007912Y008575D01*
X007912Y008417D02*
X007862Y008417D01*
X007808Y008258D02*
X007966Y008258D01*
X008100Y008100D02*
X007674Y008100D01*
X007100Y008100D02*
X006674Y008100D01*
X006656Y008082D02*
X006790Y008216D01*
X006862Y008390D01*
X006862Y008579D01*
X006790Y008754D01*
X006656Y008888D01*
X006482Y008960D01*
X006293Y008960D01*
X006118Y008888D01*
X005984Y008754D01*
X005912Y008579D01*
X005912Y008390D01*
X005984Y008216D01*
X006118Y008082D01*
X006293Y008010D01*
X006482Y008010D01*
X006656Y008082D01*
X006808Y008258D02*
X006966Y008258D01*
X006912Y008417D02*
X006862Y008417D01*
X006862Y008575D02*
X006912Y008575D01*
X006976Y008734D02*
X006798Y008734D01*
X006645Y008892D02*
X007129Y008892D01*
X006129Y008892D02*
X005645Y008892D01*
X005656Y008888D02*
X005482Y008960D01*
X005293Y008960D01*
X005118Y008888D01*
X004984Y008754D01*
X004912Y008579D01*
X004912Y008390D01*
X004984Y008216D01*
X005118Y008082D01*
X005293Y008010D01*
X005482Y008010D01*
X005656Y008082D01*
X005790Y008216D01*
X005862Y008390D01*
X005862Y008579D01*
X005790Y008754D01*
X005656Y008888D01*
X005798Y008734D02*
X005976Y008734D01*
X005912Y008575D02*
X005862Y008575D01*
X005862Y008417D02*
X005912Y008417D01*
X005966Y008258D02*
X005808Y008258D01*
X005674Y008100D02*
X006100Y008100D01*
X005100Y008100D02*
X004674Y008100D01*
X004656Y008082D02*
X004790Y008216D01*
X004862Y008390D01*
X004862Y008579D01*
X004790Y008754D01*
X004656Y008888D01*
X004482Y008960D01*
X004293Y008960D01*
X004118Y008888D01*
X003984Y008754D01*
X003912Y008579D01*
X003912Y008390D01*
X003984Y008216D01*
X004118Y008082D01*
X004293Y008010D01*
X004482Y008010D01*
X004656Y008082D01*
X004808Y008258D02*
X004966Y008258D01*
X004912Y008417D02*
X004862Y008417D01*
X004862Y008575D02*
X004912Y008575D01*
X004976Y008734D02*
X004798Y008734D01*
X004645Y008892D02*
X005129Y008892D01*
X005177Y009527D02*
X003637Y009527D01*
X003634Y009368D02*
X022009Y009368D01*
X022009Y009210D02*
X003568Y009210D01*
X003431Y009051D02*
X022009Y009051D01*
X022009Y008892D02*
X017645Y008892D01*
X017656Y008888D02*
X017482Y008960D01*
X017293Y008960D01*
X017118Y008888D01*
X016984Y008754D01*
X016912Y008579D01*
X016912Y008390D01*
X016984Y008216D01*
X017118Y008082D01*
X017293Y008010D01*
X017482Y008010D01*
X017656Y008082D01*
X017790Y008216D01*
X017862Y008390D01*
X017862Y008579D01*
X017790Y008754D01*
X017656Y008888D01*
X017798Y008734D02*
X022009Y008734D01*
X022009Y008575D02*
X017862Y008575D01*
X017862Y008417D02*
X022009Y008417D01*
X022009Y008258D02*
X017808Y008258D01*
X017674Y008100D02*
X022009Y008100D01*
X022009Y007941D02*
X003409Y007941D01*
X003380Y008100D02*
X004100Y008100D01*
X003966Y008258D02*
X003489Y008258D01*
X003537Y008417D02*
X003912Y008417D01*
X003912Y008575D02*
X003537Y008575D01*
X003479Y008734D02*
X003976Y008734D01*
X004129Y008892D02*
X003357Y008892D01*
X002743Y009051D02*
X002375Y009051D01*
X002375Y008892D02*
X002617Y008892D01*
X002495Y008734D02*
X002374Y008734D01*
X002374Y008575D02*
X002437Y008575D01*
X002437Y008417D02*
X002374Y008417D01*
X002374Y008258D02*
X002486Y008258D01*
X002594Y008100D02*
X002373Y008100D01*
X002373Y007941D02*
X002766Y007941D01*
X002615Y007783D02*
X002373Y007783D01*
X002373Y007624D02*
X002549Y007624D01*
X002537Y007466D02*
X002373Y007466D01*
X002372Y007307D02*
X002565Y007307D01*
X002646Y007148D02*
X002372Y007148D01*
X002372Y006990D02*
X002769Y006990D01*
X002556Y006831D02*
X002372Y006831D01*
X002372Y006673D02*
X002470Y006673D01*
X002437Y006514D02*
X002371Y006514D01*
X002371Y006356D02*
X002445Y006356D01*
X002511Y006197D02*
X002371Y006197D01*
X002371Y006039D02*
X002655Y006039D01*
X002705Y005880D02*
X002371Y005880D01*
X002370Y005722D02*
X002590Y005722D01*
X002537Y005563D02*
X002370Y005563D01*
X002370Y005404D02*
X002537Y005404D01*
X002591Y005246D02*
X002370Y005246D01*
X002370Y005087D02*
X002707Y005087D01*
X002653Y004929D02*
X002369Y004929D01*
X002369Y004770D02*
X002510Y004770D01*
X002444Y004612D02*
X002369Y004612D01*
X002369Y004453D02*
X002437Y004453D01*
X002471Y004295D02*
X002368Y004295D01*
X002368Y004136D02*
X002558Y004136D01*
X002368Y003978D02*
X002775Y003978D01*
X006732Y003502D02*
X007236Y003502D01*
X006984Y003661D02*
X006869Y003661D01*
X007538Y003502D02*
X008042Y003502D01*
X007905Y003661D02*
X007791Y003661D01*
X009746Y004453D02*
X010201Y004453D01*
X009969Y004295D02*
X009875Y004295D01*
X010573Y004453D02*
X011028Y004453D01*
X010899Y004295D02*
X010805Y004295D01*
X015746Y004453D02*
X016201Y004453D01*
X015969Y004295D02*
X015875Y004295D01*
X016805Y004295D02*
X022009Y004295D01*
X022009Y004136D02*
X016899Y004136D01*
X016937Y003978D02*
X022009Y003978D01*
X022009Y003819D02*
X016934Y003819D01*
X016869Y003661D02*
X022009Y003661D01*
X022009Y003502D02*
X016732Y003502D01*
X016407Y003502D02*
X016367Y003502D01*
X017378Y006774D02*
X017378Y006774D01*
X016656Y008082D02*
X016790Y008216D01*
X016862Y008390D01*
X016862Y008579D01*
X016790Y008754D01*
X016656Y008888D01*
X016482Y008960D01*
X016293Y008960D01*
X016118Y008888D01*
X015984Y008754D01*
X015912Y008579D01*
X015912Y008390D01*
X015984Y008216D01*
X016118Y008082D01*
X016293Y008010D01*
X016482Y008010D01*
X016656Y008082D01*
X016674Y008100D02*
X017100Y008100D01*
X016966Y008258D02*
X016808Y008258D01*
X016862Y008417D02*
X016912Y008417D01*
X016912Y008575D02*
X016862Y008575D01*
X016798Y008734D02*
X016976Y008734D01*
X017129Y008892D02*
X016645Y008892D01*
X016129Y008892D02*
X015645Y008892D01*
X015798Y008734D02*
X015976Y008734D01*
X015912Y008575D02*
X015862Y008575D01*
X015862Y008417D02*
X015912Y008417D01*
X015966Y008258D02*
X015808Y008258D01*
X015674Y008100D02*
X016100Y008100D01*
X016757Y009527D02*
X022009Y009527D01*
X022009Y009685D02*
X016879Y009685D01*
X016937Y009844D02*
X022009Y009844D01*
X022009Y010002D02*
X016937Y010002D01*
X016889Y010161D02*
X022009Y010161D01*
X022009Y010319D02*
X016780Y010319D01*
X016513Y010478D02*
X022009Y010478D01*
X022009Y007783D02*
X003559Y007783D01*
X003625Y007624D02*
X022009Y007624D01*
X022009Y007466D02*
X003637Y007466D01*
X003609Y007307D02*
X022009Y007307D01*
X009100Y008100D02*
X008674Y008100D01*
X008808Y008258D02*
X008966Y008258D01*
X008912Y008417D02*
X008862Y008417D01*
X008862Y008575D02*
X008912Y008575D01*
X008976Y008734D02*
X008798Y008734D01*
X008645Y008892D02*
X009129Y008892D01*
X006018Y009527D02*
X005597Y009527D01*
X005815Y009685D02*
X005895Y009685D01*
X004959Y009685D02*
X003599Y009685D01*
X003506Y009844D02*
X004871Y009844D01*
X004837Y010002D02*
X003275Y010002D01*
X003107Y010002D02*
X003067Y010002D01*
X003067Y009844D02*
X003107Y009844D01*
X003107Y009685D02*
X003067Y009685D01*
X003067Y009527D02*
X003107Y009527D01*
X002668Y009844D02*
X002376Y009844D01*
X002376Y010002D02*
X002899Y010002D01*
X002575Y009685D02*
X002376Y009685D01*
X002375Y009527D02*
X002537Y009527D01*
X002540Y009368D02*
X002375Y009368D01*
X002375Y009210D02*
X002606Y009210D01*
X002376Y010161D02*
X004844Y010161D01*
X004910Y010319D02*
X002376Y010319D01*
X002377Y010478D02*
X005052Y010478D01*
X002491Y010605D02*
X002491Y010605D01*
D15*
X008411Y006810D03*
X013687Y007022D03*
X020104Y010114D03*
X020774Y005744D03*
M02*
