%
M48
M72
T01C0.0236
T02C0.0276
T03C0.0320
T04C0.0400
%
T01
X7939Y6889
X13315Y7022
X19789Y10114
X20419Y5744
X21359Y4644
T02
X18972Y4646
X18972Y6567
T03
X16915Y5485
X15915Y5485
X14915Y5485
X13915Y5485
X12915Y5485
X11915Y5485
X10915Y5485
X9915Y5485
X8915Y5485
X7915Y5485
X6915Y5485
X5915Y5485
X4915Y5485
X3915Y5485
X3915Y8485
X4915Y8485
X5915Y8485
X6915Y8485
X7915Y8485
X8915Y8485
X9915Y8485
X10915Y8485
X11915Y8485
X12915Y8485
X13915Y8485
X14915Y8485
X15915Y8485
X16915Y8485
T04
X4915Y4035
X5915Y3935
X6915Y4035
X7915Y3935
X8915Y4035
X9915Y3935
X10915Y4035
X11915Y3935
X12915Y4035
X13915Y3935
X14915Y4035
X15915Y3935
X15915Y9935
X14915Y10035
X13915Y9935
X12915Y10035
X11915Y9935
X10915Y10035
X9915Y9935
X8915Y10035
X7915Y9935
X6915Y10035
X5915Y9935
X4915Y10035
X2801Y9485
X2701Y8485
X2801Y7485
X2701Y6485
X2801Y5485
X2701Y4485
M30
