G75*
G70*
%OFA0B0*%
%FSLAX24Y24*%
%IPPOS*%
%LPD*%
%AMOC8*
5,1,8,0,0,1.08239X$1,22.5*
%
%ADD10C,0.0671*%
%ADD11R,0.0556X0.0556*%
%ADD12C,0.0820*%
D10*
X004387Y005485D03*
X005387Y005485D03*
X006387Y005485D03*
X007387Y005485D03*
X008387Y005485D03*
X009387Y005485D03*
X010387Y005485D03*
X011387Y005485D03*
X012387Y005485D03*
X013387Y005485D03*
X014387Y005485D03*
X015387Y005485D03*
X016387Y005485D03*
X017387Y005485D03*
X017387Y008485D03*
X016387Y008485D03*
X015387Y008485D03*
X014387Y008485D03*
X013387Y008485D03*
X012387Y008485D03*
X011387Y008485D03*
X010387Y008485D03*
X009387Y008485D03*
X008387Y008485D03*
X007387Y008485D03*
X006387Y008485D03*
X005387Y008485D03*
X004387Y008485D03*
D11*
X019287Y006646D03*
X019287Y004724D03*
D12*
X005387Y004035D03*
X006387Y003935D03*
X007387Y004035D03*
X008387Y003935D03*
X009387Y004035D03*
X010387Y003935D03*
X011387Y004035D03*
X012387Y003935D03*
X013387Y004035D03*
X014387Y003935D03*
X015387Y004035D03*
X016387Y003935D03*
X016387Y009935D03*
X015387Y010035D03*
X014387Y009935D03*
X013387Y010035D03*
X012387Y009935D03*
X011387Y010035D03*
X010387Y009935D03*
X009387Y010035D03*
X008387Y009935D03*
X007387Y010035D03*
X006387Y009935D03*
X005387Y010035D03*
X003037Y009485D03*
X002937Y008485D03*
X003037Y007485D03*
X002937Y006485D03*
X003037Y005485D03*
X002937Y004485D03*
M02*
