G75*
G70*
%OFA0B0*%
%FSLAX24Y24*%
%IPPOS*%
%LPD*%
%AMOC8*
5,1,8,0,0,1.08239X$1,22.5*
%
%ADD10C,0.0000*%
%ADD11C,0.0520*%
%ADD12R,0.0397X0.0397*%
%ADD13R,0.0472X0.0315*%
%ADD14R,0.0197X0.0394*%
%ADD15R,0.0315X0.0472*%
%ADD16C,0.0740*%
%ADD17C,0.0120*%
%ADD18C,0.0396*%
%ADD19C,0.0160*%
D10*
X002187Y003185D02*
X002197Y010785D01*
X019689Y010785D01*
X019689Y003185D01*
X002187Y003185D01*
D11*
X002887Y005125D02*
X002887Y005645D01*
X003887Y005645D02*
X003887Y005125D01*
X004887Y005125D02*
X004887Y005645D01*
X005887Y005645D02*
X005887Y005125D01*
X006887Y005125D02*
X006887Y005645D01*
X007887Y005645D02*
X007887Y005125D01*
X008887Y005125D02*
X008887Y005645D01*
X009887Y005645D02*
X009887Y005125D01*
X010887Y005125D02*
X010887Y005645D01*
X011887Y005645D02*
X011887Y005125D01*
X012887Y005125D02*
X012887Y005645D01*
X013887Y005645D02*
X013887Y005125D01*
X014887Y005125D02*
X014887Y005645D01*
X015887Y005645D02*
X015887Y005125D01*
X015887Y008125D02*
X015887Y008645D01*
X014887Y008645D02*
X014887Y008125D01*
X013887Y008125D02*
X013887Y008645D01*
X012887Y008645D02*
X012887Y008125D01*
X011887Y008125D02*
X011887Y008645D01*
X010887Y008645D02*
X010887Y008125D01*
X009887Y008125D02*
X009887Y008645D01*
X008887Y008645D02*
X008887Y008125D01*
X007887Y008125D02*
X007887Y008645D01*
X006887Y008645D02*
X006887Y008125D01*
X005887Y008125D02*
X005887Y008645D01*
X004887Y008645D02*
X004887Y008125D01*
X003887Y008125D02*
X003887Y008645D01*
X002887Y008645D02*
X002887Y008125D01*
D12*
X017787Y006646D03*
X017787Y004724D03*
D13*
X019287Y005039D03*
X019287Y004331D03*
X019287Y006331D03*
X019287Y007039D03*
X019187Y008031D03*
X019187Y008739D03*
X016187Y009731D03*
X016187Y010439D03*
D14*
X017031Y010261D03*
X017535Y010261D03*
X018039Y010261D03*
X018543Y010261D03*
X018543Y008301D03*
X018039Y008301D03*
X017535Y008301D03*
X017031Y008301D03*
D15*
X011641Y006885D03*
X010933Y006885D03*
X007941Y006885D03*
X007233Y006885D03*
X004641Y006885D03*
X003933Y006885D03*
D16*
X003887Y004035D03*
X004887Y003935D03*
X005887Y004035D03*
X006887Y003935D03*
X007887Y004035D03*
X008887Y003935D03*
X009887Y004035D03*
X010887Y003935D03*
X011887Y004035D03*
X012887Y003935D03*
X013887Y004035D03*
X014887Y003935D03*
X014887Y009935D03*
X013887Y010035D03*
X012887Y009935D03*
X011887Y010035D03*
X010887Y009935D03*
X009887Y010035D03*
X008887Y009935D03*
X007887Y010035D03*
X006887Y009935D03*
X005887Y010035D03*
X004887Y009935D03*
X003887Y010035D03*
D17*
X002887Y008385D01*
X003887Y008385D02*
X004887Y009935D01*
X005887Y010035D02*
X004887Y008385D01*
X005887Y008385D02*
X006887Y009935D01*
X007887Y010035D02*
X006887Y008385D01*
X007887Y008385D02*
X008887Y009935D01*
X009887Y010035D02*
X011187Y008985D01*
X011887Y008385D01*
X012187Y008985D02*
X012887Y008385D01*
X013187Y008985D02*
X013887Y008385D01*
X014187Y008985D02*
X014887Y008385D01*
X014187Y008985D02*
X012887Y009935D01*
X013187Y008985D02*
X011887Y010035D01*
X010887Y009935D02*
X012187Y008985D01*
X015887Y008385D02*
X015387Y005985D01*
X015387Y004585D01*
X014487Y004585D01*
X013887Y004035D01*
X013487Y004585D02*
X013157Y004465D01*
X012757Y004465D01*
X011887Y004035D01*
X012887Y003935D02*
X013387Y003385D01*
X015487Y003385D01*
X015887Y005385D01*
X014887Y005385D02*
X014087Y004585D01*
X013487Y004585D01*
X013087Y004685D02*
X013887Y005385D01*
X012887Y005385D02*
X012587Y006185D01*
X010787Y006185D01*
X010387Y005985D01*
X010387Y004785D01*
X009887Y004035D01*
X008887Y003935D02*
X007887Y005385D01*
X006887Y005385D02*
X007887Y004035D01*
X006887Y003935D02*
X005887Y005385D01*
X004887Y005385D02*
X005887Y004035D01*
X004887Y003935D02*
X003887Y005385D01*
X002887Y005385D02*
X003887Y004035D01*
X002887Y005385D02*
X003187Y006485D01*
X003933Y006885D01*
X006587Y006885D02*
X007233Y006885D01*
X010887Y003935D02*
X011387Y004685D01*
X013087Y004685D01*
X017787Y004724D02*
X019287Y004331D01*
X019287Y005039D02*
X019287Y005685D01*
X019287Y006331D01*
X019287Y007039D02*
X017787Y006646D01*
X018543Y008301D02*
X018687Y008585D01*
X019187Y008739D01*
X019187Y009385D01*
X016587Y009285D02*
X016187Y009731D01*
D18*
X016587Y009285D03*
X019187Y009385D03*
X019287Y005685D03*
X012287Y006885D03*
X006587Y006885D03*
D19*
X007941Y006885D02*
X007987Y007585D01*
X010387Y006885D01*
X010933Y006885D01*
X010887Y008385D01*
X009887Y008385D01*
X007987Y007585D02*
X004587Y007585D01*
X004641Y006885D01*
X004587Y007585D02*
X002387Y007585D01*
X002387Y010585D01*
X013887Y010585D01*
X013887Y010035D01*
X013887Y010585D02*
X015687Y010585D01*
X016187Y010439D01*
X017031Y010261D01*
X017535Y010261D01*
X015987Y009285D02*
X016787Y008385D01*
X017031Y008301D01*
X017535Y008301D01*
X018039Y008301D01*
X018187Y007785D01*
X018987Y007785D01*
X019187Y008031D01*
X015987Y009285D02*
X014887Y009935D01*
X012287Y006885D02*
X011641Y006885D01*
X008887Y005385D02*
X007941Y006885D01*
M02*
