G75*
G70*
%OFA0B0*%
%FSLAX24Y24*%
%IPPOS*%
%LPD*%
%AMOC8*
5,1,8,0,0,1.08239X$1,22.5*
%
%ADD10C,0.0671*%
%ADD11R,0.0556X0.0556*%
%ADD12R,0.0986X0.0454*%
%ADD13R,0.0986X0.1360*%
%ADD14C,0.0820*%
%ADD15R,0.0474X0.0592*%
%ADD16R,0.0474X0.0552*%
%ADD17R,0.0552X0.0474*%
D10*
X004387Y005485D03*
X005387Y005485D03*
X006387Y005485D03*
X007387Y005485D03*
X008387Y005485D03*
X009387Y005485D03*
X010387Y005485D03*
X011387Y005485D03*
X012387Y005485D03*
X013387Y005485D03*
X014387Y005485D03*
X015387Y005485D03*
X016387Y005485D03*
X017387Y005485D03*
X017387Y008485D03*
X016387Y008485D03*
X015387Y008485D03*
X014387Y008485D03*
X013387Y008485D03*
X012387Y008485D03*
X011387Y008485D03*
X010387Y008485D03*
X009387Y008485D03*
X008387Y008485D03*
X007387Y008485D03*
X006387Y008485D03*
X005387Y008485D03*
X004387Y008485D03*
D11*
X019287Y006646D03*
X019287Y004724D03*
D12*
X019184Y008321D03*
X019184Y009227D03*
X019184Y010132D03*
D13*
X021507Y009227D03*
D14*
X005387Y004035D03*
X006387Y003935D03*
X007387Y004035D03*
X008387Y003935D03*
X009387Y004035D03*
X010387Y003935D03*
X011387Y004035D03*
X012387Y003935D03*
X013387Y004035D03*
X014387Y003935D03*
X015387Y004035D03*
X016387Y003935D03*
X016387Y009935D03*
X015387Y010035D03*
X014387Y009935D03*
X013387Y010035D03*
X012387Y009935D03*
X011387Y010035D03*
X010387Y009935D03*
X009387Y010035D03*
X008387Y009935D03*
X007387Y010035D03*
X006387Y009935D03*
X005387Y010035D03*
X003087Y009485D03*
X002987Y008485D03*
X003087Y007485D03*
X002987Y006485D03*
X003087Y005485D03*
X002987Y004485D03*
D15*
X020774Y004307D03*
X020774Y005055D03*
X020774Y006354D03*
X020774Y007102D03*
D16*
X013175Y007122D03*
X012388Y007122D03*
X009750Y006610D03*
X008963Y006610D03*
X006207Y006886D03*
X005419Y006886D03*
D17*
X017349Y009327D03*
X017349Y010114D03*
X018333Y010114D03*
X018333Y009327D03*
M02*
