%
M48
M72
T01C0.0197
T02C0.0236
T03C0.0320
T04C0.0400
%
T01
X17787Y4724
X17787Y6646
T02
X19287Y5685
X19187Y9385
X16587Y9285
X12287Y6885
X6587Y6885
T03
X6887Y8385
X5887Y8385
X4887Y8385
X3887Y8385
X2887Y8385
X2887Y5385
X3887Y5385
X4887Y5385
X5887Y5385
X6887Y5385
X7887Y5385
X8887Y5385
X9887Y5385
X10887Y5385
X11887Y5385
X12887Y5385
X13887Y5385
X14887Y5385
X15887Y5385
X15887Y8385
X14887Y8385
X13887Y8385
X12887Y8385
X11887Y8385
X10887Y8385
X9887Y8385
X8887Y8385
X7887Y8385
T04
X3887Y4035
X4887Y3935
X5887Y4035
X6887Y3935
X7887Y4035
X8887Y3935
X9887Y4035
X10887Y3935
X11887Y4035
X12887Y3935
X13887Y4035
X14887Y3935
X14887Y9935
X13887Y10035
X12887Y9935
X11887Y10035
X10887Y9935
X9887Y10035
X8887Y9935
X7887Y10035
X6887Y9935
X5887Y10035
X4887Y9935
X3887Y10035
M30
