G75*
G70*
%OFA0B0*%
%FSLAX24Y24*%
%IPPOS*%
%LPD*%
%AMOC8*
5,1,8,0,0,1.08239X$1,22.5*
%
%ADD10C,0.0000*%
%ADD11C,0.0591*%
%ADD12R,0.0476X0.0476*%
%ADD13C,0.0740*%
%ADD14C,0.0120*%
%ADD15C,0.0160*%
%ADD16C,0.0356*%
D10*
X002348Y003185D02*
X021596Y003185D01*
X021596Y003184D02*
X021625Y003181D01*
X021654Y003182D01*
X021683Y003186D01*
X021711Y003193D01*
X021739Y003204D01*
X021764Y003218D01*
X021788Y003235D01*
X021810Y003255D01*
X021829Y003278D01*
X021845Y003302D01*
X021858Y003328D01*
X021868Y003356D01*
X021875Y003385D01*
X021874Y003385D02*
X021874Y010585D01*
X021875Y010585D02*
X021868Y010614D01*
X021858Y010642D01*
X021845Y010668D01*
X021829Y010692D01*
X021810Y010715D01*
X021788Y010735D01*
X021764Y010752D01*
X021739Y010766D01*
X021712Y010777D01*
X021683Y010784D01*
X021654Y010788D01*
X021625Y010789D01*
X021596Y010786D01*
X021595Y010785D02*
X002377Y010785D01*
X002349Y010780D01*
X002323Y010772D01*
X002298Y010760D01*
X002275Y010745D01*
X002254Y010727D01*
X002236Y010706D01*
X002221Y010682D01*
X002209Y010657D01*
X002201Y010630D01*
X002197Y010603D01*
X002196Y010575D01*
X002197Y010576D02*
X002187Y003394D01*
X002188Y003394D02*
X002186Y003370D01*
X002187Y003345D01*
X002192Y003321D01*
X002199Y003298D01*
X002210Y003276D01*
X002224Y003255D01*
X002240Y003237D01*
X002258Y003221D01*
X002279Y003207D01*
X002301Y003197D01*
X002324Y003189D01*
X002348Y003185D01*
D11*
X003915Y005485D03*
X004915Y005485D03*
X005915Y005485D03*
X006915Y005485D03*
X007915Y005485D03*
X008915Y005485D03*
X009915Y005485D03*
X010915Y005485D03*
X011915Y005485D03*
X012915Y005485D03*
X013915Y005485D03*
X014915Y005485D03*
X015915Y005485D03*
X016915Y005485D03*
X016915Y008485D03*
X015915Y008485D03*
X014915Y008485D03*
X013915Y008485D03*
X012915Y008485D03*
X011915Y008485D03*
X010915Y008485D03*
X009915Y008485D03*
X008915Y008485D03*
X007915Y008485D03*
X006915Y008485D03*
X005915Y008485D03*
X004915Y008485D03*
X003915Y008485D03*
D12*
X018972Y006567D03*
X018972Y004646D03*
D13*
X015915Y003935D03*
X014915Y004035D03*
X013915Y003935D03*
X012915Y004035D03*
X011915Y003935D03*
X010915Y004035D03*
X009915Y003935D03*
X008915Y004035D03*
X007915Y003935D03*
X006915Y004035D03*
X005915Y003935D03*
X004915Y004035D03*
X002701Y004485D03*
X002801Y005485D03*
X002701Y006485D03*
X002801Y007485D03*
X002701Y008485D03*
X002801Y009485D03*
X004915Y010035D03*
X005915Y009935D03*
X006915Y010035D03*
X007915Y009935D03*
X008915Y010035D03*
X009915Y009935D03*
X010915Y010035D03*
X011915Y009935D03*
X012915Y010035D03*
X013915Y009935D03*
X014915Y010035D03*
X015915Y009935D03*
D14*
X015415Y006492D02*
X012935Y006453D01*
X013447Y006138D02*
X016951Y006177D01*
X016872Y006531D02*
X018972Y006567D01*
X017817Y005901D02*
X018972Y004646D01*
X017818Y005902D02*
X017770Y005942D01*
X017720Y005980D01*
X017668Y006015D01*
X017614Y006047D01*
X017559Y006075D01*
X017502Y006101D01*
X017444Y006123D01*
X017384Y006142D01*
X017324Y006158D01*
X017262Y006170D01*
X017201Y006178D01*
X017138Y006183D01*
X017076Y006185D01*
X017013Y006183D01*
X016951Y006178D01*
X013447Y006137D02*
X013401Y006135D01*
X013356Y006128D01*
X013311Y006118D01*
X013268Y006105D01*
X013225Y006088D01*
X013185Y006067D01*
X013146Y006043D01*
X013109Y006016D01*
X013075Y005986D01*
X013043Y005953D01*
X013014Y005917D01*
X012988Y005880D01*
X012966Y005840D01*
X012947Y005798D01*
X012931Y005756D01*
X012919Y005712D01*
X012911Y005667D01*
X012906Y005621D01*
X012905Y005576D01*
X012908Y005530D01*
X012915Y005485D01*
X012936Y006452D02*
X012874Y006449D01*
X012812Y006443D01*
X012752Y006432D01*
X012691Y006419D01*
X012632Y006402D01*
X012574Y006381D01*
X012517Y006357D01*
X012462Y006329D01*
X012408Y006298D01*
X012357Y006264D01*
X012307Y006228D01*
X012260Y006188D01*
X012215Y006145D01*
X012173Y006100D01*
X012133Y006053D01*
X012097Y006003D01*
X012063Y005951D01*
X012033Y005897D01*
X012006Y005842D01*
X011982Y005785D01*
X011961Y005727D01*
X011945Y005667D01*
X011931Y005607D01*
X011922Y005546D01*
X011915Y005485D01*
X004915Y005485D02*
X004615Y005785D01*
X004566Y005830D01*
X004514Y005872D01*
X004460Y005911D01*
X004404Y005947D01*
X004345Y005980D01*
X004285Y006009D01*
X004223Y006034D01*
X004160Y006056D01*
X004096Y006074D01*
X004031Y006088D01*
X003965Y006099D01*
X003899Y006105D01*
X003832Y006108D01*
X003765Y006107D01*
X003699Y006102D01*
X003632Y006093D01*
X003567Y006080D01*
X003502Y006063D01*
X003439Y006043D01*
X003377Y006019D01*
X003316Y005991D01*
X003257Y005960D01*
X003200Y005926D01*
X003145Y005888D01*
X003092Y005847D01*
X003042Y005803D01*
X002994Y005756D01*
X002949Y005707D01*
X002908Y005655D01*
X002869Y005600D01*
X002833Y005544D01*
X002801Y005485D01*
X002701Y006485D02*
X003447Y006492D01*
X003447Y006493D02*
X003608Y006491D01*
X003769Y006481D01*
X003929Y006464D01*
X004088Y006439D01*
X004245Y006407D01*
X004402Y006367D01*
X004556Y006321D01*
X004707Y006267D01*
X004856Y006206D01*
X005002Y006138D01*
X005145Y006064D01*
X005284Y005983D01*
X005419Y005895D01*
X005550Y005802D01*
X005677Y005702D01*
X005798Y005597D01*
X005915Y005486D01*
X015416Y006491D02*
X016144Y006499D01*
X016872Y006531D01*
D15*
X016863Y006771D02*
X016820Y006770D01*
X016817Y006769D01*
X016138Y006740D01*
X015460Y006732D01*
X015459Y006733D01*
X015415Y006732D01*
X015369Y006732D01*
X015366Y006731D01*
X012979Y006693D01*
X012979Y006693D01*
X012931Y006693D01*
X012740Y006690D01*
X012375Y006572D01*
X012061Y006352D01*
X011826Y006050D01*
X011786Y005946D01*
X011645Y005888D01*
X011512Y005754D01*
X011439Y005579D01*
X011439Y005390D01*
X011512Y005216D01*
X011645Y005082D01*
X011820Y005010D01*
X012009Y005010D01*
X012184Y005082D01*
X012318Y005216D01*
X012390Y005390D01*
X012390Y005579D01*
X012318Y005754D01*
X012260Y005812D01*
X012401Y005993D01*
X012595Y006129D01*
X012821Y006202D01*
X012939Y006213D01*
X012950Y006213D01*
X012969Y006213D01*
X012833Y006095D01*
X012833Y006095D01*
X012738Y005926D01*
X012645Y005888D01*
X012512Y005754D01*
X012439Y005579D01*
X012439Y005390D01*
X012512Y005216D01*
X012645Y005082D01*
X012820Y005010D01*
X013009Y005010D01*
X013184Y005082D01*
X013318Y005216D01*
X013390Y005390D01*
X013390Y005579D01*
X013318Y005754D01*
X013253Y005818D01*
X013295Y005854D01*
X013396Y005892D01*
X013449Y005898D01*
X013478Y005898D01*
X013497Y005898D01*
X013676Y005900D01*
X013645Y005888D01*
X013512Y005754D01*
X013439Y005579D01*
X013439Y005390D01*
X013512Y005216D01*
X013645Y005082D01*
X013820Y005010D01*
X014009Y005010D01*
X014184Y005082D01*
X014318Y005216D01*
X014390Y005390D01*
X014390Y005579D01*
X014318Y005754D01*
X014184Y005888D01*
X014141Y005905D01*
X014703Y005912D01*
X014645Y005888D01*
X014512Y005754D01*
X014439Y005579D01*
X014439Y005390D01*
X014512Y005216D01*
X014645Y005082D01*
X014820Y005010D01*
X015009Y005010D01*
X015184Y005082D01*
X015318Y005216D01*
X015390Y005390D01*
X015390Y005579D01*
X015318Y005754D01*
X015184Y005888D01*
X015115Y005916D01*
X015731Y005923D01*
X015645Y005888D01*
X015512Y005754D01*
X015439Y005579D01*
X015439Y005390D01*
X015512Y005216D01*
X015645Y005082D01*
X015820Y005010D01*
X016009Y005010D01*
X016184Y005082D01*
X016318Y005216D01*
X016390Y005390D01*
X016390Y005579D01*
X016318Y005754D01*
X016184Y005888D01*
X016088Y005927D01*
X016759Y005935D01*
X016645Y005888D01*
X016512Y005754D01*
X016439Y005579D01*
X016439Y005390D01*
X016512Y005216D01*
X016645Y005082D01*
X016820Y005010D01*
X017009Y005010D01*
X017184Y005082D01*
X017318Y005216D01*
X017390Y005390D01*
X017390Y005579D01*
X017318Y005754D01*
X017184Y005888D01*
X017053Y005942D01*
X017101Y005944D01*
X017341Y005904D01*
X017560Y005798D01*
X017651Y005727D01*
X018554Y004745D01*
X018554Y004333D01*
X018660Y004228D01*
X019284Y004228D01*
X019390Y004333D01*
X019390Y004958D01*
X019284Y005063D01*
X018914Y005063D01*
X018018Y006037D01*
X018013Y006048D01*
X017986Y006072D01*
X017961Y006099D01*
X017951Y006104D01*
X017835Y006208D01*
X017635Y006304D01*
X018554Y006320D01*
X018554Y006254D01*
X018660Y006149D01*
X019284Y006149D01*
X019390Y006254D01*
X019390Y006879D01*
X019284Y006985D01*
X018660Y006985D01*
X018554Y006879D01*
X018554Y006800D01*
X016911Y006772D01*
X016906Y006774D01*
X016863Y006771D01*
X017835Y006208D02*
X017835Y006208D01*
X017847Y006197D02*
X018612Y006197D01*
X018163Y005880D02*
X021694Y005880D01*
X021694Y005722D02*
X018308Y005722D01*
X018454Y005563D02*
X021694Y005563D01*
X021694Y005404D02*
X018600Y005404D01*
X018746Y005246D02*
X021694Y005246D01*
X021694Y005087D02*
X018892Y005087D01*
X018531Y004770D02*
X003178Y004770D01*
X003167Y004796D02*
X003012Y004951D01*
X002981Y004964D01*
X003112Y005019D01*
X003267Y005173D01*
X003351Y005375D01*
X003351Y005594D01*
X003305Y005704D01*
X003535Y005822D01*
X003588Y005831D01*
X003512Y005754D01*
X003439Y005579D01*
X003439Y005390D01*
X003512Y005216D01*
X003645Y005082D01*
X003820Y005010D01*
X004009Y005010D01*
X004184Y005082D01*
X004318Y005216D01*
X004390Y005390D01*
X004390Y005579D01*
X004339Y005703D01*
X004339Y005702D01*
X004447Y005613D01*
X004451Y005609D01*
X004439Y005579D01*
X004439Y005390D01*
X004512Y005216D01*
X004645Y005082D01*
X004820Y005010D01*
X005009Y005010D01*
X005184Y005082D01*
X005318Y005216D01*
X005390Y005390D01*
X005390Y005579D01*
X005374Y005618D01*
X005439Y005574D01*
X005439Y005390D01*
X005512Y005216D01*
X005645Y005082D01*
X005820Y005010D01*
X006009Y005010D01*
X006184Y005082D01*
X006318Y005216D01*
X006390Y005390D01*
X006390Y005579D01*
X006318Y005754D01*
X006184Y005888D01*
X006009Y005960D01*
X005820Y005960D01*
X005780Y005943D01*
X005213Y006320D01*
X005212Y006320D01*
X004533Y006597D01*
X004533Y006597D01*
X003812Y006735D01*
X003445Y006732D01*
X003397Y006731D01*
X003195Y006730D01*
X003167Y006796D01*
X003012Y006951D01*
X002981Y006964D01*
X003112Y007019D01*
X003267Y007173D01*
X003351Y007375D01*
X003351Y007594D01*
X003267Y007796D01*
X003112Y007951D01*
X002981Y008006D01*
X003012Y008019D01*
X003167Y008173D01*
X003251Y008375D01*
X003251Y008465D01*
X002721Y008465D01*
X002721Y008505D01*
X003251Y008505D01*
X003251Y008594D01*
X003167Y008796D01*
X003012Y008951D01*
X002981Y008964D01*
X003112Y009019D01*
X003267Y009173D01*
X003351Y009375D01*
X003351Y009465D01*
X002821Y009465D01*
X002821Y009505D01*
X002781Y009505D01*
X002781Y010035D01*
X002691Y010035D01*
X002489Y009951D01*
X002376Y009838D01*
X002377Y010506D01*
X002381Y010511D01*
X002377Y010581D01*
X002377Y010588D01*
X002377Y010590D01*
X002381Y010599D01*
X002389Y010605D01*
X002391Y010605D01*
X021537Y010605D01*
X021551Y010595D01*
X021610Y010605D01*
X021649Y010605D01*
X021671Y010596D01*
X021692Y010571D01*
X021694Y010564D01*
X021694Y003406D01*
X021692Y003398D01*
X021671Y003373D01*
X021649Y003365D01*
X021610Y003365D01*
X021551Y003375D01*
X021538Y003365D01*
X002367Y003365D01*
X002367Y003380D01*
X002377Y003440D01*
X002367Y003453D01*
X002368Y004040D01*
X002389Y004019D01*
X002591Y003935D01*
X002810Y003935D01*
X003012Y004019D01*
X003167Y004173D01*
X003251Y004375D01*
X003251Y004594D01*
X003167Y004796D01*
X003035Y004929D02*
X018385Y004929D01*
X018240Y005087D02*
X017189Y005087D01*
X017330Y005246D02*
X018094Y005246D01*
X017948Y005404D02*
X017390Y005404D01*
X017390Y005563D02*
X017802Y005563D01*
X017656Y005722D02*
X017331Y005722D01*
X017390Y005880D02*
X017191Y005880D01*
X016638Y005880D02*
X016191Y005880D01*
X016331Y005722D02*
X016498Y005722D01*
X016439Y005563D02*
X016390Y005563D01*
X016390Y005404D02*
X016439Y005404D01*
X016499Y005246D02*
X016330Y005246D01*
X016189Y005087D02*
X016640Y005087D01*
X015640Y005087D02*
X015189Y005087D01*
X015330Y005246D02*
X015499Y005246D01*
X015439Y005404D02*
X015390Y005404D01*
X015390Y005563D02*
X015439Y005563D01*
X015498Y005722D02*
X015331Y005722D01*
X015191Y005880D02*
X015638Y005880D01*
X014638Y005880D02*
X014191Y005880D01*
X014331Y005722D02*
X014498Y005722D01*
X014439Y005563D02*
X014390Y005563D01*
X014390Y005404D02*
X014439Y005404D01*
X014499Y005246D02*
X014330Y005246D01*
X014189Y005087D02*
X014640Y005087D01*
X014805Y004585D02*
X014603Y004501D01*
X014448Y004346D01*
X014394Y004215D01*
X014381Y004246D01*
X014226Y004401D01*
X014024Y004485D01*
X013805Y004485D01*
X013603Y004401D01*
X013448Y004246D01*
X013435Y004215D01*
X013381Y004346D01*
X013226Y004501D01*
X013024Y004585D01*
X012805Y004585D01*
X012603Y004501D01*
X012448Y004346D01*
X012394Y004215D01*
X012381Y004246D01*
X012226Y004401D01*
X012024Y004485D01*
X011805Y004485D01*
X011603Y004401D01*
X011448Y004246D01*
X011435Y004215D01*
X011381Y004346D01*
X011226Y004501D01*
X011024Y004585D01*
X010805Y004585D01*
X010603Y004501D01*
X010448Y004346D01*
X010394Y004215D01*
X010381Y004246D01*
X010226Y004401D01*
X010024Y004485D01*
X009805Y004485D01*
X009603Y004401D01*
X009448Y004246D01*
X009435Y004215D01*
X009381Y004346D01*
X009226Y004501D01*
X009024Y004585D01*
X008805Y004585D01*
X008603Y004501D01*
X008448Y004346D01*
X008394Y004215D01*
X008381Y004246D01*
X008226Y004401D01*
X008024Y004485D01*
X007805Y004485D01*
X007603Y004401D01*
X007448Y004246D01*
X007435Y004215D01*
X007381Y004346D01*
X007226Y004501D01*
X007024Y004585D01*
X006805Y004585D01*
X006603Y004501D01*
X006448Y004346D01*
X006394Y004215D01*
X006381Y004246D01*
X006226Y004401D01*
X006024Y004485D01*
X005805Y004485D01*
X005603Y004401D01*
X005448Y004246D01*
X005435Y004215D01*
X005381Y004346D01*
X005226Y004501D01*
X005024Y004585D01*
X004805Y004585D01*
X004603Y004501D01*
X004448Y004346D01*
X004365Y004144D01*
X004365Y003925D01*
X004448Y003723D01*
X004603Y003569D01*
X004805Y003485D01*
X005024Y003485D01*
X005226Y003569D01*
X005381Y003723D01*
X005394Y003755D01*
X005448Y003623D01*
X005603Y003469D01*
X005805Y003385D01*
X006024Y003385D01*
X006226Y003469D01*
X006381Y003623D01*
X006435Y003755D01*
X006448Y003723D01*
X006603Y003569D01*
X006805Y003485D01*
X007024Y003485D01*
X007226Y003569D01*
X007381Y003723D01*
X007394Y003755D01*
X007448Y003623D01*
X007603Y003469D01*
X007805Y003385D01*
X008024Y003385D01*
X008226Y003469D01*
X008381Y003623D01*
X008435Y003755D01*
X008448Y003723D01*
X008603Y003569D01*
X008805Y003485D01*
X009024Y003485D01*
X009226Y003569D01*
X009381Y003723D01*
X009394Y003755D01*
X009448Y003623D01*
X009603Y003469D01*
X009805Y003385D01*
X010024Y003385D01*
X010226Y003469D01*
X010381Y003623D01*
X010435Y003755D01*
X010448Y003723D01*
X010603Y003569D01*
X010805Y003485D01*
X011024Y003485D01*
X011226Y003569D01*
X011381Y003723D01*
X011394Y003755D01*
X011448Y003623D01*
X011603Y003469D01*
X011805Y003385D01*
X012024Y003385D01*
X012226Y003469D01*
X012381Y003623D01*
X012435Y003755D01*
X012448Y003723D01*
X012603Y003569D01*
X012805Y003485D01*
X013024Y003485D01*
X013226Y003569D01*
X013381Y003723D01*
X013394Y003755D01*
X013448Y003623D01*
X013603Y003469D01*
X013805Y003385D01*
X014024Y003385D01*
X014226Y003469D01*
X014381Y003623D01*
X014435Y003755D01*
X014448Y003723D01*
X014603Y003569D01*
X014805Y003485D01*
X015024Y003485D01*
X015226Y003569D01*
X015381Y003723D01*
X015394Y003755D01*
X015448Y003623D01*
X015603Y003469D01*
X015805Y003385D01*
X015895Y003385D01*
X015895Y003915D01*
X015935Y003915D01*
X015935Y003955D01*
X016465Y003955D01*
X016465Y004044D01*
X016381Y004246D01*
X016226Y004401D01*
X016024Y004485D01*
X015935Y004485D01*
X015935Y003955D01*
X015895Y003955D01*
X015895Y004485D01*
X015805Y004485D01*
X015603Y004401D01*
X015448Y004246D01*
X015435Y004215D01*
X015381Y004346D01*
X015226Y004501D01*
X015024Y004585D01*
X014805Y004585D01*
X014555Y004453D02*
X014100Y004453D01*
X014333Y004295D02*
X014427Y004295D01*
X013729Y004453D02*
X013274Y004453D01*
X013402Y004295D02*
X013497Y004295D01*
X013433Y003661D02*
X013318Y003661D01*
X013570Y003502D02*
X013065Y003502D01*
X012764Y003502D02*
X012260Y003502D01*
X012396Y003661D02*
X012511Y003661D01*
X011570Y003502D02*
X011065Y003502D01*
X011318Y003661D02*
X011433Y003661D01*
X010764Y003502D02*
X010260Y003502D01*
X010396Y003661D02*
X010511Y003661D01*
X010427Y004295D02*
X010333Y004295D01*
X010555Y004453D02*
X010100Y004453D01*
X009729Y004453D02*
X009274Y004453D01*
X009402Y004295D02*
X009497Y004295D01*
X009433Y003661D02*
X009318Y003661D01*
X009570Y003502D02*
X009065Y003502D01*
X008764Y003502D02*
X008260Y003502D01*
X008396Y003661D02*
X008511Y003661D01*
X007570Y003502D02*
X007065Y003502D01*
X007318Y003661D02*
X007433Y003661D01*
X006764Y003502D02*
X006260Y003502D01*
X006396Y003661D02*
X006511Y003661D01*
X006427Y004295D02*
X006333Y004295D01*
X006555Y004453D02*
X006100Y004453D01*
X005729Y004453D02*
X005274Y004453D01*
X005402Y004295D02*
X005497Y004295D01*
X005433Y003661D02*
X005318Y003661D01*
X005570Y003502D02*
X005065Y003502D01*
X004764Y003502D02*
X002367Y003502D01*
X002368Y003661D02*
X004511Y003661D01*
X004409Y003819D02*
X002368Y003819D01*
X002368Y003978D02*
X002488Y003978D01*
X002913Y003978D02*
X004365Y003978D01*
X004365Y004136D02*
X003130Y004136D01*
X003217Y004295D02*
X004427Y004295D01*
X004555Y004453D02*
X003251Y004453D01*
X003244Y004612D02*
X018554Y004612D01*
X018554Y004453D02*
X016100Y004453D01*
X015935Y004453D02*
X015895Y004453D01*
X015895Y004295D02*
X015935Y004295D01*
X015935Y004136D02*
X015895Y004136D01*
X015895Y003978D02*
X015935Y003978D01*
X015935Y003915D02*
X016465Y003915D01*
X016465Y003825D01*
X016381Y003623D01*
X016226Y003469D01*
X016024Y003385D01*
X015935Y003385D01*
X015935Y003915D01*
X015935Y003819D02*
X015895Y003819D01*
X015895Y003661D02*
X015935Y003661D01*
X015935Y003502D02*
X015895Y003502D01*
X016260Y003502D02*
X021694Y003502D01*
X021694Y003661D02*
X016396Y003661D01*
X016462Y003819D02*
X021694Y003819D01*
X021694Y003978D02*
X016465Y003978D01*
X016427Y004136D02*
X021694Y004136D01*
X021694Y004295D02*
X019351Y004295D01*
X019390Y004453D02*
X021694Y004453D01*
X021694Y004612D02*
X019390Y004612D01*
X019390Y004770D02*
X021694Y004770D01*
X021694Y004929D02*
X019390Y004929D01*
X018593Y004295D02*
X016333Y004295D01*
X015729Y004453D02*
X015274Y004453D01*
X015402Y004295D02*
X015497Y004295D01*
X015433Y003661D02*
X015318Y003661D01*
X015570Y003502D02*
X015065Y003502D01*
X014764Y003502D02*
X014260Y003502D01*
X014396Y003661D02*
X014511Y003661D01*
X012555Y004453D02*
X012100Y004453D01*
X012333Y004295D02*
X012427Y004295D01*
X011729Y004453D02*
X011274Y004453D01*
X011402Y004295D02*
X011497Y004295D01*
X011184Y005082D02*
X011009Y005010D01*
X010915Y005010D01*
X010915Y005484D01*
X010914Y005484D01*
X010914Y005010D01*
X010820Y005010D01*
X010645Y005082D01*
X010512Y005216D01*
X010439Y005390D01*
X010439Y005485D01*
X010914Y005485D01*
X010914Y005485D01*
X010439Y005485D01*
X010439Y005579D01*
X010512Y005754D01*
X010645Y005888D01*
X010820Y005960D01*
X010914Y005960D01*
X010914Y005485D01*
X010915Y005485D01*
X011390Y005485D01*
X011390Y005579D01*
X011318Y005754D01*
X011184Y005888D01*
X011009Y005960D01*
X010915Y005960D01*
X010915Y005485D01*
X010915Y005485D01*
X011390Y005485D01*
X011390Y005390D01*
X011318Y005216D01*
X011184Y005082D01*
X011189Y005087D02*
X011640Y005087D01*
X011499Y005246D02*
X011330Y005246D01*
X011390Y005404D02*
X011439Y005404D01*
X011439Y005563D02*
X011390Y005563D01*
X011331Y005722D02*
X011498Y005722D01*
X011638Y005880D02*
X011191Y005880D01*
X010915Y005880D02*
X010914Y005880D01*
X010914Y005722D02*
X010915Y005722D01*
X010914Y005563D02*
X010915Y005563D01*
X010914Y005404D02*
X010915Y005404D01*
X010914Y005246D02*
X010915Y005246D01*
X010914Y005087D02*
X010915Y005087D01*
X010640Y005087D02*
X010189Y005087D01*
X010184Y005082D02*
X010318Y005216D01*
X010390Y005390D01*
X010390Y005579D01*
X010318Y005754D01*
X010184Y005888D01*
X010009Y005960D01*
X009820Y005960D01*
X009645Y005888D01*
X009512Y005754D01*
X009439Y005579D01*
X009439Y005390D01*
X009512Y005216D01*
X009645Y005082D01*
X009820Y005010D01*
X010009Y005010D01*
X010184Y005082D01*
X010330Y005246D02*
X010499Y005246D01*
X010439Y005404D02*
X010390Y005404D01*
X010390Y005563D02*
X010439Y005563D01*
X010498Y005722D02*
X010331Y005722D01*
X010191Y005880D02*
X010638Y005880D01*
X009638Y005880D02*
X009191Y005880D01*
X009184Y005888D02*
X009009Y005960D01*
X008820Y005960D01*
X008645Y005888D01*
X008512Y005754D01*
X008439Y005579D01*
X008439Y005390D01*
X008512Y005216D01*
X008645Y005082D01*
X008820Y005010D01*
X009009Y005010D01*
X009184Y005082D01*
X009318Y005216D01*
X009390Y005390D01*
X009390Y005579D01*
X009318Y005754D01*
X009184Y005888D01*
X009331Y005722D02*
X009498Y005722D01*
X009439Y005563D02*
X009390Y005563D01*
X009390Y005404D02*
X009439Y005404D01*
X009499Y005246D02*
X009330Y005246D01*
X009189Y005087D02*
X009640Y005087D01*
X008640Y005087D02*
X008189Y005087D01*
X008184Y005082D02*
X008318Y005216D01*
X008390Y005390D01*
X008390Y005579D01*
X008318Y005754D01*
X008184Y005888D01*
X008009Y005960D01*
X007820Y005960D01*
X007645Y005888D01*
X007512Y005754D01*
X007439Y005579D01*
X007439Y005390D01*
X007512Y005216D01*
X007645Y005082D01*
X007820Y005010D01*
X008009Y005010D01*
X008184Y005082D01*
X008330Y005246D02*
X008499Y005246D01*
X008439Y005404D02*
X008390Y005404D01*
X008390Y005563D02*
X008439Y005563D01*
X008498Y005722D02*
X008331Y005722D01*
X008191Y005880D02*
X008638Y005880D01*
X007638Y005880D02*
X007191Y005880D01*
X007184Y005888D02*
X007009Y005960D01*
X006820Y005960D01*
X006645Y005888D01*
X006512Y005754D01*
X006439Y005579D01*
X006439Y005390D01*
X006512Y005216D01*
X006645Y005082D01*
X006820Y005010D01*
X007009Y005010D01*
X007184Y005082D01*
X007318Y005216D01*
X007390Y005390D01*
X007390Y005579D01*
X007318Y005754D01*
X007184Y005888D01*
X007331Y005722D02*
X007498Y005722D01*
X007439Y005563D02*
X007390Y005563D01*
X007390Y005404D02*
X007439Y005404D01*
X007499Y005246D02*
X007330Y005246D01*
X007189Y005087D02*
X007640Y005087D01*
X007729Y004453D02*
X007274Y004453D01*
X007402Y004295D02*
X007497Y004295D01*
X008100Y004453D02*
X008555Y004453D01*
X008427Y004295D02*
X008333Y004295D01*
X006640Y005087D02*
X006189Y005087D01*
X006330Y005246D02*
X006499Y005246D01*
X006439Y005404D02*
X006390Y005404D01*
X006390Y005563D02*
X006439Y005563D01*
X006498Y005722D02*
X006331Y005722D01*
X006191Y005880D02*
X006638Y005880D01*
X005636Y006039D02*
X011821Y006039D01*
X011826Y006050D02*
X011826Y006050D01*
X011940Y006197D02*
X005397Y006197D01*
X005125Y006356D02*
X012067Y006356D01*
X012061Y006352D02*
X012061Y006352D01*
X012061Y006352D01*
X012293Y006514D02*
X004736Y006514D01*
X004138Y006673D02*
X012688Y006673D01*
X012740Y006690D02*
X012740Y006690D01*
X012375Y006572D02*
X012375Y006572D01*
X012806Y006197D02*
X012951Y006197D01*
X012833Y006095D02*
X012833Y006095D01*
X012801Y006039D02*
X012466Y006039D01*
X012313Y005880D02*
X012638Y005880D01*
X012498Y005722D02*
X012331Y005722D01*
X012390Y005563D02*
X012439Y005563D01*
X012439Y005404D02*
X012390Y005404D01*
X012330Y005246D02*
X012499Y005246D01*
X012640Y005087D02*
X012189Y005087D01*
X013189Y005087D02*
X013640Y005087D01*
X013499Y005246D02*
X013330Y005246D01*
X013390Y005404D02*
X013439Y005404D01*
X013439Y005563D02*
X013390Y005563D01*
X013331Y005722D02*
X013498Y005722D01*
X013497Y005898D02*
X013497Y005898D01*
X013364Y005880D02*
X013638Y005880D01*
X013820Y008010D02*
X013645Y008082D01*
X013512Y008216D01*
X013439Y008390D01*
X013439Y008579D01*
X013512Y008754D01*
X013645Y008888D01*
X013820Y008960D01*
X014009Y008960D01*
X014184Y008888D01*
X014318Y008754D01*
X014390Y008579D01*
X014390Y008390D01*
X014318Y008216D01*
X014184Y008082D01*
X014009Y008010D01*
X013820Y008010D01*
X013628Y008100D02*
X013202Y008100D01*
X013184Y008082D02*
X013318Y008216D01*
X013390Y008390D01*
X013390Y008579D01*
X013318Y008754D01*
X013184Y008888D01*
X013009Y008960D01*
X012820Y008960D01*
X012645Y008888D01*
X012512Y008754D01*
X012439Y008579D01*
X012439Y008390D01*
X012512Y008216D01*
X012645Y008082D01*
X012820Y008010D01*
X013009Y008010D01*
X013184Y008082D01*
X013335Y008258D02*
X013494Y008258D01*
X013439Y008417D02*
X013390Y008417D01*
X013390Y008575D02*
X013439Y008575D01*
X013503Y008734D02*
X013326Y008734D01*
X013173Y008892D02*
X013657Y008892D01*
X014173Y008892D02*
X014657Y008892D01*
X014645Y008888D02*
X014512Y008754D01*
X014439Y008579D01*
X014439Y008390D01*
X014512Y008216D01*
X014645Y008082D01*
X014820Y008010D01*
X015009Y008010D01*
X015184Y008082D01*
X015318Y008216D01*
X015390Y008390D01*
X015390Y008579D01*
X015318Y008754D01*
X015184Y008888D01*
X015009Y008960D01*
X014820Y008960D01*
X014645Y008888D01*
X014503Y008734D02*
X014326Y008734D01*
X014390Y008575D02*
X014439Y008575D01*
X014439Y008417D02*
X014390Y008417D01*
X014335Y008258D02*
X014494Y008258D01*
X014628Y008100D02*
X014202Y008100D01*
X015202Y008100D02*
X015628Y008100D01*
X015645Y008082D02*
X015820Y008010D01*
X016009Y008010D01*
X016184Y008082D01*
X016318Y008216D01*
X016390Y008390D01*
X016390Y008579D01*
X016318Y008754D01*
X016184Y008888D01*
X016009Y008960D01*
X015820Y008960D01*
X015645Y008888D01*
X015512Y008754D01*
X015439Y008579D01*
X015439Y008390D01*
X015512Y008216D01*
X015645Y008082D01*
X015494Y008258D02*
X015335Y008258D01*
X015390Y008417D02*
X015439Y008417D01*
X015439Y008575D02*
X015390Y008575D01*
X015326Y008734D02*
X015503Y008734D01*
X015657Y008892D02*
X015173Y008892D01*
X015603Y009469D02*
X015805Y009385D01*
X016024Y009385D01*
X016226Y009469D01*
X016381Y009623D01*
X016465Y009825D01*
X016465Y010044D01*
X016381Y010246D01*
X016226Y010401D01*
X016024Y010485D01*
X015805Y010485D01*
X015603Y010401D01*
X015448Y010246D01*
X015435Y010215D01*
X015381Y010346D01*
X015226Y010501D01*
X015024Y010585D01*
X014805Y010585D01*
X014603Y010501D01*
X014448Y010346D01*
X014394Y010215D01*
X014381Y010246D01*
X014226Y010401D01*
X014024Y010485D01*
X013805Y010485D01*
X013603Y010401D01*
X013448Y010246D01*
X013435Y010215D01*
X013381Y010346D01*
X013226Y010501D01*
X013024Y010585D01*
X012805Y010585D01*
X012603Y010501D01*
X012448Y010346D01*
X012394Y010215D01*
X012381Y010246D01*
X012226Y010401D01*
X012024Y010485D01*
X011805Y010485D01*
X011603Y010401D01*
X011448Y010246D01*
X011435Y010215D01*
X011381Y010346D01*
X011226Y010501D01*
X011024Y010585D01*
X010805Y010585D01*
X010603Y010501D01*
X010448Y010346D01*
X010394Y010215D01*
X010381Y010246D01*
X010226Y010401D01*
X010024Y010485D01*
X009805Y010485D01*
X009603Y010401D01*
X009448Y010246D01*
X009435Y010215D01*
X009381Y010346D01*
X009226Y010501D01*
X009024Y010585D01*
X008805Y010585D01*
X008603Y010501D01*
X008448Y010346D01*
X008394Y010215D01*
X008381Y010246D01*
X008226Y010401D01*
X008024Y010485D01*
X007805Y010485D01*
X007603Y010401D01*
X007448Y010246D01*
X007435Y010215D01*
X007381Y010346D01*
X007226Y010501D01*
X007024Y010585D01*
X006805Y010585D01*
X006603Y010501D01*
X006448Y010346D01*
X006394Y010215D01*
X006381Y010246D01*
X006226Y010401D01*
X006024Y010485D01*
X005805Y010485D01*
X005603Y010401D01*
X005448Y010246D01*
X005435Y010215D01*
X005381Y010346D01*
X005226Y010501D01*
X005024Y010585D01*
X004805Y010585D01*
X004603Y010501D01*
X004448Y010346D01*
X004365Y010144D01*
X004365Y009925D01*
X004448Y009723D01*
X004603Y009569D01*
X004805Y009485D01*
X005024Y009485D01*
X005226Y009569D01*
X005381Y009723D01*
X005394Y009755D01*
X005448Y009623D01*
X005603Y009469D01*
X005805Y009385D01*
X006024Y009385D01*
X006226Y009469D01*
X006381Y009623D01*
X006435Y009755D01*
X006448Y009723D01*
X006603Y009569D01*
X006805Y009485D01*
X007024Y009485D01*
X007226Y009569D01*
X007381Y009723D01*
X007394Y009755D01*
X007448Y009623D01*
X007603Y009469D01*
X007805Y009385D01*
X008024Y009385D01*
X008226Y009469D01*
X008381Y009623D01*
X008435Y009755D01*
X008448Y009723D01*
X008603Y009569D01*
X008805Y009485D01*
X009024Y009485D01*
X009226Y009569D01*
X009381Y009723D01*
X009394Y009755D01*
X009448Y009623D01*
X009603Y009469D01*
X009805Y009385D01*
X010024Y009385D01*
X010226Y009469D01*
X010381Y009623D01*
X010435Y009755D01*
X010448Y009723D01*
X010603Y009569D01*
X010805Y009485D01*
X011024Y009485D01*
X011226Y009569D01*
X011381Y009723D01*
X011394Y009755D01*
X011448Y009623D01*
X011603Y009469D01*
X011805Y009385D01*
X012024Y009385D01*
X012226Y009469D01*
X012381Y009623D01*
X012435Y009755D01*
X012448Y009723D01*
X012603Y009569D01*
X012805Y009485D01*
X013024Y009485D01*
X013226Y009569D01*
X013381Y009723D01*
X013394Y009755D01*
X013448Y009623D01*
X013603Y009469D01*
X013805Y009385D01*
X014024Y009385D01*
X014226Y009469D01*
X014381Y009623D01*
X014435Y009755D01*
X014448Y009723D01*
X014603Y009569D01*
X014805Y009485D01*
X015024Y009485D01*
X015226Y009569D01*
X015381Y009723D01*
X015394Y009755D01*
X015448Y009623D01*
X015603Y009469D01*
X015545Y009527D02*
X015125Y009527D01*
X015343Y009685D02*
X015423Y009685D01*
X014704Y009527D02*
X014284Y009527D01*
X014406Y009685D02*
X014487Y009685D01*
X013545Y009527D02*
X013125Y009527D01*
X013343Y009685D02*
X013423Y009685D01*
X012704Y009527D02*
X012284Y009527D01*
X012406Y009685D02*
X012487Y009685D01*
X012437Y010319D02*
X012308Y010319D01*
X012041Y010478D02*
X012580Y010478D01*
X013249Y010478D02*
X013788Y010478D01*
X014041Y010478D02*
X014580Y010478D01*
X014437Y010319D02*
X014308Y010319D01*
X013521Y010319D02*
X013392Y010319D01*
X011788Y010478D02*
X011249Y010478D01*
X011392Y010319D02*
X011521Y010319D01*
X010580Y010478D02*
X010041Y010478D01*
X009788Y010478D02*
X009249Y010478D01*
X009392Y010319D02*
X009521Y010319D01*
X010308Y010319D02*
X010437Y010319D01*
X010406Y009685D02*
X010487Y009685D01*
X010284Y009527D02*
X010704Y009527D01*
X011125Y009527D02*
X011545Y009527D01*
X011423Y009685D02*
X011343Y009685D01*
X011009Y008960D02*
X010820Y008960D01*
X010645Y008888D01*
X010512Y008754D01*
X010439Y008579D01*
X010439Y008390D01*
X010512Y008216D01*
X010645Y008082D01*
X010820Y008010D01*
X011009Y008010D01*
X011184Y008082D01*
X011318Y008216D01*
X011390Y008390D01*
X011390Y008579D01*
X011318Y008754D01*
X011184Y008888D01*
X011009Y008960D01*
X011173Y008892D02*
X011657Y008892D01*
X011645Y008888D02*
X011512Y008754D01*
X011439Y008579D01*
X011439Y008390D01*
X011512Y008216D01*
X011645Y008082D01*
X011820Y008010D01*
X012009Y008010D01*
X012184Y008082D01*
X012318Y008216D01*
X012390Y008390D01*
X012390Y008579D01*
X012318Y008754D01*
X012184Y008888D01*
X012009Y008960D01*
X011820Y008960D01*
X011645Y008888D01*
X011503Y008734D02*
X011326Y008734D01*
X011390Y008575D02*
X011439Y008575D01*
X011439Y008417D02*
X011390Y008417D01*
X011335Y008258D02*
X011494Y008258D01*
X011628Y008100D02*
X011202Y008100D01*
X010628Y008100D02*
X010202Y008100D01*
X010184Y008082D02*
X010318Y008216D01*
X010390Y008390D01*
X010390Y008485D01*
X010390Y008579D01*
X010318Y008754D01*
X010184Y008888D01*
X010009Y008960D01*
X009915Y008960D01*
X009915Y008485D01*
X010390Y008485D01*
X009915Y008485D01*
X009915Y008485D01*
X009914Y008485D01*
X009914Y008485D01*
X009439Y008485D01*
X009439Y008579D01*
X009512Y008754D01*
X009645Y008888D01*
X009820Y008960D01*
X009914Y008960D01*
X009914Y008485D01*
X009439Y008485D01*
X009439Y008390D01*
X009512Y008216D01*
X009645Y008082D01*
X009820Y008010D01*
X009914Y008010D01*
X009914Y008484D01*
X009915Y008484D01*
X009915Y008010D01*
X010009Y008010D01*
X010184Y008082D01*
X010335Y008258D02*
X010494Y008258D01*
X010439Y008417D02*
X010390Y008417D01*
X010390Y008575D02*
X010439Y008575D01*
X010503Y008734D02*
X010326Y008734D01*
X010173Y008892D02*
X010657Y008892D01*
X009915Y008892D02*
X009914Y008892D01*
X009914Y008734D02*
X009915Y008734D01*
X009914Y008575D02*
X009915Y008575D01*
X009914Y008417D02*
X009915Y008417D01*
X009914Y008258D02*
X009915Y008258D01*
X009914Y008100D02*
X009915Y008100D01*
X009628Y008100D02*
X009202Y008100D01*
X009184Y008082D02*
X009318Y008216D01*
X009390Y008390D01*
X009390Y008579D01*
X009318Y008754D01*
X009184Y008888D01*
X009009Y008960D01*
X008820Y008960D01*
X008645Y008888D01*
X008512Y008754D01*
X008439Y008579D01*
X008439Y008390D01*
X008512Y008216D01*
X008645Y008082D01*
X008820Y008010D01*
X009009Y008010D01*
X009184Y008082D01*
X009335Y008258D02*
X009494Y008258D01*
X009439Y008417D02*
X009390Y008417D01*
X009390Y008575D02*
X009439Y008575D01*
X009503Y008734D02*
X009326Y008734D01*
X009173Y008892D02*
X009657Y008892D01*
X008657Y008892D02*
X008173Y008892D01*
X008184Y008888D02*
X008009Y008960D01*
X007820Y008960D01*
X007645Y008888D01*
X007512Y008754D01*
X007439Y008579D01*
X007439Y008390D01*
X007512Y008216D01*
X007645Y008082D01*
X007820Y008010D01*
X008009Y008010D01*
X008184Y008082D01*
X008318Y008216D01*
X008390Y008390D01*
X008390Y008579D01*
X008318Y008754D01*
X008184Y008888D01*
X008326Y008734D02*
X008503Y008734D01*
X008439Y008575D02*
X008390Y008575D01*
X008390Y008417D02*
X008439Y008417D01*
X008494Y008258D02*
X008335Y008258D01*
X008202Y008100D02*
X008628Y008100D01*
X007628Y008100D02*
X007202Y008100D01*
X007184Y008082D02*
X007318Y008216D01*
X007390Y008390D01*
X007390Y008579D01*
X007318Y008754D01*
X007184Y008888D01*
X007009Y008960D01*
X006820Y008960D01*
X006645Y008888D01*
X006512Y008754D01*
X006439Y008579D01*
X006439Y008390D01*
X006512Y008216D01*
X006645Y008082D01*
X006820Y008010D01*
X007009Y008010D01*
X007184Y008082D01*
X007335Y008258D02*
X007494Y008258D01*
X007439Y008417D02*
X007390Y008417D01*
X007390Y008575D02*
X007439Y008575D01*
X007503Y008734D02*
X007326Y008734D01*
X007173Y008892D02*
X007657Y008892D01*
X007545Y009527D02*
X007125Y009527D01*
X007343Y009685D02*
X007423Y009685D01*
X006704Y009527D02*
X006284Y009527D01*
X006406Y009685D02*
X006487Y009685D01*
X006437Y010319D02*
X006308Y010319D01*
X006041Y010478D02*
X006580Y010478D01*
X007249Y010478D02*
X007788Y010478D01*
X008041Y010478D02*
X008580Y010478D01*
X008437Y010319D02*
X008308Y010319D01*
X007521Y010319D02*
X007392Y010319D01*
X008406Y009685D02*
X008487Y009685D01*
X008284Y009527D02*
X008704Y009527D01*
X009125Y009527D02*
X009545Y009527D01*
X009423Y009685D02*
X009343Y009685D01*
X006657Y008892D02*
X006173Y008892D01*
X006184Y008888D02*
X006009Y008960D01*
X005820Y008960D01*
X005645Y008888D01*
X005512Y008754D01*
X005439Y008579D01*
X005439Y008390D01*
X005512Y008216D01*
X005645Y008082D01*
X005820Y008010D01*
X006009Y008010D01*
X006184Y008082D01*
X006318Y008216D01*
X006390Y008390D01*
X006390Y008579D01*
X006318Y008754D01*
X006184Y008888D01*
X006326Y008734D02*
X006503Y008734D01*
X006439Y008575D02*
X006390Y008575D01*
X006390Y008417D02*
X006439Y008417D01*
X006494Y008258D02*
X006335Y008258D01*
X006202Y008100D02*
X006628Y008100D01*
X005628Y008100D02*
X005202Y008100D01*
X005184Y008082D02*
X005318Y008216D01*
X005390Y008390D01*
X005390Y008579D01*
X005318Y008754D01*
X005184Y008888D01*
X005009Y008960D01*
X004820Y008960D01*
X004645Y008888D01*
X004512Y008754D01*
X004439Y008579D01*
X004439Y008390D01*
X004512Y008216D01*
X004645Y008082D01*
X004820Y008010D01*
X005009Y008010D01*
X005184Y008082D01*
X005335Y008258D02*
X005494Y008258D01*
X005439Y008417D02*
X005390Y008417D01*
X005390Y008575D02*
X005439Y008575D01*
X005503Y008734D02*
X005326Y008734D01*
X005173Y008892D02*
X005657Y008892D01*
X005545Y009527D02*
X005125Y009527D01*
X005343Y009685D02*
X005423Y009685D01*
X004704Y009527D02*
X003351Y009527D01*
X003351Y009505D02*
X003351Y009594D01*
X003267Y009796D01*
X003112Y009951D01*
X002910Y010035D01*
X002821Y010035D01*
X002821Y009505D01*
X003351Y009505D01*
X003348Y009368D02*
X021694Y009368D01*
X021694Y009210D02*
X003282Y009210D01*
X003145Y009051D02*
X021694Y009051D01*
X021694Y008892D02*
X017173Y008892D01*
X017184Y008888D02*
X017009Y008960D01*
X016820Y008960D01*
X016645Y008888D01*
X016512Y008754D01*
X016439Y008579D01*
X016439Y008390D01*
X016512Y008216D01*
X016645Y008082D01*
X016820Y008010D01*
X017009Y008010D01*
X017184Y008082D01*
X017318Y008216D01*
X017390Y008390D01*
X017390Y008579D01*
X017318Y008754D01*
X017184Y008888D01*
X017326Y008734D02*
X021694Y008734D01*
X021694Y008575D02*
X017390Y008575D01*
X017390Y008417D02*
X021694Y008417D01*
X021694Y008258D02*
X017335Y008258D01*
X017202Y008100D02*
X021694Y008100D01*
X021694Y007941D02*
X003122Y007941D01*
X003094Y008100D02*
X003628Y008100D01*
X003645Y008082D02*
X003512Y008216D01*
X003439Y008390D01*
X003439Y008579D01*
X003512Y008754D01*
X003645Y008888D01*
X003820Y008960D01*
X004009Y008960D01*
X004184Y008888D01*
X004318Y008754D01*
X004390Y008579D01*
X004390Y008390D01*
X004318Y008216D01*
X004184Y008082D01*
X004009Y008010D01*
X003820Y008010D01*
X003645Y008082D01*
X003494Y008258D02*
X003202Y008258D01*
X003251Y008417D02*
X003439Y008417D01*
X003439Y008575D02*
X003251Y008575D01*
X003193Y008734D02*
X003503Y008734D01*
X003657Y008892D02*
X003071Y008892D01*
X002821Y009527D02*
X002781Y009527D01*
X002781Y009685D02*
X002821Y009685D01*
X002821Y009844D02*
X002781Y009844D01*
X002781Y010002D02*
X002821Y010002D01*
X002989Y010002D02*
X004365Y010002D01*
X004371Y010161D02*
X002376Y010161D01*
X002376Y010319D02*
X004437Y010319D01*
X004580Y010478D02*
X002377Y010478D01*
X002376Y010002D02*
X002613Y010002D01*
X002382Y009844D02*
X002376Y009844D01*
X003220Y009844D02*
X004399Y009844D01*
X004487Y009685D02*
X003313Y009685D01*
X004173Y008892D02*
X004657Y008892D01*
X004503Y008734D02*
X004326Y008734D01*
X004390Y008575D02*
X004439Y008575D01*
X004439Y008417D02*
X004390Y008417D01*
X004335Y008258D02*
X004494Y008258D01*
X004628Y008100D02*
X004202Y008100D01*
X003273Y007783D02*
X021694Y007783D01*
X021694Y007624D02*
X003339Y007624D01*
X003351Y007466D02*
X021694Y007466D01*
X021694Y007307D02*
X003322Y007307D01*
X003242Y007148D02*
X021694Y007148D01*
X021694Y006990D02*
X003043Y006990D01*
X003132Y006831D02*
X018554Y006831D01*
X019390Y006831D02*
X021694Y006831D01*
X021694Y006673D02*
X019390Y006673D01*
X019390Y006514D02*
X021694Y006514D01*
X021694Y006356D02*
X019390Y006356D01*
X019333Y006197D02*
X021694Y006197D01*
X021694Y006039D02*
X018017Y006039D01*
X016628Y008100D02*
X016202Y008100D01*
X016335Y008258D02*
X016494Y008258D01*
X016439Y008417D02*
X016390Y008417D01*
X016390Y008575D02*
X016439Y008575D01*
X016503Y008734D02*
X016326Y008734D01*
X016173Y008892D02*
X016657Y008892D01*
X016284Y009527D02*
X021694Y009527D01*
X021694Y009685D02*
X016406Y009685D01*
X016465Y009844D02*
X021694Y009844D01*
X021694Y010002D02*
X016465Y010002D01*
X016416Y010161D02*
X021694Y010161D01*
X021694Y010319D02*
X016308Y010319D01*
X016041Y010478D02*
X021694Y010478D01*
X015788Y010478D02*
X015249Y010478D01*
X015392Y010319D02*
X015521Y010319D01*
X012657Y008892D02*
X012173Y008892D01*
X012326Y008734D02*
X012503Y008734D01*
X012439Y008575D02*
X012390Y008575D01*
X012390Y008417D02*
X012439Y008417D01*
X012494Y008258D02*
X012335Y008258D01*
X012202Y008100D02*
X012628Y008100D01*
X005788Y010478D02*
X005249Y010478D01*
X005392Y010319D02*
X005521Y010319D01*
X003812Y006735D02*
X003812Y006735D01*
X003498Y005722D02*
X003340Y005722D01*
X003351Y005563D02*
X003439Y005563D01*
X003439Y005404D02*
X003351Y005404D01*
X003297Y005246D02*
X003499Y005246D01*
X003640Y005087D02*
X003181Y005087D01*
X004189Y005087D02*
X004640Y005087D01*
X004499Y005246D02*
X004330Y005246D01*
X004390Y005404D02*
X004439Y005404D01*
X004439Y005563D02*
X004390Y005563D01*
X005189Y005087D02*
X005640Y005087D01*
X005499Y005246D02*
X005330Y005246D01*
X005390Y005404D02*
X005439Y005404D01*
X005439Y005563D02*
X005390Y005563D01*
D16*
X007939Y006889D03*
X013315Y007022D03*
X019789Y010114D03*
X020419Y005744D03*
X021359Y004644D03*
M02*
