G75*
G70*
%OFA0B0*%
%FSLAX24Y24*%
%IPPOS*%
%LPD*%
%AMOC8*
5,1,8,0,0,1.08239X$1,22.5*
%
%ADD10C,0.0000*%
%ADD11C,0.0030*%
%ADD12C,0.0060*%
%ADD13C,0.0050*%
%ADD14C,0.0020*%
D10*
X002348Y003185D02*
X021596Y003185D01*
X021596Y003184D02*
X021625Y003181D01*
X021654Y003182D01*
X021683Y003186D01*
X021711Y003193D01*
X021739Y003204D01*
X021764Y003218D01*
X021788Y003235D01*
X021810Y003255D01*
X021829Y003278D01*
X021845Y003302D01*
X021858Y003328D01*
X021868Y003356D01*
X021875Y003385D01*
X021874Y003385D02*
X021874Y010585D01*
X021875Y010585D02*
X021868Y010614D01*
X021858Y010642D01*
X021845Y010668D01*
X021829Y010692D01*
X021810Y010715D01*
X021788Y010735D01*
X021764Y010752D01*
X021739Y010766D01*
X021712Y010777D01*
X021683Y010784D01*
X021654Y010788D01*
X021625Y010789D01*
X021596Y010786D01*
X021595Y010785D02*
X002377Y010785D01*
X002349Y010780D01*
X002323Y010772D01*
X002298Y010760D01*
X002275Y010745D01*
X002254Y010727D01*
X002236Y010706D01*
X002221Y010682D01*
X002209Y010657D01*
X002201Y010630D01*
X002197Y010603D01*
X002196Y010575D01*
X002197Y010576D02*
X002187Y003394D01*
X002188Y003394D02*
X002186Y003370D01*
X002187Y003345D01*
X002192Y003321D01*
X002199Y003298D01*
X002210Y003276D01*
X002224Y003255D01*
X002240Y003237D01*
X002258Y003221D01*
X002279Y003207D01*
X002301Y003197D01*
X002324Y003189D01*
X002348Y003185D01*
D11*
X002478Y003594D02*
X002478Y003884D01*
X002623Y003884D01*
X002671Y003835D01*
X002671Y003739D01*
X002623Y003690D01*
X002478Y003690D01*
X002574Y003690D02*
X002671Y003594D01*
X002869Y003594D02*
X002869Y003884D01*
X002772Y003884D02*
X002966Y003884D01*
X003067Y003835D02*
X003115Y003884D01*
X003212Y003884D01*
X003260Y003835D01*
X003212Y003739D02*
X003260Y003690D01*
X003260Y003642D01*
X003212Y003594D01*
X003115Y003594D01*
X003067Y003642D01*
X003115Y003739D02*
X003212Y003739D01*
X003115Y003739D02*
X003067Y003787D01*
X003067Y003835D01*
X003362Y003594D02*
X003555Y003884D01*
X003656Y003884D02*
X003801Y003884D01*
X003850Y003835D01*
X003850Y003642D01*
X003801Y003594D01*
X003656Y003594D01*
X003656Y003884D01*
X003951Y003884D02*
X004144Y003884D01*
X004048Y003884D02*
X004048Y003594D01*
X004246Y003594D02*
X004246Y003884D01*
X004391Y003884D01*
X004439Y003835D01*
X004439Y003739D01*
X004391Y003690D01*
X004246Y003690D01*
X004342Y003690D02*
X004439Y003594D01*
X004393Y004555D02*
X004393Y004845D01*
X004538Y004845D01*
X004586Y004797D01*
X004586Y004700D01*
X004538Y004651D01*
X004393Y004651D01*
X004490Y004651D02*
X004586Y004555D01*
X004688Y004603D02*
X004736Y004555D01*
X004833Y004555D01*
X004881Y004603D01*
X004881Y004651D01*
X004833Y004700D01*
X004736Y004700D01*
X004688Y004748D01*
X004688Y004797D01*
X004736Y004845D01*
X004833Y004845D01*
X004881Y004797D01*
X004982Y004845D02*
X005176Y004845D01*
X005079Y004845D02*
X005079Y004555D01*
X005789Y004599D02*
X005934Y004599D01*
X005982Y004647D01*
X005982Y004841D01*
X005934Y004889D01*
X005789Y004889D01*
X005789Y004599D01*
X006083Y004599D02*
X006277Y004599D01*
X006180Y004599D02*
X006180Y004889D01*
X006083Y004793D01*
X006734Y004929D02*
X006734Y004638D01*
X006879Y004638D01*
X006927Y004687D01*
X006927Y004880D01*
X006879Y004929D01*
X006734Y004929D01*
X007028Y004880D02*
X007077Y004929D01*
X007173Y004929D01*
X007222Y004880D01*
X007222Y004832D01*
X007028Y004638D01*
X007222Y004638D01*
X007697Y004638D02*
X007697Y004929D01*
X007842Y004929D01*
X007890Y004880D01*
X007890Y004687D01*
X007842Y004638D01*
X007697Y004638D01*
X007991Y004687D02*
X008040Y004638D01*
X008136Y004638D01*
X008185Y004687D01*
X008185Y004735D01*
X008136Y004784D01*
X008088Y004784D01*
X008136Y004784D02*
X008185Y004832D01*
X008185Y004880D01*
X008136Y004929D01*
X008040Y004929D01*
X007991Y004880D01*
X008741Y004929D02*
X008741Y004638D01*
X008887Y004638D01*
X008935Y004687D01*
X008935Y004880D01*
X008887Y004929D01*
X008741Y004929D01*
X009036Y004784D02*
X009230Y004784D01*
X009181Y004929D02*
X009181Y004638D01*
X009036Y004784D02*
X009181Y004929D01*
X009765Y004929D02*
X009765Y004638D01*
X009910Y004638D01*
X009959Y004687D01*
X009959Y004880D01*
X009910Y004929D01*
X009765Y004929D01*
X010060Y004929D02*
X010060Y004784D01*
X010156Y004832D01*
X010205Y004832D01*
X010253Y004784D01*
X010253Y004687D01*
X010205Y004638D01*
X010108Y004638D01*
X010060Y004687D01*
X010060Y004929D02*
X010253Y004929D01*
X010689Y004929D02*
X010834Y004929D01*
X010882Y004880D01*
X010882Y004687D01*
X010834Y004638D01*
X010689Y004638D01*
X010689Y004929D01*
X010983Y004784D02*
X011128Y004784D01*
X011177Y004735D01*
X011177Y004687D01*
X011128Y004638D01*
X011032Y004638D01*
X010983Y004687D01*
X010983Y004784D01*
X011080Y004880D01*
X011177Y004929D01*
X011773Y004929D02*
X011773Y004638D01*
X011918Y004638D01*
X011966Y004687D01*
X011966Y004880D01*
X011918Y004929D01*
X011773Y004929D01*
X012068Y004929D02*
X012261Y004929D01*
X012261Y004880D01*
X012068Y004687D01*
X012068Y004638D01*
X012757Y004638D02*
X012902Y004638D01*
X012951Y004687D01*
X012951Y004880D01*
X012902Y004929D01*
X012757Y004929D01*
X012757Y004638D01*
X013052Y004687D02*
X013052Y004735D01*
X013100Y004784D01*
X013197Y004784D01*
X013245Y004735D01*
X013245Y004687D01*
X013197Y004638D01*
X013100Y004638D01*
X013052Y004687D01*
X013100Y004784D02*
X013052Y004832D01*
X013052Y004880D01*
X013100Y004929D01*
X013197Y004929D01*
X013245Y004880D01*
X013245Y004832D01*
X013197Y004784D01*
X013702Y004929D02*
X013702Y004638D01*
X013847Y004638D01*
X013896Y004687D01*
X013896Y004880D01*
X013847Y004929D01*
X013702Y004929D01*
X013997Y004880D02*
X013997Y004832D01*
X014045Y004784D01*
X014190Y004784D01*
X014190Y004880D02*
X014142Y004929D01*
X014045Y004929D01*
X013997Y004880D01*
X014190Y004880D02*
X014190Y004687D01*
X014142Y004638D01*
X014045Y004638D01*
X013997Y004687D01*
X014568Y004638D02*
X014568Y004929D01*
X014713Y004929D01*
X014762Y004880D01*
X014762Y004687D01*
X014713Y004638D01*
X014568Y004638D01*
X014863Y004638D02*
X015056Y004638D01*
X014960Y004638D02*
X014960Y004929D01*
X014863Y004832D01*
X015158Y004880D02*
X015158Y004687D01*
X015351Y004880D01*
X015351Y004687D01*
X015303Y004638D01*
X015206Y004638D01*
X015158Y004687D01*
X015158Y004880D02*
X015206Y004929D01*
X015303Y004929D01*
X015351Y004880D01*
X015671Y004880D02*
X015671Y004687D01*
X015719Y004638D01*
X015816Y004638D01*
X015864Y004687D01*
X015864Y004784D01*
X015767Y004784D01*
X015671Y004880D02*
X015719Y004929D01*
X015816Y004929D01*
X015864Y004880D01*
X015965Y004929D02*
X015965Y004638D01*
X016159Y004638D02*
X016159Y004929D01*
X016260Y004929D02*
X016405Y004929D01*
X016453Y004880D01*
X016453Y004687D01*
X016405Y004638D01*
X016260Y004638D01*
X016260Y004929D01*
X015965Y004929D02*
X016159Y004638D01*
X017009Y004678D02*
X017300Y004678D01*
X017300Y004577D02*
X017300Y004432D01*
X017251Y004384D01*
X017155Y004384D01*
X017106Y004432D01*
X017106Y004577D01*
X017155Y004678D02*
X017106Y004727D01*
X017106Y004824D01*
X017155Y004872D01*
X017300Y004872D01*
X017588Y004971D02*
X017588Y005116D01*
X017637Y005165D01*
X017830Y005165D01*
X017878Y005116D01*
X017878Y004971D01*
X017588Y004971D01*
X017733Y004870D02*
X017685Y004822D01*
X017685Y004725D01*
X017733Y004677D01*
X017830Y004677D01*
X017878Y004725D01*
X017878Y004822D01*
X017830Y004870D01*
X017733Y004870D01*
X017685Y004577D02*
X017685Y004480D01*
X017637Y004529D02*
X017830Y004529D01*
X017878Y004577D01*
X017878Y004381D02*
X017830Y004332D01*
X017637Y004332D01*
X017685Y004284D02*
X017685Y004381D01*
X017733Y004183D02*
X017685Y004134D01*
X017685Y004038D01*
X017733Y003989D01*
X017830Y003989D01*
X017878Y004038D01*
X017878Y004134D01*
X017782Y004183D02*
X017782Y003989D01*
X017733Y003888D02*
X017878Y003888D01*
X017733Y003888D02*
X017685Y003840D01*
X017685Y003743D01*
X017733Y003695D01*
X017733Y003593D02*
X017733Y003497D01*
X017733Y003593D02*
X017830Y003593D01*
X017878Y003545D01*
X017878Y003448D01*
X017830Y003400D01*
X017637Y003400D01*
X017588Y003448D01*
X017588Y003545D01*
X017637Y003593D01*
X017588Y003695D02*
X017878Y003695D01*
X017300Y003693D02*
X017009Y003693D01*
X017106Y003597D01*
X017009Y003500D01*
X017300Y003500D01*
X017009Y003795D02*
X017009Y003988D01*
X017009Y003891D02*
X017300Y003891D01*
X017251Y004089D02*
X017155Y004089D01*
X017106Y004138D01*
X017106Y004234D01*
X017155Y004283D01*
X017203Y004283D01*
X017203Y004089D01*
X017251Y004089D02*
X017300Y004138D01*
X017300Y004234D01*
X017733Y004183D02*
X017782Y004183D01*
X017830Y005266D02*
X017685Y005266D01*
X017830Y005266D02*
X017878Y005314D01*
X017878Y005459D01*
X017685Y005459D01*
X017685Y005561D02*
X017685Y005609D01*
X017878Y005609D01*
X017878Y005561D02*
X017878Y005657D01*
X017878Y005757D02*
X017685Y005757D01*
X017685Y005902D01*
X017733Y005950D01*
X017878Y005950D01*
X017830Y006052D02*
X017878Y006100D01*
X017878Y006197D01*
X017830Y006245D01*
X017733Y006245D01*
X017685Y006197D01*
X017685Y006100D01*
X017733Y006052D01*
X017830Y006052D01*
X017588Y005609D02*
X017540Y005609D01*
X020256Y003770D02*
X020256Y003577D01*
X020353Y003480D01*
X020449Y003577D01*
X020449Y003770D01*
X020551Y003673D02*
X020647Y003770D01*
X020647Y003480D01*
X020551Y003480D02*
X020744Y003480D01*
X020845Y003480D02*
X020894Y003480D01*
X020894Y003528D01*
X020845Y003528D01*
X020845Y003480D01*
X020992Y003480D02*
X021186Y003673D01*
X021186Y003722D01*
X021138Y003770D01*
X021041Y003770D01*
X020992Y003722D01*
X020992Y003480D02*
X021186Y003480D01*
X016192Y009061D02*
X016192Y009254D01*
X016095Y009351D01*
X015998Y009254D01*
X015998Y009061D01*
X015897Y009158D02*
X015849Y009158D01*
X015849Y009351D01*
X015897Y009351D02*
X015800Y009351D01*
X015701Y009351D02*
X015701Y009158D01*
X015556Y009158D01*
X015507Y009206D01*
X015507Y009351D01*
X015129Y009303D02*
X015080Y009351D01*
X014984Y009351D01*
X014935Y009303D01*
X014935Y009206D01*
X014984Y009158D01*
X015032Y009158D01*
X015129Y009206D01*
X015129Y009061D01*
X014935Y009061D01*
X014834Y009061D02*
X014834Y009254D01*
X014737Y009351D01*
X014641Y009254D01*
X014641Y009061D01*
X014302Y009061D02*
X014157Y009061D01*
X014109Y009109D01*
X014109Y009303D01*
X014157Y009351D01*
X014302Y009351D01*
X014302Y009061D01*
X014007Y009158D02*
X013911Y009061D01*
X013911Y009351D01*
X014007Y009351D02*
X013814Y009351D01*
X013713Y009351D02*
X013519Y009351D01*
X013616Y009351D02*
X013616Y009061D01*
X013713Y009158D01*
X013278Y009061D02*
X013133Y009061D01*
X013085Y009109D01*
X013085Y009303D01*
X013133Y009351D01*
X013278Y009351D01*
X013278Y009061D01*
X012984Y009158D02*
X012887Y009061D01*
X012887Y009351D01*
X012984Y009351D02*
X012790Y009351D01*
X012689Y009351D02*
X012496Y009158D01*
X012496Y009109D01*
X012544Y009061D01*
X012641Y009061D01*
X012689Y009109D01*
X012689Y009351D02*
X012496Y009351D01*
X012255Y009351D02*
X012110Y009351D01*
X012061Y009303D01*
X012061Y009109D01*
X012110Y009061D01*
X012255Y009061D01*
X012255Y009351D01*
X011960Y009351D02*
X011767Y009351D01*
X011863Y009351D02*
X011863Y009061D01*
X011960Y009158D01*
X011665Y009109D02*
X011617Y009061D01*
X011520Y009061D01*
X011472Y009109D01*
X011472Y009158D01*
X011520Y009206D01*
X011472Y009254D01*
X011472Y009303D01*
X011520Y009351D01*
X011617Y009351D01*
X011665Y009303D01*
X011569Y009206D02*
X011520Y009206D01*
X011231Y009061D02*
X011231Y009351D01*
X011086Y009351D01*
X011038Y009303D01*
X011038Y009109D01*
X011086Y009061D01*
X011231Y009061D01*
X010936Y009158D02*
X010840Y009061D01*
X010840Y009351D01*
X010936Y009351D02*
X010743Y009351D01*
X010642Y009206D02*
X010448Y009206D01*
X010497Y009351D02*
X010497Y009061D01*
X010642Y009206D01*
X010129Y009206D02*
X009935Y009206D01*
X009935Y009158D02*
X009935Y009351D01*
X009834Y009303D02*
X009641Y009109D01*
X009641Y009303D01*
X009689Y009351D01*
X009786Y009351D01*
X009834Y009303D01*
X009834Y009109D01*
X009786Y009061D01*
X009689Y009061D01*
X009641Y009109D01*
X009935Y009158D02*
X010032Y009061D01*
X010129Y009158D01*
X010129Y009351D01*
X009105Y009351D02*
X009105Y009158D01*
X009008Y009061D01*
X008912Y009158D01*
X008912Y009351D01*
X008811Y009351D02*
X008617Y009351D01*
X008714Y009351D02*
X008714Y009061D01*
X008811Y009158D01*
X008912Y009206D02*
X009105Y009206D01*
X008082Y009206D02*
X007888Y009206D01*
X007888Y009158D02*
X007888Y009351D01*
X007787Y009351D02*
X007593Y009158D01*
X007593Y009109D01*
X007642Y009061D01*
X007739Y009061D01*
X007787Y009109D01*
X007888Y009158D02*
X007985Y009061D01*
X008082Y009158D01*
X008082Y009351D01*
X007787Y009351D02*
X007593Y009351D01*
X007058Y009351D02*
X007058Y009158D01*
X006961Y009061D01*
X006864Y009158D01*
X006864Y009351D01*
X006763Y009303D02*
X006715Y009351D01*
X006618Y009351D01*
X006570Y009303D01*
X006570Y009254D01*
X006618Y009206D01*
X006667Y009206D01*
X006618Y009206D02*
X006570Y009158D01*
X006570Y009109D01*
X006618Y009061D01*
X006715Y009061D01*
X006763Y009109D01*
X006864Y009206D02*
X007058Y009206D01*
X006074Y009206D02*
X005880Y009206D01*
X005880Y009158D02*
X005880Y009351D01*
X005779Y009206D02*
X005586Y009206D01*
X005634Y009351D02*
X005634Y009061D01*
X005779Y009206D01*
X005880Y009158D02*
X005977Y009061D01*
X006074Y009158D01*
X006074Y009351D01*
X005050Y009351D02*
X005050Y009158D01*
X004953Y009061D01*
X004857Y009158D01*
X004857Y009351D01*
X004755Y009303D02*
X004707Y009351D01*
X004610Y009351D01*
X004562Y009303D01*
X004562Y009206D01*
X004610Y009158D01*
X004659Y009158D01*
X004755Y009206D01*
X004755Y009061D01*
X004562Y009061D01*
X004857Y009206D02*
X005050Y009206D01*
X003260Y010177D02*
X003260Y010371D01*
X003212Y010419D01*
X003067Y010419D01*
X003067Y010129D01*
X003212Y010129D01*
X003260Y010177D01*
X002966Y010129D02*
X002966Y010419D01*
X002772Y010419D02*
X002772Y010129D01*
X002671Y010177D02*
X002671Y010274D01*
X002574Y010274D01*
X002478Y010177D02*
X002526Y010129D01*
X002623Y010129D01*
X002671Y010177D01*
X002478Y010177D02*
X002478Y010371D01*
X002526Y010419D01*
X002623Y010419D01*
X002671Y010371D01*
X002772Y010419D02*
X002966Y010129D01*
X015849Y009061D02*
X015849Y009012D01*
D12*
X017415Y008135D02*
X017415Y005835D01*
X012545Y006628D02*
X012073Y006628D01*
X012073Y007258D02*
X012545Y007258D01*
X009120Y007204D02*
X008648Y007204D01*
X008648Y006574D02*
X009120Y006574D01*
X007580Y008127D02*
X007265Y008127D01*
X006556Y008127D02*
X006241Y008127D01*
X005572Y008127D02*
X005257Y008127D01*
X004588Y008127D02*
X004273Y008127D01*
X003564Y008135D02*
X003415Y008135D01*
X003415Y007385D01*
X003454Y007383D01*
X003493Y007377D01*
X003531Y007368D01*
X003568Y007355D01*
X003604Y007338D01*
X003637Y007318D01*
X003669Y007294D01*
X003698Y007268D01*
X003724Y007239D01*
X003748Y007207D01*
X003768Y007174D01*
X003785Y007138D01*
X003798Y007101D01*
X003807Y007063D01*
X003813Y007024D01*
X003815Y006985D01*
X003813Y006946D01*
X003807Y006907D01*
X003798Y006869D01*
X003785Y006832D01*
X003768Y006796D01*
X003748Y006763D01*
X003724Y006731D01*
X003698Y006702D01*
X003669Y006676D01*
X003637Y006652D01*
X003604Y006632D01*
X003568Y006615D01*
X003531Y006602D01*
X003493Y006593D01*
X003454Y006587D01*
X003415Y006585D01*
X003415Y005835D01*
X003564Y005835D01*
X005104Y006571D02*
X005577Y006571D01*
X005577Y007201D02*
X005104Y007201D01*
D13*
X005257Y005843D02*
X005572Y005843D01*
X006281Y005843D02*
X006556Y005843D01*
X007265Y005843D02*
X007580Y005843D01*
X008249Y005843D02*
X008564Y005843D01*
X009273Y005843D02*
X009588Y005843D01*
X010257Y005843D02*
X010572Y005843D01*
X011241Y005843D02*
X011556Y005843D01*
X012265Y005843D02*
X012580Y005843D01*
X013289Y005843D02*
X013564Y005843D01*
X014273Y005843D02*
X014588Y005843D01*
X015257Y005843D02*
X015572Y005843D01*
X016281Y005843D02*
X016556Y005843D01*
X017265Y005843D02*
X017383Y005843D01*
X018027Y006984D02*
X018027Y004268D01*
X018029Y004207D01*
X018035Y004147D01*
X018044Y004087D01*
X018058Y004028D01*
X018075Y003970D01*
X018096Y003913D01*
X018121Y003858D01*
X018149Y003804D01*
X018180Y003752D01*
X018215Y003703D01*
X018252Y003655D01*
X018293Y003611D01*
X018337Y003568D01*
X018383Y003529D01*
X018431Y003493D01*
X018482Y003460D01*
X018535Y003430D01*
X018589Y003404D01*
X018646Y003381D01*
X018703Y003362D01*
X018762Y003347D01*
X018821Y003335D01*
X018881Y003327D01*
X018942Y003323D01*
X019002Y003323D01*
X019063Y003327D01*
X019123Y003335D01*
X019182Y003347D01*
X019241Y003362D01*
X019298Y003381D01*
X019355Y003404D01*
X019409Y003430D01*
X019462Y003460D01*
X019513Y003493D01*
X019561Y003529D01*
X019607Y003568D01*
X019651Y003611D01*
X019692Y003655D01*
X019729Y003703D01*
X019764Y003752D01*
X019795Y003804D01*
X019823Y003858D01*
X019848Y003913D01*
X019869Y003970D01*
X019886Y004028D01*
X019900Y004087D01*
X019909Y004147D01*
X019915Y004207D01*
X019917Y004268D01*
X019917Y006945D01*
X019915Y007006D01*
X019909Y007066D01*
X019900Y007126D01*
X019886Y007185D01*
X019869Y007243D01*
X019848Y007300D01*
X019823Y007355D01*
X019795Y007409D01*
X019764Y007461D01*
X019729Y007510D01*
X019692Y007558D01*
X019651Y007602D01*
X019607Y007645D01*
X019561Y007684D01*
X019513Y007720D01*
X019462Y007753D01*
X019409Y007783D01*
X019355Y007809D01*
X019298Y007832D01*
X019241Y007851D01*
X019182Y007866D01*
X019123Y007878D01*
X019063Y007886D01*
X019002Y007890D01*
X018942Y007890D01*
X018881Y007886D01*
X018821Y007878D01*
X018762Y007866D01*
X018703Y007851D01*
X018646Y007832D01*
X018589Y007809D01*
X018535Y007783D01*
X018482Y007753D01*
X018431Y007720D01*
X018383Y007684D01*
X018337Y007645D01*
X018293Y007602D01*
X018252Y007558D01*
X018215Y007510D01*
X018180Y007461D01*
X018149Y007409D01*
X018121Y007355D01*
X018096Y007300D01*
X018075Y007243D01*
X018058Y007185D01*
X018044Y007126D01*
X018035Y007066D01*
X018029Y007006D01*
X018027Y006945D01*
X019520Y007967D02*
X019520Y010486D01*
X020741Y010486D01*
X020741Y007967D01*
X019520Y007967D01*
X017423Y008127D02*
X017265Y008127D01*
X016556Y008127D02*
X016281Y008127D01*
X015572Y008127D02*
X015257Y008127D01*
X014549Y008127D02*
X014273Y008127D01*
X013564Y008127D02*
X013249Y008127D01*
X012580Y008127D02*
X012265Y008127D01*
X011556Y008127D02*
X011281Y008127D01*
X010572Y008127D02*
X010257Y008127D01*
X009549Y008127D02*
X009273Y008127D01*
X008564Y008127D02*
X008289Y008127D01*
X004549Y005843D02*
X004273Y005843D01*
D14*
X006141Y006766D02*
X006298Y006766D01*
X006219Y006766D02*
X006219Y007002D01*
X006141Y006924D01*
X006376Y006963D02*
X006376Y006805D01*
X006534Y006963D01*
X006534Y006805D01*
X006494Y006766D01*
X006415Y006766D01*
X006376Y006805D01*
X006376Y006963D02*
X006415Y007002D01*
X006494Y007002D01*
X006534Y006963D01*
X006612Y007002D02*
X006612Y006766D01*
X006612Y006845D02*
X006730Y006924D01*
X006612Y006845D02*
X006730Y006766D01*
X007879Y007311D02*
X007918Y007311D01*
X007918Y007350D01*
X007879Y007350D01*
X007879Y007311D01*
X007996Y007311D02*
X008154Y007311D01*
X008075Y007311D02*
X008075Y007547D01*
X007996Y007468D01*
X008232Y007468D02*
X008232Y007350D01*
X008271Y007311D01*
X008390Y007311D01*
X008390Y007468D01*
X008468Y007429D02*
X008546Y007429D01*
X008468Y007311D02*
X008468Y007547D01*
X008625Y007547D01*
X010686Y006763D02*
X010686Y006724D01*
X010725Y006724D01*
X010725Y006763D01*
X010686Y006763D01*
X010804Y006724D02*
X010961Y006724D01*
X010882Y006724D02*
X010882Y006960D01*
X010804Y006881D01*
X011039Y006881D02*
X011039Y006763D01*
X011079Y006724D01*
X011197Y006724D01*
X011197Y006881D01*
X011275Y006842D02*
X011354Y006842D01*
X011432Y006960D02*
X011275Y006960D01*
X011275Y006724D01*
M02*
