%
M48
M72
T01C0.0236
T02C0.0276
T03C0.0320
T04C0.0400
%
T01
X8411Y6810
X13787Y7022
X20104Y10114
X20774Y5744
X21674Y4644
T02
X19287Y4724
X19287Y6646
T03
X17387Y5485
X16387Y5485
X15387Y5485
X14387Y5485
X13387Y5485
X12387Y5485
X11387Y5485
X10387Y5485
X9387Y5485
X8387Y5485
X7387Y5485
X6387Y5485
X5387Y5485
X4387Y5485
X4387Y8485
X5387Y8485
X6387Y8485
X7387Y8485
X8387Y8485
X9387Y8485
X10387Y8485
X11387Y8485
X12387Y8485
X13387Y8485
X14387Y8485
X15387Y8485
X16387Y8485
X17387Y8485
T04
X5387Y4035
X6387Y3935
X7387Y4035
X8387Y3935
X9387Y4035
X10387Y3935
X11387Y4035
X12387Y3935
X13387Y4035
X14387Y3935
X15387Y4035
X16387Y3935
X16387Y9935
X15387Y10035
X14387Y9935
X13387Y10035
X12387Y9935
X11387Y10035
X10387Y9935
X9387Y10035
X8387Y9935
X7387Y10035
X6387Y9935
X5387Y10035
X3037Y9485
X2937Y8485
X3037Y7485
X2937Y6485
X3037Y5485
X2937Y4485
M30
