G75*
G70*
%OFA0B0*%
%FSLAX24Y24*%
%IPPOS*%
%LPD*%
%AMOC8*
5,1,8,0,0,1.08239X$1,22.5*
%
%ADD10C,0.0520*%
%ADD11R,0.0397X0.0397*%
%ADD12C,0.0740*%
%ADD13C,0.0120*%
%ADD14C,0.0160*%
%ADD15C,0.0396*%
D10*
X002887Y005125D02*
X002887Y005645D01*
X003887Y005645D02*
X003887Y005125D01*
X004887Y005125D02*
X004887Y005645D01*
X005887Y005645D02*
X005887Y005125D01*
X006887Y005125D02*
X006887Y005645D01*
X007887Y005645D02*
X007887Y005125D01*
X008887Y005125D02*
X008887Y005645D01*
X009887Y005645D02*
X009887Y005125D01*
X010887Y005125D02*
X010887Y005645D01*
X011887Y005645D02*
X011887Y005125D01*
X012887Y005125D02*
X012887Y005645D01*
X013887Y005645D02*
X013887Y005125D01*
X014887Y005125D02*
X014887Y005645D01*
X015887Y005645D02*
X015887Y005125D01*
X015887Y008125D02*
X015887Y008645D01*
X014887Y008645D02*
X014887Y008125D01*
X013887Y008125D02*
X013887Y008645D01*
X012887Y008645D02*
X012887Y008125D01*
X011887Y008125D02*
X011887Y008645D01*
X010887Y008645D02*
X010887Y008125D01*
X009887Y008125D02*
X009887Y008645D01*
X008887Y008645D02*
X008887Y008125D01*
X007887Y008125D02*
X007887Y008645D01*
X006887Y008645D02*
X006887Y008125D01*
X005887Y008125D02*
X005887Y008645D01*
X004887Y008645D02*
X004887Y008125D01*
X003887Y008125D02*
X003887Y008645D01*
X002887Y008645D02*
X002887Y008125D01*
D11*
X017787Y006646D03*
X017787Y004724D03*
D12*
X014887Y003935D03*
X013887Y004035D03*
X012887Y003935D03*
X011887Y004035D03*
X010887Y003935D03*
X009887Y004035D03*
X008887Y003935D03*
X007887Y004035D03*
X006887Y003935D03*
X005887Y004035D03*
X004887Y003935D03*
X003887Y004035D03*
X004887Y009935D03*
X005887Y010035D03*
X006887Y009935D03*
X007887Y010035D03*
X008887Y009935D03*
X009887Y010035D03*
X010887Y009935D03*
X011887Y010035D03*
X012887Y009935D03*
X013887Y010035D03*
X014887Y009935D03*
X003887Y010035D03*
D13*
X010887Y005385D02*
X011587Y006385D01*
X016587Y006485D01*
X017787Y006646D01*
X016387Y006185D02*
X012087Y006085D01*
X011887Y005385D01*
X016387Y006185D02*
X017787Y004724D01*
D14*
X002367Y003365D02*
X002377Y010605D01*
X019509Y010605D01*
X019509Y003365D01*
X002367Y003365D01*
X002367Y003502D02*
X003736Y003502D01*
X003778Y003485D02*
X003576Y003569D01*
X003421Y003723D01*
X003337Y003925D01*
X003337Y004144D01*
X003421Y004346D01*
X003576Y004501D01*
X003778Y004585D01*
X003996Y004585D01*
X004199Y004501D01*
X004353Y004346D01*
X004408Y004215D01*
X004421Y004246D01*
X004576Y004401D01*
X004778Y004485D01*
X004996Y004485D01*
X005199Y004401D01*
X005353Y004246D01*
X005366Y004215D01*
X005421Y004346D01*
X005576Y004501D01*
X005778Y004585D01*
X005996Y004585D01*
X006199Y004501D01*
X006353Y004346D01*
X006408Y004215D01*
X006421Y004246D01*
X006576Y004401D01*
X006778Y004485D01*
X006996Y004485D01*
X007199Y004401D01*
X007353Y004246D01*
X007366Y004215D01*
X007421Y004346D01*
X007576Y004501D01*
X007778Y004585D01*
X007996Y004585D01*
X008199Y004501D01*
X008353Y004346D01*
X008408Y004215D01*
X008421Y004246D01*
X008576Y004401D01*
X008778Y004485D01*
X008996Y004485D01*
X009199Y004401D01*
X009353Y004246D01*
X009366Y004215D01*
X009421Y004346D01*
X009576Y004501D01*
X009778Y004585D01*
X009996Y004585D01*
X010199Y004501D01*
X010353Y004346D01*
X010408Y004215D01*
X010421Y004246D01*
X010576Y004401D01*
X010778Y004485D01*
X010996Y004485D01*
X011199Y004401D01*
X011353Y004246D01*
X011366Y004215D01*
X011421Y004346D01*
X011576Y004501D01*
X011778Y004585D01*
X011996Y004585D01*
X012199Y004501D01*
X012353Y004346D01*
X012408Y004215D01*
X012421Y004246D01*
X012576Y004401D01*
X012778Y004485D01*
X012996Y004485D01*
X013199Y004401D01*
X013353Y004246D01*
X013366Y004215D01*
X013421Y004346D01*
X013576Y004501D01*
X013778Y004585D01*
X013996Y004585D01*
X014199Y004501D01*
X014353Y004346D01*
X014408Y004215D01*
X014421Y004246D01*
X014576Y004401D01*
X014778Y004485D01*
X014867Y004485D01*
X014867Y003955D01*
X014907Y003955D01*
X014907Y004485D01*
X014996Y004485D01*
X015199Y004401D01*
X015353Y004246D01*
X015437Y004044D01*
X015437Y003955D01*
X014907Y003955D01*
X014907Y003915D01*
X015437Y003915D01*
X015437Y003825D01*
X015353Y003623D01*
X015199Y003469D01*
X014996Y003385D01*
X014907Y003385D01*
X014907Y003915D01*
X014867Y003915D01*
X014867Y003385D01*
X014778Y003385D01*
X014576Y003469D01*
X014421Y003623D01*
X014366Y003755D01*
X014353Y003723D01*
X014199Y003569D01*
X013996Y003485D01*
X013778Y003485D01*
X013576Y003569D01*
X013421Y003723D01*
X013408Y003755D01*
X013353Y003623D01*
X013199Y003469D01*
X012996Y003385D01*
X012778Y003385D01*
X012576Y003469D01*
X012421Y003623D01*
X012366Y003755D01*
X012353Y003723D01*
X012199Y003569D01*
X011996Y003485D01*
X011778Y003485D01*
X011576Y003569D01*
X011421Y003723D01*
X011408Y003755D01*
X011353Y003623D01*
X011199Y003469D01*
X010996Y003385D01*
X010778Y003385D01*
X010576Y003469D01*
X010421Y003623D01*
X010366Y003755D01*
X010353Y003723D01*
X010199Y003569D01*
X009996Y003485D01*
X009778Y003485D01*
X009576Y003569D01*
X009421Y003723D01*
X009408Y003755D01*
X009353Y003623D01*
X009199Y003469D01*
X008996Y003385D01*
X008778Y003385D01*
X008576Y003469D01*
X008421Y003623D01*
X008366Y003755D01*
X008353Y003723D01*
X008199Y003569D01*
X007996Y003485D01*
X007778Y003485D01*
X007576Y003569D01*
X007421Y003723D01*
X007408Y003755D01*
X007353Y003623D01*
X007199Y003469D01*
X006996Y003385D01*
X006778Y003385D01*
X006576Y003469D01*
X006421Y003623D01*
X006366Y003755D01*
X006353Y003723D01*
X006199Y003569D01*
X005996Y003485D01*
X005778Y003485D01*
X005576Y003569D01*
X005421Y003723D01*
X005408Y003755D01*
X005353Y003623D01*
X005199Y003469D01*
X004996Y003385D01*
X004778Y003385D01*
X004576Y003469D01*
X004421Y003623D01*
X004366Y003755D01*
X004353Y003723D01*
X004199Y003569D01*
X003996Y003485D01*
X003778Y003485D01*
X004038Y003502D02*
X004542Y003502D01*
X004405Y003661D02*
X004291Y003661D01*
X003484Y003661D02*
X002368Y003661D01*
X002368Y003819D02*
X003381Y003819D01*
X003337Y003978D02*
X002368Y003978D01*
X002368Y004136D02*
X003337Y004136D01*
X003399Y004295D02*
X002368Y004295D01*
X002369Y004453D02*
X003528Y004453D01*
X003638Y004752D02*
X003800Y004685D01*
X003975Y004685D01*
X004136Y004752D01*
X004260Y004876D01*
X004327Y005037D01*
X004327Y005732D01*
X004260Y005894D01*
X004136Y006018D01*
X003975Y006085D01*
X003800Y006085D01*
X003638Y006018D01*
X003514Y005894D01*
X003447Y005732D01*
X003447Y005037D01*
X003514Y004876D01*
X003638Y004752D01*
X003619Y004770D02*
X003155Y004770D01*
X003136Y004752D02*
X003260Y004876D01*
X003327Y005037D01*
X003327Y005732D01*
X003260Y005894D01*
X003136Y006018D01*
X002975Y006085D01*
X002800Y006085D01*
X002638Y006018D01*
X002514Y005894D01*
X002447Y005732D01*
X002447Y005037D01*
X002514Y004876D01*
X002638Y004752D01*
X002800Y004685D01*
X002975Y004685D01*
X003136Y004752D01*
X003282Y004929D02*
X003492Y004929D01*
X003447Y005087D02*
X003327Y005087D01*
X003327Y005246D02*
X003447Y005246D01*
X003447Y005404D02*
X003327Y005404D01*
X003327Y005563D02*
X003447Y005563D01*
X003447Y005722D02*
X003327Y005722D01*
X003266Y005880D02*
X003508Y005880D01*
X003688Y006039D02*
X003086Y006039D01*
X002688Y006039D02*
X002371Y006039D01*
X002371Y006197D02*
X011163Y006197D01*
X011060Y006050D02*
X010975Y006085D01*
X010800Y006085D01*
X010638Y006018D01*
X010514Y005894D01*
X010447Y005732D01*
X010447Y005037D01*
X010514Y004876D01*
X010638Y004752D01*
X010800Y004685D01*
X010975Y004685D01*
X011136Y004752D01*
X011260Y004876D01*
X011327Y005037D01*
X011327Y005595D01*
X011482Y005816D01*
X011447Y005732D01*
X011447Y005037D01*
X011514Y004876D01*
X011638Y004752D01*
X011800Y004685D01*
X011975Y004685D01*
X012136Y004752D01*
X012260Y004876D01*
X012327Y005037D01*
X012327Y005732D01*
X012279Y005849D01*
X012498Y005854D01*
X012447Y005732D01*
X012447Y005037D01*
X012514Y004876D01*
X012638Y004752D01*
X012800Y004685D01*
X012975Y004685D01*
X013136Y004752D01*
X013260Y004876D01*
X013327Y005037D01*
X013327Y005732D01*
X013269Y005872D01*
X013507Y005878D01*
X013447Y005732D01*
X013447Y005037D01*
X013514Y004876D01*
X013638Y004752D01*
X013800Y004685D01*
X013975Y004685D01*
X014136Y004752D01*
X014260Y004876D01*
X014327Y005037D01*
X014327Y005732D01*
X014260Y005894D01*
X014259Y005895D01*
X014521Y005901D01*
X014514Y005894D01*
X014447Y005732D01*
X014447Y005037D01*
X014514Y004876D01*
X014638Y004752D01*
X014800Y004685D01*
X014975Y004685D01*
X015136Y004752D01*
X015260Y004876D01*
X015327Y005037D01*
X015327Y005732D01*
X015260Y005894D01*
X015236Y005918D01*
X015545Y005925D01*
X015514Y005894D01*
X015447Y005732D01*
X015447Y005037D01*
X015514Y004876D01*
X015638Y004752D01*
X015800Y004685D01*
X015975Y004685D01*
X016136Y004752D01*
X016260Y004876D01*
X016327Y005037D01*
X016327Y005732D01*
X016260Y005894D01*
X016213Y005941D01*
X016287Y005942D01*
X017409Y004772D01*
X017409Y004451D01*
X017514Y004346D01*
X018060Y004346D01*
X018165Y004451D01*
X018165Y004997D01*
X018060Y005103D01*
X017757Y005103D01*
X016655Y006252D01*
X017426Y006355D01*
X017514Y006267D01*
X018060Y006267D01*
X018165Y006373D01*
X018165Y006918D01*
X018060Y007024D01*
X017514Y007024D01*
X017409Y006918D01*
X017409Y006837D01*
X016569Y006724D01*
X011611Y006625D01*
X011592Y006629D01*
X011564Y006624D01*
X011535Y006624D01*
X011517Y006616D01*
X011498Y006613D01*
X011474Y006597D01*
X011447Y006586D01*
X011434Y006572D01*
X011418Y006562D01*
X011401Y006538D01*
X011381Y006517D01*
X011374Y006499D01*
X011060Y006050D01*
X010688Y006039D02*
X010086Y006039D01*
X010136Y006018D02*
X009975Y006085D01*
X009887Y006085D01*
X009800Y006085D01*
X009638Y006018D01*
X009514Y005894D01*
X009447Y005732D01*
X009447Y005385D01*
X009887Y005385D01*
X009887Y006085D01*
X009887Y005385D01*
X009887Y005385D01*
X009887Y005385D01*
X010327Y005385D01*
X010327Y005732D01*
X010260Y005894D01*
X010136Y006018D01*
X010266Y005880D02*
X010508Y005880D01*
X010447Y005722D02*
X010327Y005722D01*
X010327Y005563D02*
X010447Y005563D01*
X010447Y005404D02*
X010327Y005404D01*
X010327Y005385D02*
X009887Y005385D01*
X009887Y005385D01*
X009447Y005385D01*
X009447Y005037D01*
X009514Y004876D01*
X009638Y004752D01*
X009800Y004685D01*
X009887Y004685D01*
X009887Y005384D01*
X009887Y005384D01*
X009887Y004685D01*
X009975Y004685D01*
X010136Y004752D01*
X010260Y004876D01*
X010327Y005037D01*
X010327Y005385D01*
X010327Y005246D02*
X010447Y005246D01*
X010447Y005087D02*
X010327Y005087D01*
X010282Y004929D02*
X010492Y004929D01*
X010619Y004770D02*
X010155Y004770D01*
X009887Y004770D02*
X009887Y004770D01*
X009887Y004929D02*
X009887Y004929D01*
X009887Y005087D02*
X009887Y005087D01*
X009887Y005246D02*
X009887Y005246D01*
X009887Y005404D02*
X009887Y005404D01*
X009887Y005563D02*
X009887Y005563D01*
X009887Y005722D02*
X009887Y005722D01*
X009887Y005880D02*
X009887Y005880D01*
X009887Y006039D02*
X009887Y006039D01*
X009688Y006039D02*
X009086Y006039D01*
X009136Y006018D02*
X008975Y006085D01*
X008800Y006085D01*
X008638Y006018D01*
X008514Y005894D01*
X008447Y005732D01*
X008447Y005037D01*
X008514Y004876D01*
X008638Y004752D01*
X008800Y004685D01*
X008975Y004685D01*
X009136Y004752D01*
X009260Y004876D01*
X009327Y005037D01*
X009327Y005732D01*
X009260Y005894D01*
X009136Y006018D01*
X009266Y005880D02*
X009508Y005880D01*
X009447Y005722D02*
X009327Y005722D01*
X009327Y005563D02*
X009447Y005563D01*
X009447Y005404D02*
X009327Y005404D01*
X009327Y005246D02*
X009447Y005246D01*
X009447Y005087D02*
X009327Y005087D01*
X009282Y004929D02*
X009492Y004929D01*
X009619Y004770D02*
X009155Y004770D01*
X009073Y004453D02*
X009528Y004453D01*
X009399Y004295D02*
X009305Y004295D01*
X008701Y004453D02*
X008246Y004453D01*
X008375Y004295D02*
X008469Y004295D01*
X008136Y004752D02*
X007975Y004685D01*
X007800Y004685D01*
X007638Y004752D01*
X007514Y004876D01*
X007447Y005037D01*
X007447Y005732D01*
X007514Y005894D01*
X007638Y006018D01*
X007800Y006085D01*
X007975Y006085D01*
X008136Y006018D01*
X008260Y005894D01*
X008327Y005732D01*
X008327Y005037D01*
X008260Y004876D01*
X008136Y004752D01*
X008155Y004770D02*
X008619Y004770D01*
X008492Y004929D02*
X008282Y004929D01*
X008327Y005087D02*
X008447Y005087D01*
X008447Y005246D02*
X008327Y005246D01*
X008327Y005404D02*
X008447Y005404D01*
X008447Y005563D02*
X008327Y005563D01*
X008327Y005722D02*
X008447Y005722D01*
X008508Y005880D02*
X008266Y005880D01*
X008086Y006039D02*
X008688Y006039D01*
X007688Y006039D02*
X007086Y006039D01*
X007136Y006018D02*
X006975Y006085D01*
X006800Y006085D01*
X006638Y006018D01*
X006514Y005894D01*
X006447Y005732D01*
X006447Y005037D01*
X006514Y004876D01*
X006638Y004752D01*
X006800Y004685D01*
X006975Y004685D01*
X007136Y004752D01*
X007260Y004876D01*
X007327Y005037D01*
X007327Y005732D01*
X007260Y005894D01*
X007136Y006018D01*
X007266Y005880D02*
X007508Y005880D01*
X007447Y005722D02*
X007327Y005722D01*
X007327Y005563D02*
X007447Y005563D01*
X007447Y005404D02*
X007327Y005404D01*
X007327Y005246D02*
X007447Y005246D01*
X007447Y005087D02*
X007327Y005087D01*
X007282Y004929D02*
X007492Y004929D01*
X007619Y004770D02*
X007155Y004770D01*
X007073Y004453D02*
X007528Y004453D01*
X007399Y004295D02*
X007305Y004295D01*
X006701Y004453D02*
X006246Y004453D01*
X006375Y004295D02*
X006469Y004295D01*
X006136Y004752D02*
X005975Y004685D01*
X005800Y004685D01*
X005638Y004752D01*
X005514Y004876D01*
X005447Y005037D01*
X005447Y005732D01*
X005514Y005894D01*
X005638Y006018D01*
X005800Y006085D01*
X005975Y006085D01*
X006136Y006018D01*
X006260Y005894D01*
X006327Y005732D01*
X006327Y005037D01*
X006260Y004876D01*
X006136Y004752D01*
X006155Y004770D02*
X006619Y004770D01*
X006492Y004929D02*
X006282Y004929D01*
X006327Y005087D02*
X006447Y005087D01*
X006447Y005246D02*
X006327Y005246D01*
X006327Y005404D02*
X006447Y005404D01*
X006447Y005563D02*
X006327Y005563D01*
X006327Y005722D02*
X006447Y005722D01*
X006508Y005880D02*
X006266Y005880D01*
X006086Y006039D02*
X006688Y006039D01*
X005688Y006039D02*
X005086Y006039D01*
X005136Y006018D02*
X004975Y006085D01*
X004800Y006085D01*
X004638Y006018D01*
X004514Y005894D01*
X004447Y005732D01*
X004447Y005037D01*
X004514Y004876D01*
X004638Y004752D01*
X004800Y004685D01*
X004975Y004685D01*
X005136Y004752D01*
X005260Y004876D01*
X005327Y005037D01*
X005327Y005732D01*
X005260Y005894D01*
X005136Y006018D01*
X005266Y005880D02*
X005508Y005880D01*
X005447Y005722D02*
X005327Y005722D01*
X005327Y005563D02*
X005447Y005563D01*
X005447Y005404D02*
X005327Y005404D01*
X005327Y005246D02*
X005447Y005246D01*
X005447Y005087D02*
X005327Y005087D01*
X005282Y004929D02*
X005492Y004929D01*
X005619Y004770D02*
X005155Y004770D01*
X005073Y004453D02*
X005528Y004453D01*
X005399Y004295D02*
X005305Y004295D01*
X004701Y004453D02*
X004246Y004453D01*
X004375Y004295D02*
X004469Y004295D01*
X004619Y004770D02*
X004155Y004770D01*
X004282Y004929D02*
X004492Y004929D01*
X004447Y005087D02*
X004327Y005087D01*
X004327Y005246D02*
X004447Y005246D01*
X004447Y005404D02*
X004327Y005404D01*
X004327Y005563D02*
X004447Y005563D01*
X004447Y005722D02*
X004327Y005722D01*
X004266Y005880D02*
X004508Y005880D01*
X004688Y006039D02*
X004086Y006039D01*
X002508Y005880D02*
X002371Y005880D01*
X002370Y005722D02*
X002447Y005722D01*
X002447Y005563D02*
X002370Y005563D01*
X002370Y005404D02*
X002447Y005404D01*
X002447Y005246D02*
X002370Y005246D01*
X002370Y005087D02*
X002447Y005087D01*
X002492Y004929D02*
X002369Y004929D01*
X002369Y004770D02*
X002619Y004770D01*
X002369Y004612D02*
X017409Y004612D01*
X017409Y004770D02*
X016155Y004770D01*
X016282Y004929D02*
X017259Y004929D01*
X017107Y005087D02*
X016327Y005087D01*
X016327Y005246D02*
X016955Y005246D01*
X016803Y005404D02*
X016327Y005404D01*
X016327Y005563D02*
X016651Y005563D01*
X016499Y005722D02*
X016327Y005722D01*
X016347Y005880D02*
X016266Y005880D01*
X016708Y006197D02*
X019509Y006197D01*
X019509Y006039D02*
X016860Y006039D01*
X017012Y005880D02*
X019509Y005880D01*
X019509Y005722D02*
X017164Y005722D01*
X017316Y005563D02*
X019509Y005563D01*
X019509Y005404D02*
X017467Y005404D01*
X017619Y005246D02*
X019509Y005246D01*
X019509Y005087D02*
X018075Y005087D01*
X018165Y004929D02*
X019509Y004929D01*
X019509Y004770D02*
X018165Y004770D01*
X018165Y004612D02*
X019509Y004612D01*
X019509Y004453D02*
X018165Y004453D01*
X017409Y004453D02*
X015073Y004453D01*
X014907Y004453D02*
X014867Y004453D01*
X014867Y004295D02*
X014907Y004295D01*
X014907Y004136D02*
X014867Y004136D01*
X014867Y003978D02*
X014907Y003978D01*
X014907Y003819D02*
X014867Y003819D01*
X014867Y003661D02*
X014907Y003661D01*
X014907Y003502D02*
X014867Y003502D01*
X014542Y003502D02*
X014038Y003502D01*
X014291Y003661D02*
X014405Y003661D01*
X013736Y003502D02*
X013232Y003502D01*
X013369Y003661D02*
X013484Y003661D01*
X013399Y004295D02*
X013305Y004295D01*
X013528Y004453D02*
X013073Y004453D01*
X012701Y004453D02*
X012246Y004453D01*
X012375Y004295D02*
X012469Y004295D01*
X012619Y004770D02*
X012155Y004770D01*
X012282Y004929D02*
X012492Y004929D01*
X012447Y005087D02*
X012327Y005087D01*
X012327Y005246D02*
X012447Y005246D01*
X012447Y005404D02*
X012327Y005404D01*
X012327Y005563D02*
X012447Y005563D01*
X012447Y005722D02*
X012327Y005722D01*
X011447Y005722D02*
X011416Y005722D01*
X011447Y005563D02*
X011327Y005563D01*
X011327Y005404D02*
X011447Y005404D01*
X011447Y005246D02*
X011327Y005246D01*
X011327Y005087D02*
X011447Y005087D01*
X011492Y004929D02*
X011282Y004929D01*
X011155Y004770D02*
X011619Y004770D01*
X011528Y004453D02*
X011073Y004453D01*
X011305Y004295D02*
X011399Y004295D01*
X010701Y004453D02*
X010246Y004453D01*
X010375Y004295D02*
X010469Y004295D01*
X010405Y003661D02*
X010291Y003661D01*
X010542Y003502D02*
X010038Y003502D01*
X009736Y003502D02*
X009232Y003502D01*
X009369Y003661D02*
X009484Y003661D01*
X008542Y003502D02*
X008038Y003502D01*
X008291Y003661D02*
X008405Y003661D01*
X007736Y003502D02*
X007232Y003502D01*
X007369Y003661D02*
X007484Y003661D01*
X006542Y003502D02*
X006038Y003502D01*
X006291Y003661D02*
X006405Y003661D01*
X005736Y003502D02*
X005232Y003502D01*
X005369Y003661D02*
X005484Y003661D01*
X002371Y006356D02*
X011274Y006356D01*
X011380Y006514D02*
X002371Y006514D01*
X002372Y006673D02*
X013985Y006673D01*
X014266Y005880D02*
X014508Y005880D01*
X014447Y005722D02*
X014327Y005722D01*
X014327Y005563D02*
X014447Y005563D01*
X014447Y005404D02*
X014327Y005404D01*
X014327Y005246D02*
X014447Y005246D01*
X014447Y005087D02*
X014327Y005087D01*
X014282Y004929D02*
X014492Y004929D01*
X014619Y004770D02*
X014155Y004770D01*
X014246Y004453D02*
X014701Y004453D01*
X014469Y004295D02*
X014375Y004295D01*
X013619Y004770D02*
X013155Y004770D01*
X013282Y004929D02*
X013492Y004929D01*
X013447Y005087D02*
X013327Y005087D01*
X013327Y005246D02*
X013447Y005246D01*
X013447Y005404D02*
X013327Y005404D01*
X013327Y005563D02*
X013447Y005563D01*
X013447Y005722D02*
X013327Y005722D01*
X015266Y005880D02*
X015508Y005880D01*
X015447Y005722D02*
X015327Y005722D01*
X015327Y005563D02*
X015447Y005563D01*
X015447Y005404D02*
X015327Y005404D01*
X015327Y005246D02*
X015447Y005246D01*
X015447Y005087D02*
X015327Y005087D01*
X015282Y004929D02*
X015492Y004929D01*
X015619Y004770D02*
X015155Y004770D01*
X015305Y004295D02*
X019509Y004295D01*
X019509Y004136D02*
X015399Y004136D01*
X015437Y003978D02*
X019509Y003978D01*
X019509Y003819D02*
X015434Y003819D01*
X015369Y003661D02*
X019509Y003661D01*
X019509Y003502D02*
X015232Y003502D01*
X012542Y003502D02*
X012038Y003502D01*
X012291Y003661D02*
X012405Y003661D01*
X011736Y003502D02*
X011232Y003502D01*
X011369Y003661D02*
X011484Y003661D01*
X017367Y006831D02*
X002372Y006831D01*
X002372Y006990D02*
X017480Y006990D01*
X018094Y006990D02*
X019509Y006990D01*
X019509Y007148D02*
X002372Y007148D01*
X002372Y007307D02*
X019509Y007307D01*
X019509Y007466D02*
X002373Y007466D01*
X002373Y007624D02*
X019509Y007624D01*
X019509Y007783D02*
X016167Y007783D01*
X016136Y007752D02*
X016260Y007876D01*
X016327Y008037D01*
X016327Y008732D01*
X016260Y008894D01*
X016136Y009018D01*
X015975Y009085D01*
X015800Y009085D01*
X015638Y009018D01*
X015514Y008894D01*
X015447Y008732D01*
X015447Y008037D01*
X015514Y007876D01*
X015638Y007752D01*
X015800Y007685D01*
X015975Y007685D01*
X016136Y007752D01*
X016287Y007941D02*
X019509Y007941D01*
X019509Y008100D02*
X016327Y008100D01*
X016327Y008258D02*
X019509Y008258D01*
X019509Y008417D02*
X016327Y008417D01*
X016327Y008575D02*
X019509Y008575D01*
X019509Y008734D02*
X016326Y008734D01*
X016261Y008892D02*
X019509Y008892D01*
X019509Y009051D02*
X016056Y009051D01*
X015718Y009051D02*
X015056Y009051D01*
X015136Y009018D02*
X014975Y009085D01*
X014800Y009085D01*
X014638Y009018D01*
X014514Y008894D01*
X014447Y008732D01*
X014447Y008037D01*
X014514Y007876D01*
X014638Y007752D01*
X014800Y007685D01*
X014975Y007685D01*
X015136Y007752D01*
X015260Y007876D01*
X015327Y008037D01*
X015327Y008732D01*
X015260Y008894D01*
X015136Y009018D01*
X015261Y008892D02*
X015513Y008892D01*
X015448Y008734D02*
X015326Y008734D01*
X015327Y008575D02*
X015447Y008575D01*
X015447Y008417D02*
X015327Y008417D01*
X015327Y008258D02*
X015447Y008258D01*
X015447Y008100D02*
X015327Y008100D01*
X015287Y007941D02*
X015487Y007941D01*
X015607Y007783D02*
X015167Y007783D01*
X014607Y007783D02*
X014167Y007783D01*
X014136Y007752D02*
X014260Y007876D01*
X014327Y008037D01*
X014327Y008732D01*
X014260Y008894D01*
X014136Y009018D01*
X013975Y009085D01*
X013800Y009085D01*
X013638Y009018D01*
X013514Y008894D01*
X013447Y008732D01*
X013447Y008037D01*
X013514Y007876D01*
X013638Y007752D01*
X013800Y007685D01*
X013975Y007685D01*
X014136Y007752D01*
X014287Y007941D02*
X014487Y007941D01*
X014447Y008100D02*
X014327Y008100D01*
X014327Y008258D02*
X014447Y008258D01*
X014447Y008417D02*
X014327Y008417D01*
X014327Y008575D02*
X014447Y008575D01*
X014448Y008734D02*
X014326Y008734D01*
X014261Y008892D02*
X014513Y008892D01*
X014718Y009051D02*
X014056Y009051D01*
X013718Y009051D02*
X013056Y009051D01*
X013136Y009018D02*
X012975Y009085D01*
X012800Y009085D01*
X012638Y009018D01*
X012514Y008894D01*
X012447Y008732D01*
X012447Y008037D01*
X012514Y007876D01*
X012638Y007752D01*
X012800Y007685D01*
X012975Y007685D01*
X013136Y007752D01*
X013260Y007876D01*
X013327Y008037D01*
X013327Y008732D01*
X013260Y008894D01*
X013136Y009018D01*
X013261Y008892D02*
X013513Y008892D01*
X013448Y008734D02*
X013326Y008734D01*
X013327Y008575D02*
X013447Y008575D01*
X013447Y008417D02*
X013327Y008417D01*
X013327Y008258D02*
X013447Y008258D01*
X013447Y008100D02*
X013327Y008100D01*
X013287Y007941D02*
X013487Y007941D01*
X013607Y007783D02*
X013167Y007783D01*
X012607Y007783D02*
X012167Y007783D01*
X012136Y007752D02*
X012260Y007876D01*
X012327Y008037D01*
X012327Y008732D01*
X012260Y008894D01*
X012136Y009018D01*
X011975Y009085D01*
X011800Y009085D01*
X011638Y009018D01*
X011514Y008894D01*
X011447Y008732D01*
X011447Y008037D01*
X011514Y007876D01*
X011638Y007752D01*
X011800Y007685D01*
X011975Y007685D01*
X012136Y007752D01*
X012287Y007941D02*
X012487Y007941D01*
X012447Y008100D02*
X012327Y008100D01*
X012327Y008258D02*
X012447Y008258D01*
X012447Y008417D02*
X012327Y008417D01*
X012327Y008575D02*
X012447Y008575D01*
X012448Y008734D02*
X012326Y008734D01*
X012261Y008892D02*
X012513Y008892D01*
X012718Y009051D02*
X012056Y009051D01*
X011718Y009051D02*
X011056Y009051D01*
X011136Y009018D02*
X010975Y009085D01*
X010800Y009085D01*
X010638Y009018D01*
X010514Y008894D01*
X010447Y008732D01*
X010447Y008037D01*
X010514Y007876D01*
X010638Y007752D01*
X010800Y007685D01*
X010975Y007685D01*
X011136Y007752D01*
X011260Y007876D01*
X011327Y008037D01*
X011327Y008732D01*
X011260Y008894D01*
X011136Y009018D01*
X011261Y008892D02*
X011513Y008892D01*
X011448Y008734D02*
X011326Y008734D01*
X011327Y008575D02*
X011447Y008575D01*
X011447Y008417D02*
X011327Y008417D01*
X011327Y008258D02*
X011447Y008258D01*
X011447Y008100D02*
X011327Y008100D01*
X011287Y007941D02*
X011487Y007941D01*
X011607Y007783D02*
X011167Y007783D01*
X010607Y007783D02*
X010167Y007783D01*
X010136Y007752D02*
X010260Y007876D01*
X010327Y008037D01*
X010327Y008732D01*
X010260Y008894D01*
X010136Y009018D01*
X009975Y009085D01*
X009800Y009085D01*
X009638Y009018D01*
X009514Y008894D01*
X009447Y008732D01*
X009447Y008037D01*
X009514Y007876D01*
X009638Y007752D01*
X009800Y007685D01*
X009975Y007685D01*
X010136Y007752D01*
X010287Y007941D02*
X010487Y007941D01*
X010447Y008100D02*
X010327Y008100D01*
X010327Y008258D02*
X010447Y008258D01*
X010447Y008417D02*
X010327Y008417D01*
X010327Y008575D02*
X010447Y008575D01*
X010448Y008734D02*
X010326Y008734D01*
X010261Y008892D02*
X010513Y008892D01*
X010718Y009051D02*
X010056Y009051D01*
X009718Y009051D02*
X009056Y009051D01*
X009136Y009018D02*
X008975Y009085D01*
X008887Y009085D01*
X008800Y009085D01*
X008638Y009018D01*
X008514Y008894D01*
X008447Y008732D01*
X008447Y008385D01*
X008887Y008385D01*
X008887Y009085D01*
X008887Y008385D01*
X008887Y008385D01*
X008887Y008385D01*
X009327Y008385D01*
X009327Y008732D01*
X009260Y008894D01*
X009136Y009018D01*
X009261Y008892D02*
X009513Y008892D01*
X009448Y008734D02*
X009326Y008734D01*
X009327Y008575D02*
X009447Y008575D01*
X009447Y008417D02*
X009327Y008417D01*
X009327Y008385D02*
X008887Y008385D01*
X008887Y008385D01*
X008447Y008385D01*
X008447Y008037D01*
X008514Y007876D01*
X008638Y007752D01*
X008800Y007685D01*
X008887Y007685D01*
X008887Y008384D01*
X008887Y008384D01*
X008887Y007685D01*
X008975Y007685D01*
X009136Y007752D01*
X009260Y007876D01*
X009327Y008037D01*
X009327Y008385D01*
X009327Y008258D02*
X009447Y008258D01*
X009447Y008100D02*
X009327Y008100D01*
X009287Y007941D02*
X009487Y007941D01*
X009607Y007783D02*
X009167Y007783D01*
X008887Y007783D02*
X008887Y007783D01*
X008887Y007941D02*
X008887Y007941D01*
X008887Y008100D02*
X008887Y008100D01*
X008887Y008258D02*
X008887Y008258D01*
X008887Y008417D02*
X008887Y008417D01*
X008887Y008575D02*
X008887Y008575D01*
X008887Y008734D02*
X008887Y008734D01*
X008887Y008892D02*
X008887Y008892D01*
X008887Y009051D02*
X008887Y009051D01*
X008718Y009051D02*
X008056Y009051D01*
X008136Y009018D02*
X007975Y009085D01*
X007800Y009085D01*
X007638Y009018D01*
X007514Y008894D01*
X007447Y008732D01*
X007447Y008037D01*
X007514Y007876D01*
X007638Y007752D01*
X007800Y007685D01*
X007975Y007685D01*
X008136Y007752D01*
X008260Y007876D01*
X008327Y008037D01*
X008327Y008732D01*
X008260Y008894D01*
X008136Y009018D01*
X008261Y008892D02*
X008513Y008892D01*
X008448Y008734D02*
X008326Y008734D01*
X008327Y008575D02*
X008447Y008575D01*
X008447Y008417D02*
X008327Y008417D01*
X008327Y008258D02*
X008447Y008258D01*
X008447Y008100D02*
X008327Y008100D01*
X008287Y007941D02*
X008487Y007941D01*
X008607Y007783D02*
X008167Y007783D01*
X007607Y007783D02*
X007167Y007783D01*
X007136Y007752D02*
X006975Y007685D01*
X006800Y007685D01*
X006638Y007752D01*
X006514Y007876D01*
X006447Y008037D01*
X006447Y008732D01*
X006514Y008894D01*
X006638Y009018D01*
X006800Y009085D01*
X006975Y009085D01*
X007136Y009018D01*
X007260Y008894D01*
X007327Y008732D01*
X007327Y008037D01*
X007260Y007876D01*
X007136Y007752D01*
X007287Y007941D02*
X007487Y007941D01*
X007447Y008100D02*
X007327Y008100D01*
X007327Y008258D02*
X007447Y008258D01*
X007447Y008417D02*
X007327Y008417D01*
X007327Y008575D02*
X007447Y008575D01*
X007448Y008734D02*
X007326Y008734D01*
X007261Y008892D02*
X007513Y008892D01*
X007718Y009051D02*
X007056Y009051D01*
X006718Y009051D02*
X006056Y009051D01*
X006136Y009018D02*
X005975Y009085D01*
X005800Y009085D01*
X005638Y009018D01*
X005514Y008894D01*
X005447Y008732D01*
X005447Y008037D01*
X005514Y007876D01*
X005638Y007752D01*
X005800Y007685D01*
X005975Y007685D01*
X006136Y007752D01*
X006260Y007876D01*
X006327Y008037D01*
X006327Y008732D01*
X006260Y008894D01*
X006136Y009018D01*
X006261Y008892D02*
X006513Y008892D01*
X006448Y008734D02*
X006326Y008734D01*
X006327Y008575D02*
X006447Y008575D01*
X006447Y008417D02*
X006327Y008417D01*
X006327Y008258D02*
X006447Y008258D01*
X006447Y008100D02*
X006327Y008100D01*
X006287Y007941D02*
X006487Y007941D01*
X006607Y007783D02*
X006167Y007783D01*
X005607Y007783D02*
X005167Y007783D01*
X005136Y007752D02*
X005260Y007876D01*
X005327Y008037D01*
X005327Y008732D01*
X005260Y008894D01*
X005136Y009018D01*
X004975Y009085D01*
X004800Y009085D01*
X004638Y009018D01*
X004514Y008894D01*
X004447Y008732D01*
X004447Y008037D01*
X004514Y007876D01*
X004638Y007752D01*
X004800Y007685D01*
X004975Y007685D01*
X005136Y007752D01*
X005287Y007941D02*
X005487Y007941D01*
X005447Y008100D02*
X005327Y008100D01*
X005327Y008258D02*
X005447Y008258D01*
X005447Y008417D02*
X005327Y008417D01*
X005327Y008575D02*
X005447Y008575D01*
X005448Y008734D02*
X005326Y008734D01*
X005261Y008892D02*
X005513Y008892D01*
X005718Y009051D02*
X005056Y009051D01*
X004718Y009051D02*
X004056Y009051D01*
X004136Y009018D02*
X003975Y009085D01*
X003800Y009085D01*
X003638Y009018D01*
X003514Y008894D01*
X003447Y008732D01*
X003447Y008037D01*
X003514Y007876D01*
X003638Y007752D01*
X003800Y007685D01*
X003975Y007685D01*
X004136Y007752D01*
X004260Y007876D01*
X004327Y008037D01*
X004327Y008732D01*
X004260Y008894D01*
X004136Y009018D01*
X004261Y008892D02*
X004513Y008892D01*
X004448Y008734D02*
X004326Y008734D01*
X004327Y008575D02*
X004447Y008575D01*
X004447Y008417D02*
X004327Y008417D01*
X004327Y008258D02*
X004447Y008258D01*
X004447Y008100D02*
X004327Y008100D01*
X004287Y007941D02*
X004487Y007941D01*
X004607Y007783D02*
X004167Y007783D01*
X003607Y007783D02*
X003167Y007783D01*
X003136Y007752D02*
X003260Y007876D01*
X003327Y008037D01*
X003327Y008732D01*
X003260Y008894D01*
X003136Y009018D01*
X002975Y009085D01*
X002800Y009085D01*
X002638Y009018D01*
X002514Y008894D01*
X002447Y008732D01*
X002447Y008037D01*
X002514Y007876D01*
X002638Y007752D01*
X002800Y007685D01*
X002975Y007685D01*
X003136Y007752D01*
X003287Y007941D02*
X003487Y007941D01*
X003447Y008100D02*
X003327Y008100D01*
X003327Y008258D02*
X003447Y008258D01*
X003447Y008417D02*
X003327Y008417D01*
X003327Y008575D02*
X003447Y008575D01*
X003448Y008734D02*
X003326Y008734D01*
X003261Y008892D02*
X003513Y008892D01*
X003718Y009051D02*
X003056Y009051D01*
X002718Y009051D02*
X002375Y009051D01*
X002374Y008892D02*
X002513Y008892D01*
X002448Y008734D02*
X002374Y008734D01*
X002374Y008575D02*
X002447Y008575D01*
X002447Y008417D02*
X002374Y008417D01*
X002374Y008258D02*
X002447Y008258D01*
X002447Y008100D02*
X002373Y008100D01*
X002373Y007941D02*
X002487Y007941D01*
X002373Y007783D02*
X002607Y007783D01*
X002375Y009210D02*
X019509Y009210D01*
X019509Y009368D02*
X002375Y009368D01*
X002375Y009527D02*
X003677Y009527D01*
X003576Y009569D02*
X003778Y009485D01*
X003996Y009485D01*
X004199Y009569D01*
X004353Y009723D01*
X004366Y009755D01*
X004421Y009623D01*
X004576Y009469D01*
X004778Y009385D01*
X004996Y009385D01*
X005199Y009469D01*
X005353Y009623D01*
X005408Y009755D01*
X005421Y009723D01*
X005576Y009569D01*
X005778Y009485D01*
X005996Y009485D01*
X006199Y009569D01*
X006353Y009723D01*
X006366Y009755D01*
X006421Y009623D01*
X006576Y009469D01*
X006778Y009385D01*
X006996Y009385D01*
X007199Y009469D01*
X007353Y009623D01*
X007408Y009755D01*
X007421Y009723D01*
X007576Y009569D01*
X007778Y009485D01*
X007996Y009485D01*
X008199Y009569D01*
X008353Y009723D01*
X008366Y009755D01*
X008421Y009623D01*
X008576Y009469D01*
X008778Y009385D01*
X008996Y009385D01*
X009199Y009469D01*
X009353Y009623D01*
X009408Y009755D01*
X009421Y009723D01*
X009576Y009569D01*
X009778Y009485D01*
X009996Y009485D01*
X010199Y009569D01*
X010353Y009723D01*
X010366Y009755D01*
X010421Y009623D01*
X010576Y009469D01*
X010778Y009385D01*
X010996Y009385D01*
X011199Y009469D01*
X011353Y009623D01*
X011408Y009755D01*
X011421Y009723D01*
X011576Y009569D01*
X011778Y009485D01*
X011996Y009485D01*
X012199Y009569D01*
X012353Y009723D01*
X012366Y009755D01*
X012421Y009623D01*
X012576Y009469D01*
X012778Y009385D01*
X012996Y009385D01*
X013199Y009469D01*
X013353Y009623D01*
X013408Y009755D01*
X013421Y009723D01*
X013576Y009569D01*
X013778Y009485D01*
X013996Y009485D01*
X014199Y009569D01*
X014353Y009723D01*
X014366Y009755D01*
X014421Y009623D01*
X014576Y009469D01*
X014778Y009385D01*
X014996Y009385D01*
X015199Y009469D01*
X015353Y009623D01*
X015437Y009825D01*
X015437Y010044D01*
X015353Y010246D01*
X015199Y010401D01*
X014996Y010485D01*
X014778Y010485D01*
X014576Y010401D01*
X014421Y010246D01*
X014408Y010215D01*
X014353Y010346D01*
X014199Y010501D01*
X013996Y010585D01*
X013778Y010585D01*
X013576Y010501D01*
X013421Y010346D01*
X013366Y010215D01*
X013353Y010246D01*
X013199Y010401D01*
X012996Y010485D01*
X012778Y010485D01*
X012576Y010401D01*
X012421Y010246D01*
X012408Y010215D01*
X012353Y010346D01*
X012199Y010501D01*
X011996Y010585D01*
X011778Y010585D01*
X011576Y010501D01*
X011421Y010346D01*
X011366Y010215D01*
X011353Y010246D01*
X011199Y010401D01*
X010996Y010485D01*
X010778Y010485D01*
X010576Y010401D01*
X010421Y010246D01*
X010408Y010215D01*
X010353Y010346D01*
X010199Y010501D01*
X009996Y010585D01*
X009778Y010585D01*
X009576Y010501D01*
X009421Y010346D01*
X009366Y010215D01*
X009353Y010246D01*
X009199Y010401D01*
X008996Y010485D01*
X008778Y010485D01*
X008576Y010401D01*
X008421Y010246D01*
X008408Y010215D01*
X008353Y010346D01*
X008199Y010501D01*
X007996Y010585D01*
X007778Y010585D01*
X007576Y010501D01*
X007421Y010346D01*
X007366Y010215D01*
X007353Y010246D01*
X007199Y010401D01*
X006996Y010485D01*
X006778Y010485D01*
X006576Y010401D01*
X006421Y010246D01*
X006408Y010215D01*
X006353Y010346D01*
X006199Y010501D01*
X005996Y010585D01*
X005778Y010585D01*
X005576Y010501D01*
X005421Y010346D01*
X005366Y010215D01*
X005353Y010246D01*
X005199Y010401D01*
X004996Y010485D01*
X004778Y010485D01*
X004576Y010401D01*
X004421Y010246D01*
X004408Y010215D01*
X004353Y010346D01*
X004199Y010501D01*
X003996Y010585D01*
X003778Y010585D01*
X003576Y010501D01*
X003421Y010346D01*
X003337Y010144D01*
X003337Y009925D01*
X003421Y009723D01*
X003576Y009569D01*
X003459Y009685D02*
X002376Y009685D01*
X002376Y009844D02*
X003371Y009844D01*
X003337Y010002D02*
X002376Y010002D01*
X002376Y010161D02*
X003344Y010161D01*
X003410Y010319D02*
X002376Y010319D01*
X002377Y010478D02*
X003552Y010478D01*
X004222Y010478D02*
X004761Y010478D01*
X005013Y010478D02*
X005552Y010478D01*
X005410Y010319D02*
X005280Y010319D01*
X004494Y010319D02*
X004365Y010319D01*
X004395Y009685D02*
X004315Y009685D01*
X004518Y009527D02*
X004097Y009527D01*
X005257Y009527D02*
X005677Y009527D01*
X005459Y009685D02*
X005379Y009685D01*
X006097Y009527D02*
X006518Y009527D01*
X006395Y009685D02*
X006315Y009685D01*
X006365Y010319D02*
X006494Y010319D01*
X006761Y010478D02*
X006222Y010478D01*
X007013Y010478D02*
X007552Y010478D01*
X007410Y010319D02*
X007280Y010319D01*
X008222Y010478D02*
X008761Y010478D01*
X009013Y010478D02*
X009552Y010478D01*
X009410Y010319D02*
X009280Y010319D01*
X008494Y010319D02*
X008365Y010319D01*
X008395Y009685D02*
X008315Y009685D01*
X008518Y009527D02*
X008097Y009527D01*
X007677Y009527D02*
X007257Y009527D01*
X007379Y009685D02*
X007459Y009685D01*
X009257Y009527D02*
X009677Y009527D01*
X009459Y009685D02*
X009379Y009685D01*
X010097Y009527D02*
X010518Y009527D01*
X010395Y009685D02*
X010315Y009685D01*
X011257Y009527D02*
X011677Y009527D01*
X011459Y009685D02*
X011379Y009685D01*
X012097Y009527D02*
X012518Y009527D01*
X012395Y009685D02*
X012315Y009685D01*
X012365Y010319D02*
X012494Y010319D01*
X012761Y010478D02*
X012222Y010478D01*
X011552Y010478D02*
X011013Y010478D01*
X010761Y010478D02*
X010222Y010478D01*
X010365Y010319D02*
X010494Y010319D01*
X011280Y010319D02*
X011410Y010319D01*
X013013Y010478D02*
X013552Y010478D01*
X013410Y010319D02*
X013280Y010319D01*
X014222Y010478D02*
X014761Y010478D01*
X015013Y010478D02*
X019509Y010478D01*
X019509Y010319D02*
X015280Y010319D01*
X015389Y010161D02*
X019509Y010161D01*
X019509Y010002D02*
X015437Y010002D01*
X015437Y009844D02*
X019509Y009844D01*
X019509Y009685D02*
X015379Y009685D01*
X015257Y009527D02*
X019509Y009527D01*
X019509Y006831D02*
X018165Y006831D01*
X018165Y006673D02*
X019509Y006673D01*
X019509Y006514D02*
X018165Y006514D01*
X018149Y006356D02*
X019509Y006356D01*
X014518Y009527D02*
X014097Y009527D01*
X014315Y009685D02*
X014395Y009685D01*
X013677Y009527D02*
X013257Y009527D01*
X013379Y009685D02*
X013459Y009685D01*
X014365Y010319D02*
X014494Y010319D01*
D15*
X016587Y009285D03*
X019187Y009385D03*
X019287Y005685D03*
X012287Y006885D03*
X006587Y006885D03*
M02*
