G75*
G70*
%OFA0B0*%
%FSLAX24Y24*%
%IPPOS*%
%LPD*%
%AMOC8*
5,1,8,0,0,1.08239X$1,22.5*
%
%ADD10C,0.0020*%
%ADD11C,0.0030*%
%ADD12C,0.0060*%
%ADD13C,0.0050*%
D10*
X005037Y004614D02*
X005037Y004850D01*
X005155Y004850D01*
X005195Y004811D01*
X005195Y004732D01*
X005155Y004692D01*
X005037Y004692D01*
X005116Y004692D02*
X005195Y004614D01*
X005273Y004653D02*
X005312Y004614D01*
X005391Y004614D01*
X005430Y004653D01*
X005430Y004692D01*
X005391Y004732D01*
X005312Y004732D01*
X005273Y004771D01*
X005273Y004811D01*
X005312Y004850D01*
X005391Y004850D01*
X005430Y004811D01*
X005509Y004850D02*
X005666Y004850D01*
X005587Y004850D02*
X005587Y004614D01*
X006256Y004594D02*
X006374Y004594D01*
X006414Y004633D01*
X006414Y004791D01*
X006374Y004830D01*
X006256Y004830D01*
X006256Y004594D01*
X006492Y004594D02*
X006649Y004594D01*
X006570Y004594D02*
X006570Y004830D01*
X006492Y004751D01*
X007201Y004633D02*
X007319Y004633D01*
X007358Y004673D01*
X007358Y004830D01*
X007319Y004870D01*
X007201Y004870D01*
X007201Y004633D01*
X007437Y004633D02*
X007594Y004791D01*
X007594Y004830D01*
X007555Y004870D01*
X007476Y004870D01*
X007437Y004830D01*
X007437Y004633D02*
X007594Y004633D01*
X008164Y004633D02*
X008282Y004633D01*
X008321Y004673D01*
X008321Y004830D01*
X008282Y004870D01*
X008164Y004870D01*
X008164Y004633D01*
X008400Y004673D02*
X008439Y004633D01*
X008518Y004633D01*
X008557Y004673D01*
X008557Y004712D01*
X008518Y004751D01*
X008478Y004751D01*
X008518Y004751D02*
X008557Y004791D01*
X008557Y004830D01*
X008518Y004870D01*
X008439Y004870D01*
X008400Y004830D01*
X009209Y004870D02*
X009209Y004633D01*
X009327Y004633D01*
X009366Y004673D01*
X009366Y004830D01*
X009327Y004870D01*
X009209Y004870D01*
X009445Y004751D02*
X009602Y004751D01*
X009563Y004633D02*
X009563Y004870D01*
X009445Y004751D01*
X010233Y004633D02*
X010351Y004633D01*
X010390Y004673D01*
X010390Y004830D01*
X010351Y004870D01*
X010233Y004870D01*
X010233Y004633D01*
X010468Y004673D02*
X010507Y004633D01*
X010586Y004633D01*
X010626Y004673D01*
X010626Y004751D01*
X010586Y004791D01*
X010547Y004791D01*
X010468Y004751D01*
X010468Y004870D01*
X010626Y004870D01*
X011156Y004870D02*
X011156Y004633D01*
X011274Y004633D01*
X011314Y004673D01*
X011314Y004830D01*
X011274Y004870D01*
X011156Y004870D01*
X011392Y004751D02*
X011392Y004673D01*
X011431Y004633D01*
X011510Y004633D01*
X011549Y004673D01*
X011549Y004712D01*
X011510Y004751D01*
X011392Y004751D01*
X011470Y004830D01*
X011549Y004870D01*
X012240Y004870D02*
X012240Y004633D01*
X012358Y004633D01*
X012398Y004673D01*
X012398Y004830D01*
X012358Y004870D01*
X012240Y004870D01*
X012476Y004870D02*
X012633Y004870D01*
X012633Y004830D01*
X012476Y004673D01*
X012476Y004633D01*
X013225Y004633D02*
X013343Y004633D01*
X013382Y004673D01*
X013382Y004830D01*
X013343Y004870D01*
X013225Y004870D01*
X013225Y004633D01*
X013460Y004673D02*
X013460Y004712D01*
X013500Y004751D01*
X013578Y004751D01*
X013618Y004712D01*
X013618Y004673D01*
X013578Y004633D01*
X013500Y004633D01*
X013460Y004673D01*
X013500Y004751D02*
X013460Y004791D01*
X013460Y004830D01*
X013500Y004870D01*
X013578Y004870D01*
X013618Y004830D01*
X013618Y004791D01*
X013578Y004751D01*
X014170Y004633D02*
X014288Y004633D01*
X014327Y004673D01*
X014327Y004830D01*
X014288Y004870D01*
X014170Y004870D01*
X014170Y004633D01*
X014405Y004673D02*
X014444Y004633D01*
X014523Y004633D01*
X014563Y004673D01*
X014563Y004830D01*
X014523Y004870D01*
X014444Y004870D01*
X014405Y004830D01*
X014405Y004791D01*
X014444Y004751D01*
X014563Y004751D01*
X015036Y004633D02*
X015154Y004633D01*
X015193Y004673D01*
X015193Y004830D01*
X015154Y004870D01*
X015036Y004870D01*
X015036Y004633D01*
X015271Y004633D02*
X015429Y004633D01*
X015350Y004633D02*
X015350Y004870D01*
X015271Y004791D01*
X015507Y004830D02*
X015507Y004673D01*
X015664Y004830D01*
X015664Y004673D01*
X015625Y004633D01*
X015546Y004633D01*
X015507Y004673D01*
X015507Y004830D02*
X015546Y004870D01*
X015625Y004870D01*
X015664Y004830D01*
X016099Y004830D02*
X016099Y004673D01*
X016138Y004633D01*
X016217Y004633D01*
X016256Y004673D01*
X016256Y004751D01*
X016177Y004751D01*
X016099Y004830D02*
X016138Y004870D01*
X016217Y004870D01*
X016256Y004830D01*
X016334Y004870D02*
X016492Y004633D01*
X016492Y004870D01*
X016570Y004870D02*
X016688Y004870D01*
X016727Y004830D01*
X016727Y004673D01*
X016688Y004633D01*
X016570Y004633D01*
X016570Y004870D01*
X016334Y004870D02*
X016334Y004633D01*
X016394Y009081D02*
X016394Y009120D01*
X016394Y009199D02*
X016394Y009356D01*
X016355Y009356D02*
X016434Y009356D01*
X016512Y009277D02*
X016591Y009356D01*
X016669Y009277D01*
X016669Y009120D01*
X016512Y009120D02*
X016512Y009277D01*
X016434Y009199D02*
X016394Y009199D01*
X016276Y009199D02*
X016276Y009356D01*
X016119Y009356D02*
X016119Y009238D01*
X016158Y009199D01*
X016276Y009199D01*
X015606Y009238D02*
X015528Y009199D01*
X015488Y009199D01*
X015449Y009238D01*
X015449Y009317D01*
X015488Y009356D01*
X015567Y009356D01*
X015606Y009317D01*
X015606Y009238D02*
X015606Y009120D01*
X015449Y009120D01*
X015371Y009120D02*
X015371Y009277D01*
X015292Y009356D01*
X015213Y009277D01*
X015213Y009120D01*
X014661Y009120D02*
X014543Y009120D01*
X014504Y009159D01*
X014504Y009317D01*
X014543Y009356D01*
X014661Y009356D01*
X014661Y009120D01*
X014426Y009199D02*
X014347Y009120D01*
X014347Y009356D01*
X014426Y009356D02*
X014268Y009356D01*
X014190Y009356D02*
X014033Y009356D01*
X014111Y009356D02*
X014111Y009120D01*
X014190Y009199D01*
X013716Y009120D02*
X013716Y009356D01*
X013598Y009356D01*
X013559Y009317D01*
X013559Y009159D01*
X013598Y009120D01*
X013716Y009120D01*
X013481Y009199D02*
X013402Y009120D01*
X013402Y009356D01*
X013481Y009356D02*
X013323Y009356D01*
X013245Y009356D02*
X013088Y009199D01*
X013088Y009159D01*
X013127Y009120D01*
X013206Y009120D01*
X013245Y009159D01*
X013245Y009356D02*
X013088Y009356D01*
X012732Y009356D02*
X012732Y009120D01*
X012614Y009120D01*
X012575Y009159D01*
X012575Y009317D01*
X012614Y009356D01*
X012732Y009356D01*
X012497Y009356D02*
X012339Y009356D01*
X012418Y009356D02*
X012418Y009120D01*
X012497Y009199D01*
X012261Y009159D02*
X012222Y009120D01*
X012143Y009120D01*
X012104Y009159D01*
X012104Y009199D01*
X012143Y009238D01*
X012104Y009277D01*
X012104Y009317D01*
X012143Y009356D01*
X012222Y009356D01*
X012261Y009317D01*
X012182Y009238D02*
X012143Y009238D01*
X011709Y009120D02*
X011709Y009356D01*
X011591Y009356D01*
X011551Y009317D01*
X011551Y009159D01*
X011591Y009120D01*
X011709Y009120D01*
X011473Y009199D02*
X011394Y009120D01*
X011394Y009356D01*
X011316Y009356D02*
X011473Y009356D01*
X011237Y009238D02*
X011080Y009238D01*
X011119Y009356D02*
X011119Y009120D01*
X011237Y009238D01*
X010606Y009238D02*
X010449Y009238D01*
X010449Y009199D02*
X010449Y009356D01*
X010371Y009317D02*
X010213Y009159D01*
X010213Y009317D01*
X010253Y009356D01*
X010331Y009356D01*
X010371Y009317D01*
X010371Y009159D01*
X010331Y009120D01*
X010253Y009120D01*
X010213Y009159D01*
X010449Y009199D02*
X010528Y009120D01*
X010606Y009199D01*
X010606Y009356D01*
X009583Y009356D02*
X009583Y009199D01*
X009504Y009120D01*
X009425Y009199D01*
X009425Y009356D01*
X009347Y009356D02*
X009190Y009356D01*
X009268Y009356D02*
X009268Y009120D01*
X009347Y009199D01*
X009425Y009238D02*
X009583Y009238D01*
X008559Y009238D02*
X008402Y009238D01*
X008402Y009199D02*
X008402Y009356D01*
X008323Y009356D02*
X008166Y009199D01*
X008166Y009159D01*
X008205Y009120D01*
X008284Y009120D01*
X008323Y009159D01*
X008402Y009199D02*
X008480Y009120D01*
X008559Y009199D01*
X008559Y009356D01*
X008323Y009356D02*
X008166Y009356D01*
X007535Y009356D02*
X007535Y009199D01*
X007457Y009120D01*
X007378Y009199D01*
X007378Y009356D01*
X007300Y009317D02*
X007260Y009356D01*
X007182Y009356D01*
X007142Y009317D01*
X007142Y009277D01*
X007182Y009238D01*
X007221Y009238D01*
X007182Y009238D02*
X007142Y009199D01*
X007142Y009159D01*
X007182Y009120D01*
X007260Y009120D01*
X007300Y009159D01*
X007378Y009238D02*
X007535Y009238D01*
X006551Y009238D02*
X006394Y009238D01*
X006394Y009199D02*
X006394Y009356D01*
X006315Y009238D02*
X006158Y009238D01*
X006197Y009356D02*
X006197Y009120D01*
X006315Y009238D01*
X006394Y009199D02*
X006472Y009120D01*
X006551Y009199D01*
X006551Y009356D01*
X005527Y009356D02*
X005527Y009199D01*
X005449Y009120D01*
X005370Y009199D01*
X005370Y009356D01*
X005292Y009317D02*
X005253Y009356D01*
X005174Y009356D01*
X005134Y009317D01*
X005134Y009238D01*
X005174Y009199D01*
X005213Y009199D01*
X005292Y009238D01*
X005292Y009120D01*
X005134Y009120D01*
X005370Y009238D02*
X005527Y009238D01*
D11*
X002517Y003884D02*
X002517Y003594D01*
X002517Y003690D02*
X002662Y003690D01*
X002711Y003739D01*
X002711Y003835D01*
X002662Y003884D01*
X002517Y003884D01*
X002812Y003884D02*
X003005Y003884D01*
X002908Y003884D02*
X002908Y003594D01*
X002711Y003594D02*
X002614Y003690D01*
X003106Y003642D02*
X003155Y003594D01*
X003251Y003594D01*
X003300Y003642D01*
X003300Y003690D01*
X003251Y003739D01*
X003155Y003739D01*
X003106Y003787D01*
X003106Y003835D01*
X003155Y003884D01*
X003251Y003884D01*
X003300Y003835D01*
X003401Y003594D02*
X003594Y003884D01*
X003696Y003884D02*
X003841Y003884D01*
X003889Y003835D01*
X003889Y003642D01*
X003841Y003594D01*
X003696Y003594D01*
X003696Y003884D01*
X003990Y003884D02*
X004184Y003884D01*
X004087Y003884D02*
X004087Y003594D01*
X004285Y003594D02*
X004285Y003884D01*
X004430Y003884D01*
X004478Y003835D01*
X004478Y003739D01*
X004430Y003690D01*
X004285Y003690D01*
X004382Y003690D02*
X004478Y003594D01*
X003448Y010050D02*
X003497Y010099D01*
X003497Y010292D01*
X003448Y010341D01*
X003303Y010341D01*
X003303Y010050D01*
X003448Y010050D01*
X003202Y010050D02*
X003202Y010341D01*
X003009Y010341D02*
X003202Y010050D01*
X003009Y010050D02*
X003009Y010341D01*
X002907Y010292D02*
X002859Y010341D01*
X002762Y010341D01*
X002714Y010292D01*
X002714Y010099D01*
X002762Y010050D01*
X002859Y010050D01*
X002907Y010099D01*
X002907Y010195D01*
X002811Y010195D01*
X017482Y004678D02*
X017772Y004678D01*
X017772Y004577D02*
X017772Y004432D01*
X017724Y004384D01*
X017627Y004384D01*
X017579Y004432D01*
X017579Y004577D01*
X017627Y004678D02*
X017579Y004727D01*
X017579Y004824D01*
X017627Y004872D01*
X017772Y004872D01*
X017982Y004971D02*
X017982Y005116D01*
X018030Y005165D01*
X018224Y005165D01*
X018272Y005116D01*
X018272Y004971D01*
X017982Y004971D01*
X018127Y004870D02*
X018079Y004822D01*
X018079Y004725D01*
X018127Y004677D01*
X018224Y004677D01*
X018272Y004725D01*
X018272Y004822D01*
X018224Y004870D01*
X018127Y004870D01*
X018079Y004577D02*
X018079Y004480D01*
X018030Y004529D02*
X018224Y004529D01*
X018272Y004577D01*
X018272Y004381D02*
X018224Y004332D01*
X018030Y004332D01*
X018079Y004284D02*
X018079Y004381D01*
X018127Y004183D02*
X018175Y004183D01*
X018175Y003989D01*
X018127Y003989D02*
X018079Y004038D01*
X018079Y004134D01*
X018127Y004183D01*
X018272Y004134D02*
X018272Y004038D01*
X018224Y003989D01*
X018127Y003989D01*
X018127Y003888D02*
X018272Y003888D01*
X018127Y003888D02*
X018079Y003840D01*
X018079Y003743D01*
X018127Y003695D01*
X018127Y003593D02*
X018127Y003497D01*
X018127Y003593D02*
X018224Y003593D01*
X018272Y003545D01*
X018272Y003448D01*
X018224Y003400D01*
X018030Y003400D01*
X017982Y003448D01*
X017982Y003545D01*
X018030Y003593D01*
X017982Y003695D02*
X018272Y003695D01*
X017772Y003693D02*
X017482Y003693D01*
X017579Y003597D01*
X017482Y003500D01*
X017772Y003500D01*
X017482Y003795D02*
X017482Y003988D01*
X017482Y003891D02*
X017772Y003891D01*
X017724Y004089D02*
X017627Y004089D01*
X017579Y004138D01*
X017579Y004234D01*
X017627Y004283D01*
X017675Y004283D01*
X017675Y004089D01*
X017724Y004089D02*
X017772Y004138D01*
X017772Y004234D01*
X018079Y005266D02*
X018224Y005266D01*
X018272Y005314D01*
X018272Y005459D01*
X018079Y005459D01*
X018079Y005561D02*
X018079Y005609D01*
X018272Y005609D01*
X018272Y005561D02*
X018272Y005657D01*
X018272Y005757D02*
X018079Y005757D01*
X018079Y005902D01*
X018127Y005950D01*
X018272Y005950D01*
X018224Y006052D02*
X018272Y006100D01*
X018272Y006197D01*
X018224Y006245D01*
X018127Y006245D01*
X018079Y006197D01*
X018079Y006100D01*
X018127Y006052D01*
X018224Y006052D01*
X017982Y005609D02*
X017933Y005609D01*
X018082Y007600D02*
X018275Y007600D01*
X018372Y007697D01*
X018275Y007793D01*
X018082Y007793D01*
X018179Y007895D02*
X018082Y007991D01*
X018372Y007991D01*
X018372Y007895D02*
X018372Y008088D01*
X018372Y008189D02*
X018372Y008238D01*
X018324Y008238D01*
X018324Y008189D01*
X018372Y008189D01*
X018372Y008336D02*
X018372Y008530D01*
X018372Y008433D02*
X018082Y008433D01*
X018179Y008336D01*
D12*
X017887Y008135D02*
X017887Y005835D01*
X012900Y006886D02*
X012663Y006886D01*
X012663Y007358D02*
X012900Y007358D01*
X009474Y006846D02*
X009238Y006846D01*
X009238Y006374D02*
X009474Y006374D01*
X008052Y008127D02*
X007737Y008127D01*
X007029Y008127D02*
X006714Y008127D01*
X006045Y008127D02*
X005730Y008127D01*
X005060Y008127D02*
X004745Y008127D01*
X004037Y008135D02*
X003887Y008135D01*
X003887Y007385D01*
X003926Y007383D01*
X003965Y007377D01*
X004003Y007368D01*
X004040Y007355D01*
X004076Y007338D01*
X004109Y007318D01*
X004141Y007294D01*
X004170Y007268D01*
X004196Y007239D01*
X004220Y007207D01*
X004240Y007174D01*
X004257Y007138D01*
X004270Y007101D01*
X004279Y007063D01*
X004285Y007024D01*
X004287Y006985D01*
X004285Y006946D01*
X004279Y006907D01*
X004270Y006869D01*
X004257Y006832D01*
X004240Y006796D01*
X004220Y006763D01*
X004196Y006731D01*
X004170Y006702D01*
X004141Y006676D01*
X004109Y006652D01*
X004076Y006632D01*
X004040Y006615D01*
X004003Y006602D01*
X003965Y006593D01*
X003926Y006587D01*
X003887Y006585D01*
X003887Y005835D01*
X004037Y005835D01*
X005695Y006649D02*
X005931Y006649D01*
X005931Y007122D02*
X005695Y007122D01*
X017112Y009602D02*
X017112Y009838D01*
X017585Y009838D02*
X017585Y009602D01*
X018097Y009602D02*
X018097Y009838D01*
X018569Y009838D02*
X018569Y009602D01*
D13*
X019735Y010486D02*
X020956Y010486D01*
X020956Y007967D01*
X019735Y007967D01*
X019735Y010486D01*
X017895Y008127D02*
X017737Y008127D01*
X017029Y008127D02*
X016753Y008127D01*
X016045Y008127D02*
X015730Y008127D01*
X015021Y008127D02*
X014745Y008127D01*
X014037Y008127D02*
X013722Y008127D01*
X013052Y008127D02*
X012737Y008127D01*
X012029Y008127D02*
X011753Y008127D01*
X011045Y008127D02*
X010730Y008127D01*
X010021Y008127D02*
X009745Y008127D01*
X009037Y008127D02*
X008761Y008127D01*
X008722Y005843D02*
X009037Y005843D01*
X009745Y005843D02*
X010060Y005843D01*
X010730Y005843D02*
X011045Y005843D01*
X011714Y005843D02*
X012029Y005843D01*
X012737Y005843D02*
X013052Y005843D01*
X013761Y005843D02*
X014037Y005843D01*
X014745Y005843D02*
X015060Y005843D01*
X015730Y005843D02*
X016045Y005843D01*
X016753Y005843D02*
X017029Y005843D01*
X017737Y005843D02*
X017856Y005843D01*
X018342Y007063D02*
X018342Y004346D01*
X018344Y004285D01*
X018350Y004225D01*
X018359Y004165D01*
X018373Y004106D01*
X018390Y004048D01*
X018411Y003991D01*
X018436Y003936D01*
X018464Y003882D01*
X018495Y003830D01*
X018530Y003781D01*
X018567Y003733D01*
X018608Y003689D01*
X018652Y003646D01*
X018698Y003607D01*
X018746Y003571D01*
X018797Y003538D01*
X018850Y003508D01*
X018904Y003482D01*
X018961Y003459D01*
X019018Y003440D01*
X019077Y003425D01*
X019136Y003413D01*
X019196Y003405D01*
X019257Y003401D01*
X019317Y003401D01*
X019378Y003405D01*
X019438Y003413D01*
X019497Y003425D01*
X019556Y003440D01*
X019613Y003459D01*
X019670Y003482D01*
X019724Y003508D01*
X019777Y003538D01*
X019828Y003571D01*
X019876Y003607D01*
X019922Y003646D01*
X019966Y003689D01*
X020007Y003733D01*
X020044Y003781D01*
X020079Y003830D01*
X020110Y003882D01*
X020138Y003936D01*
X020163Y003991D01*
X020184Y004048D01*
X020201Y004106D01*
X020215Y004165D01*
X020224Y004225D01*
X020230Y004285D01*
X020232Y004346D01*
X020232Y007023D01*
X020230Y007084D01*
X020224Y007144D01*
X020215Y007204D01*
X020201Y007263D01*
X020184Y007321D01*
X020163Y007378D01*
X020138Y007433D01*
X020110Y007487D01*
X020079Y007539D01*
X020044Y007588D01*
X020007Y007636D01*
X019966Y007680D01*
X019922Y007723D01*
X019876Y007762D01*
X019828Y007798D01*
X019777Y007831D01*
X019724Y007861D01*
X019670Y007887D01*
X019613Y007910D01*
X019556Y007929D01*
X019497Y007944D01*
X019438Y007956D01*
X019378Y007964D01*
X019317Y007968D01*
X019257Y007968D01*
X019196Y007964D01*
X019136Y007956D01*
X019077Y007944D01*
X019018Y007929D01*
X018961Y007910D01*
X018904Y007887D01*
X018850Y007861D01*
X018797Y007831D01*
X018746Y007798D01*
X018698Y007762D01*
X018652Y007723D01*
X018608Y007680D01*
X018567Y007636D01*
X018530Y007588D01*
X018495Y007539D01*
X018464Y007487D01*
X018436Y007433D01*
X018411Y007378D01*
X018390Y007321D01*
X018373Y007263D01*
X018359Y007204D01*
X018350Y007144D01*
X018344Y007084D01*
X018342Y007023D01*
X008052Y005843D02*
X007737Y005843D01*
X007029Y005843D02*
X006753Y005843D01*
X006045Y005843D02*
X005730Y005843D01*
X005021Y005843D02*
X004745Y005843D01*
M02*
